<svg width="39px" height="33px" viewBox="0 0 63 55" version="1.1" xmlns="http://www.w3.org/2000/svg" xmlnsXlink="http://www.w3.org/1999/xlink">
  <g stroke="none" stroke-width="1" fill="none" fill-rule="evenodd">
    <g transform="translate(-19.000000, -24.000000)" fill="#0082FC">
      <g transform="translate(19.434170, 24.274972)">
        <path d="M49.5251383,24.2114611 C49.5419633,24.8560932 49.5504538,25.5171724 49.5504538,26.1950636 C49.5504538,46.4512328 42.0142613,51.7250283 31.0632315,51.7250283 C24.3981703,51.7250283 18.9980445,49.7714912 15.792008,43.6891425 L29.4730093,35.7890283 L29.4735659,48.1891881 L42.4263968,35.0046993 L38.2300093,30.7330283 Z M31.0632315,0.725028333 C40.6461507,0.725028333 47.6141659,4.7634254 49.2056271,19.3056149 L35.0390093,27.4850283 L33.8304272,26.2549931 L42.3675203,17.5052869 L29.4146894,4.32079802 L29.4146894,21.7003515 L22.2906325,14.4488826 L19.7000663,17.0857804 L28.6492949,26.2549931 L19.7000663,35.3642763 L20.3130093,35.9880283 L14.145429,39.5484106 C13.1639705,36.2082684 12.6173786,32.0342679 12.578266,26.8564132 L12.5760093,26.2549931 C12.5760093,5.99882387 20.1122018,0.725028333 31.0632315,0.725028333 Z M34.9240093,32.6420283 L37.186388,34.9447698 L33.0650327,39.1398344 L33.0650093,33.7150283 L34.9240093,32.6420283 Z M33.0650327,13.3102222 L37.186388,17.5052869 L33.0650327,21.7003515 L33.0650327,13.3102222 Z" opacity="0.400000006"/>
        <path d="M3.01205742,25.102726 L59.1196021,25.102726 C60.3371751,25.102726 61.324213,26.0897639 61.324213,27.3073369 C61.324213,28.5249099 60.3371751,29.5119479 59.1196021,29.5119479 L3.01205742,29.5119479 C1.79448441,29.5119479 0.807446469,28.5249099 0.807446469,27.3073369 C0.807446469,26.0897639 1.79448441,25.102726 3.01205742,25.102726 Z" id="Combined-Shape" transform="translate(31.065830, 27.307337) rotate(-30.000000) translate(-31.065830, -27.307337) "/>
      </g>
    </g>
  </g>
</svg>