<svg width="32px" height="30px" viewBox="0 0 32 30" version="1.1" xmlns="http://www.w3.org/2000/svg" xmlnsXlink="http://www.w3.org/1999/xlink">
    <g stroke="none" stroke-width="1" fill="none" fill-rule="evenodd">
        <g transform="translate(-34.000000, -36.000000)">
            <g transform="translate(35.000000, 36.000000)">
                <path d="M14.651174,28.3538578 C16.3459351,28.3506434 17.7272393,27.5610611 18.7950866,25.9851108 C18.8806089,25.8584234 18.8487773,25.6861089 18.7228639,25.5994617 C18.6767192,25.5677073 18.6220248,25.5507028 18.5660098,25.5506963 L10.7381805,25.5655153 C10.5853521,25.5678413 10.4633206,25.6935943 10.4656159,25.8464231 C10.4664431,25.9015029 10.4836887,25.9550827 10.5155723,26.0000067 C11.5775996,27.5724437 12.9561335,28.3570607 14.651174,28.3538578 Z" id="Combined-Shape" fill="#C98D0A" transform="translate(14.656406, 26.951800) rotate(-9.000000) translate(-14.656406, -26.951800) "></path>
                <path d="M14.9981076,1.99746632 C21.7167468,2.08485941 21.8584216,7.51442844 22.7614798,12.6979313 C23.664538,17.8814341 25.4637401,20.6188862 28.156917,22.4871867 C28.6441698,23.0013039 28.6485082,23.9675438 27.519177,23.9675438 L14.9981076,23.9675438 C14.9997315,10.0992612 14.9997315,2.77590209 14.9981076,1.99746632 Z M14.9981076,1.99746632 C14.9964838,2.77590209 14.9964838,10.0992612 14.9981076,23.9675438 L2.48082298,23.9675438 C1.35149183,23.9675438 1.35583019,23.0013039 1.84308304,22.4871867 C4.53625991,20.6188862 6.33546203,17.8814341 7.23852024,12.6979313 C8.14157844,7.51442844 8.27946852,2.08485941 14.9981076,1.99746632 Z" id="Combined-Shape" fill="#FFCC00" transform="translate(15.000000, 12.982505) rotate(-9.000000) translate(-15.000000, -12.982505) "></path>
            </g>
        </g>
    </g>
</svg>