<svg width="22px" height="32px" viewBox="0 0 37 54" version="1.1" xmlns="http://www.w3.org/2000/svg" xmlnsXlink="http://www.w3.org/1999/xlink">
  <g stroke="none" stroke-width="1" fill="none" fill-rule="evenodd">
    <g transform="translate(-32.000000, -23.000000)">
      <g transform="translate(32.000000, 23.000000)">
        <path d="M17.5642023,38.4218435 L19.4357977,38.4218435 L19.4357977,41.6902645 L17.5642023,41.6902645 L17.5642023,38.4218435 Z M9.71709901,28.4921053 L20.6603329,28.4921053 C21.4550093,28.4921053 22.0992218,29.1363178 22.0992218,29.9309942 L22.0992218,31.4584795 C22.0992218,32.2531559 21.4550093,32.8973684 20.6603329,32.8973684 L9.71709901,32.8973684 C8.92242262,32.8973684 8.27821012,32.2531559 8.27821012,31.4584795 L8.27821012,29.9309942 C8.27821012,29.1363178 8.92242262,28.4921053 9.71709901,28.4921053 Z M18.1516066,49.7949887 L18.1463534,49.6280524 L17.5640617,46.2795487 L1.25635336,49.7876336 L1.25635336,48.9176987 L17.9753534,43.8870524 L17.9654593,43.5688631 L18.5003534,43.7290524 L19.0345407,43.5688631 L19.0243534,43.8870524 L35.7436466,48.9176987 L35.7436466,49.7876336 L19.4359383,46.2795487 L18.8533534,49.6210524 L18.8483934,49.7949887 L18.1516066,49.7949887 Z M2.6433191,26.0037366 L2.6433191,28.891589 C2.6433191,29.9809958 3.19851286,30.8280723 4.08229566,31.3825307 C4.68410736,31.7600891 5.44287467,31.9866596 5.95242393,31.9866596 C6.46925071,31.9866596 6.88822159,31.5731121 6.88822159,31.0629754 C6.88822159,30.5528387 6.46925071,30.1392912 5.95242393,30.1392912 C5.80565092,30.1392912 5.3935746,30.0162438 5.08624735,29.823436 C4.70646182,29.5851701 4.51491443,29.2929203 4.51491443,28.891589 L4.51491443,26.0037366 C4.51491443,25.4935999 4.09594354,25.0800524 3.57911676,25.0800524 C3.06228998,25.0800524 2.6433191,25.4935999 2.6433191,26.0037366 Z M34.3566809,26.0037366 L34.3566809,28.891589 C34.3566809,29.9809958 33.8014871,30.8280723 32.9177043,31.3825307 C32.3158926,31.7600891 31.5571253,31.9866596 31.0475761,31.9866596 C30.5307493,31.9866596 30.1117784,31.5731121 30.1117784,31.0629754 C30.1117784,30.5528387 30.5307493,30.1392912 31.0475761,30.1392912 C31.1943491,30.1392912 31.6064254,30.0162438 31.9137527,29.823436 C32.2935382,29.5851701 32.4850856,29.2929203 32.4850856,28.891589 L32.4850856,26.0037366 C32.4850856,25.4935999 32.9040565,25.0800524 33.4208832,25.0800524 C33.93771,25.0800524 34.3566809,25.4935999 34.3566809,26.0037366 Z" fill="#B1B1B1"/>
        <path d="M17.2034803,34.2297382 L19.7965197,34.2297382 C20.5911961,34.2297382 21.2354086,34.8739507 21.2354086,35.6686271 L21.2354086,37.6224283 C21.2354086,38.4171047 20.5911961,39.0613172 19.7965197,39.0613172 L17.2034803,39.0613172 C16.4088039,39.0613172 15.7645914,38.4171047 15.7645914,37.6224283 L15.7645914,35.6686271 C15.7645914,34.8739507 16.4088039,34.2297382 17.2034803,34.2297382 Z M18.139278,40.3402645 L18.9327064,40.3402645 C19.7273828,40.3402645 20.3715953,40.9844771 20.3715953,41.7791534 L20.3715953,44.3673712 L20.3715953,44.3673712 C19.7905318,44.1624554 19.1786641,44.0599976 18.5359922,44.0599976 C17.8933204,44.0599976 17.2814527,44.1624554 16.7003891,44.3673712 L16.7003891,41.7791534 C16.7003891,40.9844771 17.3446016,40.3402645 18.139278,40.3402645 Z M18.5,54 C19.2553622,54 19.8677043,53.3955844 19.8677043,52.65 C19.8677043,51.9044156 19.2553622,51.3 18.5,51.3 C17.7446378,51.3 17.1322957,51.9044156 17.1322957,52.65 C17.1322957,53.3955844 17.7446378,54 18.5,54 Z M1.36770428,54 C2.1230665,54 2.73540856,53.3955844 2.73540856,52.65 C2.73540856,51.9044156 2.1230665,51.3 1.36770428,51.3 C0.612342064,51.3 0,51.9044156 0,52.65 C0,53.3955844 0.612342064,54 1.36770428,54 Z M35.6322957,54 C34.8769335,54 34.2645914,53.3955844 34.2645914,52.65 C34.2645914,51.9044156 34.8769335,51.3 35.6322957,51.3 C36.3876579,51.3 37,51.9044156 37,52.65 C37,53.3955844 36.3876579,54 35.6322957,54 Z" fill="#4C4C4C"/>
        <path d="M21.6831651,0 C23.9957999,2.20118096e-15 26.0020759,1.59693643 26.5208304,3.85063864 L26.5208304,3.85063864 L27.6897069,8.92876234 L29.4844976,17.6060952 C30.223778,21.1802837 28.1691192,24.7414714 24.705029,25.8910094 C24.0460134,26.1095869 23.5523138,26.2533484 23.2239303,26.3222939 C22.2312668,26.5307078 20.6530221,26.6118997 18.4891962,26.5658695 L18.4948132,26.565 L18.1011449,26.5730092 C16.141181,26.6012538 14.695888,26.517682 13.7652659,26.3222939 C13.4368824,26.2533484 12.9431828,26.1095869 12.2841672,25.8910094 C8.82007697,24.7414714 6.7654182,21.1802837 7.50469856,17.6060952 L9.2994893,8.92876234 L10.4683658,3.85063864 C10.9871203,1.59693643 12.9933963,2.20118096e-15 15.3060311,0 Z M2.30270212,20.3210526 L4.89574146,20.3210526 C5.69041785,20.3210526 6.33463035,20.9652651 6.33463035,21.7599415 L6.33463035,22.1505848 C6.33463035,22.9452612 5.69041785,23.5894737 4.89574146,23.5894737 L2.30270212,23.5894737 C1.50802573,23.5894737 0.86381323,22.9452612 0.86381323,22.1505848 L0.86381323,21.7599415 C0.86381323,20.9652651 1.50802573,20.3210526 2.30270212,20.3210526 Z M9.71709901,32.8973684 C8.92242262,32.8973684 8.27821012,32.2531559 8.27821012,31.4584795 L8.27821012,29.9309942 C8.27821012,29.1363178 8.92242262,28.4921053 9.71709901,28.4921053 L27.282901,28.4921053 C28.0775774,28.4921053 28.7217899,29.1363178 28.7217899,29.9309942 L28.7217899,29.9309942 L28.7217899,31.4584795 C28.7217899,32.2531559 28.0775774,32.8973684 27.282901,32.8973684 L27.282901,32.8973684 L9.71709901,32.8973684 Z M34.6972979,20.3210526 L32.1042585,20.3210526 C31.3095822,20.3210526 30.6653696,20.9652651 30.6653696,21.7599415 L30.6653696,22.1505848 C30.6653696,22.9452612 31.3095822,23.5894737 32.1042585,23.5894737 L34.6972979,23.5894737 C35.4919743,23.5894737 36.1361868,22.9452612 36.1361868,22.1505848 L36.1361868,21.7599415 C36.1361868,20.9652651 35.4919743,20.3210526 34.6972979,20.3210526 Z" fill="#CDA373"/>
      </g>
    </g>
  </g>
</svg>