<svg width="33px" height="22px" viewBox="0 0 59 39" version="1.1" xmlns="http://www.w3.org/2000/svg" xmlnsXlink="http://www.w3.org/1999/xlink">
  <g stroke="none" stroke-width="1" fill="none" fill-rule="evenodd">
    <g transform="translate(-21.000000, -31.000000)" fill="#FF7E00">
      <path d="M40.1108499,31.9489796 C43.7336129,31.9489796 47.9654896,33.4575421 47.4175534,38.2356739 C47.3585926,38.5269224 45.2714697,38.3677821 45.4629814,39.0679993 C45.6549364,39.7682164 45.5724799,41.0757826 45.5587372,41.2636989 C45.5449945,41.4520512 45.4084537,42.0990763 44.962923,42.3414927 C44.7997834,42.4313088 43.0442595,42.8930336 42.6133581,43.1228059 C41.9745425,43.4641945 41.5538374,43.8413351 41.2980451,44.3091639 C41.076388,44.7137726 40.7638516,45.7501463 40.7501088,46.2763991 C40.7363661,46.801344 40.8604941,47.0040843 40.9420639,46.4909115 C40.9624563,46.3653433 40.9877252,46.2384671 41.0214171,46.1067948 C41.1251526,45.4536658 41.3250873,44.8663728 41.7351528,44.4478121 C41.8180526,44.352764 41.9297677,44.2638198 42.0632053,44.1805437 C42.0649786,44.1792357 42.0663085,44.1774917 42.0685251,44.1761837 C42.069855,44.1761837 42.0716283,44.1744397 42.0729582,44.1740037 C42.0867009,44.1657197 42.1004437,44.1565636 42.1146297,44.1478436 C43.1515415,43.5021266 44.6330973,43.150274 45.901419,43.150274 C48.9726993,43.150274 51.2930055,45.9707626 51.2930055,49.2752121 C51.2930055,50.5365621 50.9303745,51.70548 50.311508,52.6703496 C50.2392478,52.8648059 50.166101,53.0291782 50.0933974,53.1473344 C49.5130992,54.098688 49.164211,56.2150355 48.6145015,57.0098648 C48.41767,57.2941372 47.8630841,57.8461141 47.5545374,58.0069984 C47.040293,58.2751388 46.3420733,58.363211 45.609275,58.4918312 C44.4185333,58.7006755 43.0274135,58.5288913 42.4475586,58.3339989 C42.7880239,58.8223197 43.9641363,59.1480123 44.6960479,59.1026682 C46.0477127,59.0407561 47.062902,58.7752317 47.3124879,58.7665116 C47.3918411,58.7634596 47.7912672,58.6771315 47.9916452,58.7926717 L47.9916452,58.7926717 C47.9920885,58.7926717 47.9934184,58.7935437 47.9960783,58.7957237 L48.0443144,58.8276076 C48.1012147,58.8710821 48.1266786,58.9182399 48.0993705,58.967072 C48.1069068,59.2434964 47.5603005,59.8534614 43.815626,60.8436191 C44.816186,61.2020116 46.1651909,61.6074923 46.4768408,62.0674731 C50.0530559,67.3435177 41.3805015,73.0895712 39.2020559,65.09855 C39.0912274,65.1107581 39.653793,66.886153 39.5473976,66.894873 C37.068385,67.0919453 35.9126651,65.9112554 36.4574981,61.9148728 C35.6768219,61.7095165 34.9178682,61.448352 34.1496048,61.2586917 C32.5851492,60.8732671 31.4666677,60.3513742 30.2169651,59.8682855 C27.9817753,59.004568 26.7152268,58.2633668 25.3520359,57.3155013 C23.3455961,55.921171 21.4885532,55.8688509 21.6530228,52.7435978 C21.6556826,52.6912777 22.5259083,52.5521934 23.424506,52.5731215 C24.1377985,52.5888175 24.8617304,52.7636538 25.2327844,52.7435978 C25.7589982,52.7139497 25.4145432,52.3477091 23.3788447,52.1240407 C23.217035,52.1060194 22.9883834,52.1058256 22.7531478,52.1059709 L22.4715613,52.1051888 C22.1021827,52.1013784 21.7776531,52.0805279 21.7447888,51.9710045 C21.694251,51.8009642 22.7967732,48.2410184 23.5619334,47.0389644 C23.8341283,46.6108117 24.2477404,46.182223 24.7415923,45.7531983 C24.8435546,45.6729741 25.8512076,44.9152049 26.9683592,45.1711373 C28.1462448,45.4401498 28.5576403,45.567026 28.9411071,45.7601743 C29.3250171,45.9524506 30.5029027,46.8680521 30.8868128,47.8660577 C31.2698362,48.8631914 32.5616536,48.9743716 33.1880564,50.3451578 C33.8149026,51.7163801 33.7843139,51.692836 33.8180058,52.5011814 C33.8734201,53.7943595 33.297555,55.4655502 32.5026928,56.543344 C31.7087172,57.6211378 30.4204463,58.7521236 30.5303882,58.9413479 C30.6398868,59.1292642 32.8320752,58.994976 34.3114144,58.1604706 C35.7907537,57.3242213 35.1608043,58.2406948 36.0922073,57.6211378 C37.0240536,57.0011447 38.0011179,53.5785391 38.0290467,53.2554626 C38.0556456,52.9323861 38.2112488,51.7822162 38.0374697,51.073279 C37.8885161,50.461134 37.313981,48.3460945 36.9141117,47.4618851 C36.5443877,46.6430757 36.3936609,46.4909115 36.2841623,46.194867 C36.1746637,45.8988225 33.9004622,42.2608325 29.7084838,42.4627009 C29.372895,42.4845009 29.2545301,42.4644449 29.2447772,42.4221528 C29.3556058,42.3332086 29.4651044,42.2451365 29.5697265,42.1575004 C31.2224016,40.7662221 33.4207963,39.8275125 35.9250779,39.2249595 C35.8678903,37.5542048 33.8512544,36.0255863 34.8340818,34.8344323 C36.0908773,33.3114818 38.0002313,31.9489796 40.1108499,31.9489796 Z M57.2375698,34.1289832 C61.0221426,34.1289832 64.0898763,37.2420283 64.0898763,41.0818866 C64.0898763,42.2250805 64.028699,43.18341 63.9134373,43.9882674 C63.3867801,44.5376283 62.5444833,45.6267581 62.7750066,46.794368 C63.1039457,48.4655587 64.0717005,50.8108066 66.5471666,52.6023335 C66.5471666,52.6023335 66.5471666,52.6036415 66.5489398,52.6040775 C66.3680677,52.6250056 66.1929586,52.6681696 66.0258291,52.7405457 C70.8056421,57.0076848 59.9488791,65.5628908 51.6331926,59.0908962 C51.6061504,59.0699681 51.5977275,59.00544 51.6651112,58.966636 C51.732495,58.9282679 52.6842904,59.0935122 52.9112672,58.5437153 C55.2125109,52.9537501 52.0773934,48.639959 51.0418116,45.0695491 C50.4814625,43.140246 50.3586645,39.6282602 50.5297837,38.7152747 C50.885765,38.7662868 51.2417462,38.8186069 51.5915211,38.878775 C52.093796,35.3210091 54.0168927,34.1289832 57.2375698,34.1289832 Z M71.4230027,41.9991043 C77.2459338,40.1910094 83.2244682,39.0369155 77.6502363,46.7532562 C76.863797,47.8423859 76.7729176,49.8431932 76.7365659,51.4607559 C75.6016817,55.4357744 73.6741519,55.4174624 71.6446598,54.549385 L71.6446598,54.549385 C71.2071087,54.3619047 70.7673411,54.1373643 70.33112,53.9045399 L70.33112,53.9045399 L70.0257523,53.7514817 C68.8876276,53.1786169 67.5955024,52.4997819 67.7621146,52.4474255 C68.0183502,52.3663294 69.7472753,52.8446222 69.8705166,52.0184008 C69.1164393,49.5685128 68.2134084,45.0737814 69.2290411,43.9327675 C69.6563959,43.4522947 70.5771594,42.7102215 71.4230027,41.9991043 Z M29.2314778,47.8529777 C28.9601696,47.5939933 28.4774005,47.6502374 28.1533378,47.9776739 C27.8288319,48.3068545 27.7853871,48.7825312 28.0571387,49.0415157 C28.3284469,49.3009361 28.811216,49.245564 29.1352786,48.9172555 C29.4597846,48.5889469 29.5027861,48.1137061 29.2314778,47.8529777 Z"/>
    </g>
  </g>
</svg>