<?xml version="1.0" encoding="UTF-8"?>
<svg width="61px" height="37px" viewBox="0 0 96 37" version="1.1" xmlns="http://www.w3.org/2000/svg" xmlnsXlink="http://www.w3.org/1999/xlink">
  <g stroke="none" stroke-width="1" fill="none" fill-rule="evenodd">
    <path d="M50.7788385,1.70548784 C51.8139141,2.47527822 52.3172792,4.33099594 53.0620525,5.39645518 C55.1015752,8.31416486 58.4042721,13.1408876 61.4152745,14.9034923 C62.138385,15.3267791 62.779634,15.1140452 63.6984885,15.3508822 C64.9069212,15.6622657 65.8302864,16.3819484 67.1511535,16.6930522 L73.778043,17.1963659 C75.4889066,17.5061679 78.0843175,17.9308557 80.7101478,18.3473323 L81.460475,18.4659958 L81.460475,18.4659958 L82.2080306,18.5835744 C85.8073863,19.1482214 89.1544961,19.6524949 90,19.7722168 C90.0009333,20.0069861 90.0016121,20.3091722 90.0020826,20.6667197 L90.002202,24.621788 C90.0021207,24.7645048 90.0020344,24.9086098 90.0019438,25.0539145 L90.0010305,26.3889632 C90.0007,26.8413865 90.00035,27.2995214 90,27.7582821 L89.9993058,28.6751312 C89.999192,28.8275762 89.9990797,28.9797139 89.9989695,29.1313561 L89.9980562,30.4776703 C89.9979656,30.6246439 89.9978793,30.7705568 89.997798,30.9152208 L89.9979174,34.9850286 C89.9983879,35.3626034 89.9990667,35.687042 90,35.9462891 C87.6020733,34.9957165 82.52459,32.8548841 80.1264916,31.9043115 C76.7178202,30.5006255 73.4071599,29.2647106 70.1026253,27.8218779 C67.7202864,26.7816962 65.2020684,25.3220864 62.6404137,24.5783006 L58.964996,24.0190631 C57.6209626,23.6390612 55.8170008,23.3563667 54.4542562,22.7887407 L53.3404932,22.0617319 C52.1320605,21.6031572 50.7098409,21.812312 49.6093874,21.3347232 C47.2224821,20.2988477 46.0239618,18.4652198 44.0962609,17.2522897 C41.601432,15.6824541 37.7663007,15.2270671 34.5178998,14.4561023 C33.0726253,14.113066 31.0961416,14.1678713 30.6754177,12.8343136 C30.4611297,12.1551197 30.8074543,11.5386163 31.0652347,11.1566012 C32.5950438,8.88978799 36.4681543,10.1340355 39.0843278,10.3736687 L39.2513922,10.1499737 L39.2513922,9.98220248 C37.6653381,9.03955179 36.8495625,7.40199261 38.8615752,6.23531139 L38.805887,6.1234639 C37.5192124,5.88025152 36.4213763,6.50905814 35.353222,6.73862512 L33.6825776,6.85047261 C33.2397331,6.95665524 32.75454,7.12073122 32.2536466,7.29251039 L31.9514398,7.39610075 C31.8502183,7.43067132 31.748582,7.46514849 31.646744,7.49913075 L31.3408385,7.59919126 C29.4023058,8.21841849 27.4679434,8.51403219 27,5.73199766 C27.4016229,5.74905441 27.727677,5.72081291 27.9466985,5.56422642 L27.4455052,5.39645518 L27.5568815,5.28460768 C27.8221241,5.21749919 28.2217979,5.10470099 28.50358,5.22868394 L28.2251392,5.45237893 L28.50358,5.45237893 L28.7820207,5.22868394 C29.4040573,4.51845234 31.6295784,4.17049478 32.7915672,3.7746665 C34.3242164,3.25250647 35.883039,2.42170327 37.3579952,1.98510658 L45.265712,1.31402161 C47.1659029,0.979094283 49.4036754,0.682754345 50.7788385,1.70548784 Z M32.3460621,11.1006774 L31.956245,11.1006774 L31.5107399,11.4362199 L31.3436754,12.6106186 L31.5107399,12.4987711 L32.3460621,11.1006774 L32.3460621,11.1006774 Z" fill="#EFB492" fill-rule="nonzero"/>
  </g>
</svg>