<svg width="28px" height="28px" viewBox="0 0 48 48" version="1.1" xmlns="http://www.w3.org/2000/svg" xmlnsXlink="http://www.w3.org/1999/xlink">
  <defs>
    <linearGradient x1="50%" y1="0%" x2="50%" y2="100%" id="linearGradient">
      <stop stop-color="#DB5AEB" offset="0%"></stop>
      <stop stop-color="#CD463B" offset="100%"></stop>
    </linearGradient>
  </defs>
  <g stroke="none" stroke-width="1" fill="none" fill-rule="evenodd">
    <g transform="translate(-27.000000, -27.000000)" fill="url(#linearGradient)" fill-rule="nonzero">
      <path d="M55.3831075,62.6175713 L55.4907862,62.623288 C55.9974798,62.6796972 56.3626729,63.1376747 56.3064679,63.6462093 C55.8948973,67.3700399 54.9786046,70.9883938 53.5910364,74.4215579 C53.3994084,74.8956896 52.8610951,75.1241397 52.3886799,74.9318155 C51.9162648,74.7394913 51.6886417,74.1992221 51.8802696,73.7250904 C53.2043787,70.448939 54.0787434,66.9961546 54.4715682,63.4419334 C54.5197439,63.0060466 54.8618812,62.674497 55.2777356,62.6241872 L55.3831075,62.6175713 Z M48.7868686,71.0622328 C48.9503737,70.5776083 49.4743643,70.3177711 49.9572343,70.4818703 C50.4401043,70.6459694 50.6990008,71.1718639 50.5354957,71.6564884 L50.4252172,71.9735367 L50.4252172,71.9735367 L50.0835748,72.896328 L50.0835748,72.896328 L49.8180425,73.5863178 L49.8180425,73.5863178 L49.4982102,74.3991352 C49.3085222,74.874052 48.7711473,75.1047168 48.2979498,74.9143395 C47.8611522,74.7386066 47.6317211,74.2655435 47.7482034,73.8202695 L47.8138408,73.6362446 L47.8138408,73.6362446 L48.230465,72.5710199 L48.230465,72.5710199 L48.5564047,71.708733 L48.5564047,71.708733 L48.7391587,71.2012813 C48.7562136,71.1522977 48.7721338,71.1059064 48.7868686,71.0622328 Z M51,42.4089926 C55.155512,42.4089926 58.6904357,45.3707571 59.4811412,49.3971955 L59.5290692,49.6614624 C60.1324308,52.6295223 60.4390352,55.6684362 60.4390352,58.7464155 C60.4390352,63.896423 59.5804885,68.9301175 57.9192487,73.6918908 C57.7507766,74.1747987 57.2241461,74.429203 56.7429866,74.2601188 C56.261827,74.0910346 56.0083437,73.5624906 56.1768157,73.0795828 C57.7696339,68.513933 58.5928813,63.6871995 58.5928813,58.7464155 C58.5928813,56.0615119 58.349836,53.4084821 57.8709225,50.8098083 L57.7076895,49.9654633 C57.1703023,46.6951093 54.3395221,44.2618544 51,44.2618544 C50.211474,44.2618544 49.4425749,44.3962334 48.7166019,44.6559694 C48.2364,44.8277743 47.7083484,44.5763548 47.5371655,44.0944081 C47.3659826,43.6124615 47.6164919,43.0824912 48.0966938,42.9106863 C49.0209544,42.5800077 49.9994803,42.4089926 51,42.4089926 Z M51.0441241,46.394594 C53.2547486,46.394594 55.1442258,47.9608921 55.5803742,50.1093716 C55.5905849,50.1596697 55.5965257,50.2098458 55.5984462,50.2595213 C56.2330364,53.1407196 56.5561112,56.0999436 56.5561112,59.1006912 C56.5561112,59.6123448 56.1428356,60.0271221 55.6330343,60.0271221 C55.123233,60.0271221 54.7099573,59.6123448 54.7099573,59.1006912 C54.7099573,56.1744003 54.3884143,53.2907324 53.7571999,50.4860404 L53.7426425,50.4050078 L53.7353315,50.3243927 L53.6846492,50.1539944 C53.312262,49.0342726 52.2584522,48.2474558 51.0441241,48.2474558 C49.5069221,48.2474558 48.2607736,49.4981321 48.2607736,51.0409195 L48.2669863,51.2326956 L48.2669863,51.2326956 L48.2801168,51.4348523 L48.2801168,51.4348523 C48.3049971,51.759472 48.3499033,52.1050037 48.4193447,52.453472 C48.4299831,52.5068573 48.4358189,52.5600881 48.4371515,52.6127137 C48.7302372,54.4833883 48.8785115,56.3842651 48.8785115,58.3035709 C48.8785115,63.652537 47.7261029,68.8396455 45.5310807,73.5875798 C45.3165098,74.0517066 44.7676788,74.2533795 44.3052324,74.038029 C43.8427859,73.8226785 43.6418431,73.2718534 43.856414,72.8077266 C45.9390409,68.3029083 47.0323577,63.3817785 47.0323577,58.3035709 C47.0323577,56.7012295 46.9235855,55.112942 46.7083179,53.5461131 L46.5918199,52.7645212 C46.5870186,52.7346549 46.5836973,52.7048919 46.581802,52.6753077 C46.4570664,52.0034079 46.4146198,51.4246393 46.4146198,51.0409195 C46.4146198,48.4748248 48.4873195,46.394594 51.0441241,46.394594 Z M45.7138657,45.3610277 C46.1021844,45.6925398 46.1492082,46.2772217 45.8188963,46.6669513 C44.7804798,47.8921619 44.2013531,49.4425875 44.2005852,51.0474219 L44.2419726,51.6731236 L44.2419726,51.6731236 C44.2812309,52.1478723 44.3363557,52.6218112 44.4092255,53.0588347 C44.4850986,53.5138705 44.5757571,53.8988194 44.6770661,54.1835151 C44.7226082,54.3114964 44.7384033,54.4428832 44.7280445,54.5700622 C44.9642643,56.0293082 45.0838359,57.513288 45.0838359,59.0121223 C45.0838359,63.6233332 43.9550644,68.2331808 41.893837,72.2765818 C41.6616348,72.7320806 41.1054799,72.9124143 40.6516302,72.6793684 C40.1977805,72.4463225 40.0180997,71.8881469 40.2503019,71.4326481 C42.1796342,67.6479787 43.237682,63.3269632 43.237682,59.0121223 C43.237682,57.7417042 43.1457093,56.4833071 42.9638548,55.2436079 L42.8561979,54.5563124 L42.8561979,54.5563124 C42.7503323,54.2076315 42.6623844,53.8084101 42.5883918,53.3646528 C42.5061321,52.8713152 42.4453153,52.3484385 42.4021442,51.8263717 L42.3579101,51.1599991 C42.3568684,51.1351868 42.3559788,51.1106711 42.3551993,51.085204 C42.3551993,48.9985237 43.0928682,47.0236522 44.4126699,45.4664398 C44.7429818,45.0767102 45.3255471,45.0295155 45.7138657,45.3610277 Z M63.0110023,47.5662744 C63.9372252,51.2795471 64.4102074,55.1150428 64.4102074,59.0121223 C64.4102074,63.3143251 63.8337539,67.5405906 62.7083889,71.6086426 C62.5720065,72.1016475 62.0632342,72.3903456 61.572014,72.2534676 C61.0807939,72.1165897 60.793141,71.6059688 60.9295234,71.1129638 C62.0103414,67.2059439 62.5640535,63.1464059 62.5640535,59.0121223 C62.5640535,55.267041 62.1097055,51.5826527 61.2201142,48.016238 C61.09631,47.5199011 61.3968509,47.0168126 61.8913909,46.8925586 C62.385931,46.7683046 62.8871981,47.0699374 63.0110023,47.5662744 Z M39.6565103,64.6589381 C40.1498314,64.7879807 40.4455162,65.2939593 40.3169407,65.7890729 C39.9098561,67.3566586 39.3656319,68.8806056 38.6918402,70.3457278 C38.4781961,70.8102849 37.9297687,71.0130608 37.4668934,70.7986404 C37.0040181,70.58422 36.8019763,70.0337999 37.0156204,69.5692428 C37.6437334,68.2034465 38.1510152,66.7829462 38.5304669,65.3217681 C38.6590424,64.8266545 39.1631892,64.5298954 39.6565103,64.6589381 Z M59.2937726,37.0760489 C63.1097856,39.3562991 65.8556863,43.12009 66.8367818,47.4871897 L66.8481012,47.5254988 L66.8481012,47.5254988 L66.857867,47.5646148 C67.7502683,51.4931878 68.2048831,55.5332934 68.2048831,59.6321047 C68.2048831,62.5700348 67.9713243,65.4787442 67.5098425,68.3392195 C67.4283584,68.8442952 66.95434,69.187444 66.4510929,69.1056639 C65.9478457,69.0238837 65.6059392,68.548143 65.6874233,68.0430673 C66.1331225,65.2804194 66.3587292,62.4707442 66.3587292,59.6321047 C66.3587292,55.6973233 65.9252306,51.8198279 65.0743025,48.0489223 L65.0507183,47.9617105 L65.0507183,47.9617105 C64.1948566,44.0650246 61.7519031,40.7013015 58.3493233,38.6680974 C57.9112828,38.4063473 57.7676031,37.8377647 58.0284056,37.3981327 C58.289208,36.9585006 58.8557322,36.8142988 59.2937726,37.0760489 Z M51.9661679,50.9558187 C52.4352034,53.4483898 52.6731872,55.993807 52.6731872,58.5692777 C52.6731872,61.6548538 52.3315876,64.696492 51.6609854,67.6544846 C51.54788,68.1533869 51.0532139,68.4658039 50.5561178,68.3522875 C50.0590217,68.2387712 49.7477357,67.7423077 49.8608411,67.2434054 C50.5009186,64.4200563 50.8270334,61.5162961 50.8270334,58.5692777 C50.8270334,56.1093189 50.5998121,53.6790144 50.1520821,51.2996665 C50.0574749,50.7969004 50.3868775,50.3123549 50.8878235,50.217404 C51.3887694,50.122453 51.8715607,50.4530525 51.9661679,50.9558187 Z M51,34.7920655 C52.4489087,34.7920655 53.8735225,34.9828133 55.2471544,35.3555568 C55.7392851,35.4890995 56.03037,35.9977575 55.8973108,36.4916764 C55.7642516,36.9855952 55.257435,37.2777378 54.7653043,37.1441951 C53.548411,36.8139836 52.2858018,36.6449273 51,36.6449273 C43.053728,36.6449273 36.6120018,43.1100594 36.6120018,51.085204 L36.606953,51.26862 L36.606953,51.26862 L36.6107426,51.4928324 L36.6107426,51.4928324 L36.6347248,51.9113041 C36.6386915,51.9635473 36.6431087,52.01776 36.6479928,52.0739959 L36.7049994,52.6362026 L36.7049994,52.6362026 L36.7898811,53.3163986 L36.7898811,53.3163986 L36.9053008,54.1233162 C36.9199204,54.2203372 36.9351549,54.3198666 36.9510206,54.4219584 C37.2528795,55.9221481 37.4062362,57.4574971 37.4062362,59.0121223 C37.4062362,62.0432596 36.8230057,64.994498 35.7033673,67.741358 C35.5103411,68.214918 34.9713561,68.4417671 34.4995105,68.2480395 C34.0276649,68.054312 33.8016371,67.5133685 33.9946633,67.0398085 C35.0239239,64.5146764 35.5600824,61.8016299 35.5600824,59.0121223 C35.5600824,57.7698222 35.4537941,56.5416755 35.2442048,55.3368848 L35.1220521,54.6867367 L35.1220521,54.6867367 L34.9852604,53.746899 C34.9725593,53.6552081 34.9604525,53.565884 34.9489249,53.478885 L34.8865881,52.9844565 L34.8865881,52.9844565 L34.8374244,52.5438199 L34.8374244,52.5438199 L34.800707,52.154966 L34.800707,52.154966 L34.775709,51.8158857 L34.775709,51.8158857 L34.7617033,51.5245698 L34.7617033,51.5245698 L34.7579632,51.2790091 L34.7579632,51.2790091 L34.765,51.047 L34.7688568,50.7683281 C34.9371012,41.9161221 42.1396063,34.7920655 51,34.7920655 Z M40.6648938,34.8233265 C40.9597325,35.2407312 40.8615982,35.8189871 40.4457047,36.1148972 C34.8870304,40.0699177 31.5774308,47.4151627 33.1510122,55.0151709 C33.1658496,55.0868321 33.1720051,55.1582793 33.1701978,55.2284119 C33.4045273,56.5562087 33.5233123,57.9096068 33.5233123,59.277829 C33.5233123,60.9981122 33.3355289,62.6945637 32.9667297,64.3455264 C32.8552028,64.8447866 32.3615274,65.1587779 31.8640747,65.0468458 C31.3666221,64.9349137 31.0537675,64.4394445 31.1652943,63.9401844 C31.5044214,62.4220515 31.6771584,60.8615303 31.6771584,59.277829 C31.6771584,57.9261318 31.5513274,56.5910941 31.3034427,55.2845049 C31.2922969,55.225756 31.2869443,55.1672473 31.2869826,55.1095725 C29.6949152,46.8512772 33.316844,38.9158788 39.377999,34.603341 C39.7938926,34.3074309 40.370055,34.4059218 40.6648938,34.8233265 Z M71.1349073,57.6296366 C71.6446082,57.6194843 72.0660028,58.0259498 72.0761183,58.5375027 C72.0839077,58.9314178 72.087807,59.3258205 72.087807,59.7206736 C72.087807,60.5811396 72.0692894,61.4394352 72.0323544,62.295171 C72.0102913,62.8063453 71.5795172,63.2027832 71.0701935,63.1806399 C70.5608699,63.1584966 70.1658672,62.7261573 70.1879303,62.214983 C70.2237124,61.3859583 70.2416532,60.5543983 70.2416532,59.7206736 C70.2416532,59.3380767 70.237875,58.9559295 70.2303279,58.5742675 C70.2202124,58.0627146 70.6252064,57.6397889 71.1349073,57.6296366 Z M51.0441241,38.6005291 C54.8599735,38.6005291 58.3949584,40.3307553 60.7503133,43.2498609 C61.0711472,43.6474859 61.0100627,44.230857 60.6138772,44.5528567 C60.2176916,44.8748564 59.6364325,44.8135499 59.3155986,44.4159248 C57.3071257,41.926727 54.2969871,40.4533909 51.0441241,40.4533909 C45.1692246,40.4533909 40.4066775,45.2332426 40.4058772,51.0909206 L40.4229827,51.4041484 L40.4229827,51.4041484 L40.4448192,51.722019 L40.4448192,51.722019 C40.4805878,52.1996257 40.5290421,52.6765773 40.5914812,53.1173997 C40.6381428,53.4468329 40.690683,53.7409518 40.7480938,53.9892019 C40.7791575,54.0590514 40.8020437,54.1339281 40.8153549,54.2128358 C41.0712982,55.73005 41.2009119,57.2744788 41.2009119,58.8349844 C41.2009119,59.6859302 41.1623707,60.5322982 41.085759,61.3723331 C41.03929,61.8818568 40.5900644,62.2571 40.0823853,62.2104622 C39.5747063,62.1638245 39.2008216,61.7129665 39.2472905,61.2034429 C39.3187831,60.4195383 39.3547581,59.6295257 39.3547581,58.8349844 C39.3547581,57.4424429 39.2442531,56.0643257 39.0259859,54.7094157 C38.9215791,54.3329248 38.8355896,53.8856953 38.7637033,53.3781749 C38.6948747,52.8922415 38.6424533,52.3762405 38.6038584,51.8608947 L38.5666735,51.2789498 L38.5666735,51.2789498 L38.5605236,51.1294884 L38.5605236,51.1294884 C38.5605236,44.2099353 44.1496219,38.6005291 51.0441241,38.6005291 Z M29.0654157,43.808615 C29.5555353,43.9494106 29.8391315,44.4623121 29.6988456,44.9542126 C29.1352145,46.9305363 28.8461538,48.9880531 28.8461538,51.085204 C28.8461538,53.6227554 29.2694346,56.1010289 30.0883148,58.4448559 C30.257005,58.927687 30.0037606,59.4563464 29.5226775,59.6256496 C29.0415944,59.7949528 28.514849,59.5407882 28.3461587,59.0579571 C27.4586761,56.5177738 27,53.8322636 27,51.085204 C27,48.8151646 27.3131675,46.5860568 27.9239655,44.4443464 C28.0642514,43.952446 28.5752961,43.6678193 29.0654157,43.808615 Z M51,30.8950331 C60.4460859,30.8950331 68.5483709,37.4788536 70.614186,46.5798946 L70.6935882,46.9458217 C71.2189969,49.312884 71.5979964,51.7181461 71.8270257,54.1514534 C71.8749705,54.6608393 71.5023935,55.1127863 70.9948517,55.1609053 C70.4873099,55.2090243 70.0369991,54.8350935 69.9890543,54.3257076 C69.7985425,52.3016276 69.5009019,50.2977787 69.0983226,48.3203182 L68.8815374,47.3006 L68.8815374,47.3006 C67.121069,38.8776128 59.6855226,32.7478949 51,32.7478949 C48.6077453,32.7478949 46.280955,33.2090393 44.1141362,34.0945256 C43.6419752,34.2874776 43.1033609,34.0597433 42.9111074,33.5858668 C42.718854,33.1119902 42.9457638,32.5714189 43.4179248,32.3784668 C45.8048847,31.4030182 48.3680187,30.8950331 51,30.8950331 Z M55.071829,27.3493792 L55.1789307,27.3620256 C66.5732466,29.3704791 75,39.3447255 75,51.085204 C75,51.5968576 74.5867244,52.0116349 74.0769231,52.0116349 C73.5671218,52.0116349 73.1538462,51.5968576 73.1538462,51.085204 C73.1538462,40.2481667 65.3746806,31.0404316 54.8595788,29.1869554 C54.3574628,29.0984484 54.0219067,28.6181749 54.1100933,28.1142344 C54.1856818,27.6822855 54.5480567,27.3731517 54.9662511,27.3493792 L55.071829,27.3493792 Z M50.6814876,27 C51.1912457,26.9934206 51.6098654,27.4027641 51.6165806,27.9143745 C51.6231362,28.4259848 51.2152746,28.8461255 50.7055165,28.852785 C42.3184201,28.9623543 34.8162515,33.7924209 31.1463002,41.2082104 C30.9195231,41.666454 30.3655489,41.8534266 29.9089643,41.6258255 C29.4523797,41.3982243 29.266084,40.8422373 29.4928611,40.3839937 C33.468013,32.3514922 41.5955817,27.1187787 50.6814876,27 Z"/>
    </g>
  </g>
</svg>