<?xml version="1.0" encoding="UTF-8"?>
<svg width="109px" height="40px" viewBox="0 0 109 40" version="1.1" xmlns="http://www.w3.org/2000/svg" xmlnsXlink="http://www.w3.org/1999/xlink">
    <g stroke="none" stroke-width="1" fill="none" fill-rule="evenodd">
        <path d="M103.024,20.895 L97.5623051,40 L83.3173293,40 L88.78,20.895 L103.024,20.895 Z M85.228,20.895 L73.3268724,40 L63.8435797,40 L63.477,20.895 L85.228,20.895 Z M61.749,20.895 L57.8516237,22.5479737 C56.6437522,23.0601004 55.7292088,24.0869105 55.3597304,25.3457644 L53.6261229,31.2523586 C51.872397,37.0841195 48.5910292,40 43.7820196,40 L0.0806383475,40 L3.80576066,26.9724718 C4.34876585,25.0734697 3.55303841,23.0460359 1.86332192,22.0233326 L0,20.895 L19.787,20.895 L16.3169894,33.0348259 L37.409268,33.0348259 C38.2793736,33.0348259 39.0485946,32.4695533 39.3084782,31.6391653 L40.7457556,27.046733 C40.9427189,26.4173901 40.5922059,25.7475366 39.962863,25.5505734 C39.8474318,25.5144473 39.7271817,25.4960697 39.6062295,25.4960697 L23.7175966,25.4960697 C22.1788928,25.4960697 20.9315269,24.2487038 20.9315269,22.71 C20.9315269,22.4679453 20.9630711,22.2269227 21.0253625,21.9930205 L21.317,20.895 L61.749,20.895 Z M25.763309,0 L20.3,19.104 L6.055,19.104 L11.5183332,0 L25.763309,0 Z M76.7734239,0 L77.138,19.104 L63.443,19.104 L63.2112409,6.96517413 L40.8309396,6.96517413 C39.9456439,6.96517413 39.166793,7.54999707 38.9198663,8.40015921 L37.9847995,11.6195699 C37.8008673,12.2528439 38.1651307,12.9153204 38.7984047,13.0992527 C38.9036366,13.1298169 39.012575,13.1457497 39.1221523,13.1466024 L53.3228947,13.257107 C55.5209764,13.2742117 57.2890077,15.069975 57.2719031,17.2680567 C57.2693417,17.5972164 57.2259566,17.9247872 57.1427417,18.2432648 L56.917,19.104 L21.794,19.104 L25.1043682,6.67649023 C26.1482259,2.75683967 29.696332,0.0282817947 33.752598,0.025844973 L76.7734239,0 Z M109,0 L105.26167,13.0737191 C104.723922,14.9543331 105.498862,16.96349 107.16018,17.9959161 L108.944,19.104 L89.292,19.104 L91.7940672,10.3552239 L86.344,19.104 L79.556,19.104 L91.4603489,0 L109,0 Z" id="logo"></path>
    </g>
</svg>