<?xml version="1.0" encoding="UTF-8"?>
<svg width="38px" height="38px" viewBox="0 0 38 38" version="1.1" xmlns="http://www.w3.org/2000/svg" xmlns:xlink="http://www.w3.org/1999/xlink">
    <title>Window/Menu/Cell/Icons/Active/menu_icon_advanced Copy 2</title>
    <g id="Window/Menu/Cell/Icons/Active/menu_icon_advanced-Copy-2" stroke="none" stroke-width="1" fill="none" fill-rule="evenodd">
        <path d="M19.492387,34.7505134 C28.1255315,34.7505134 35.2513015,27.6247433 35.2513015,19.0068248 C35.2513015,10.3889063 28.1103055,3.26313628 19.477161,3.26313628 C10.8592425,3.26313628 3.74869845,10.3889063 3.74869845,19.0068248 C3.74869845,27.6247433 10.8744685,34.7505134 19.492387,34.7505134 Z M19.492387,31.6139565 C12.503651,31.6139565 6.91570737,25.9955608 6.91570737,19.0068248 C6.91570737,12.0180888 12.503651,6.41491919 19.477161,6.41491919 C26.465897,6.41491919 32.0842926,12.0180888 32.0995494,19.0068248 C32.1147446,25.9955608 26.481123,31.6139565 19.492387,31.6139565 Z M19.477161,11.9571848 C20.3298172,11.9571848 21.0454394,11.2415626 21.0454394,10.3889063 C21.0454394,9.52102409 20.3298172,8.82062789 19.477161,8.82062789 C18.6092787,8.82062789 17.9241085,9.52102409 17.9241085,10.3889063 C17.9241085,11.2415626 18.6245047,11.9571848 19.477161,11.9571848 Z M13.4628893,14.6065096 C14.3307715,14.6065096 15.0311677,13.8908874 15.0311677,13.0382311 C15.0311677,12.1855749 14.3307715,11.4699527 13.4628893,11.4699527 C12.610233,11.4699527 11.8946108,12.1855749 11.8946108,13.0382311 C11.8946108,13.8908874 12.610233,14.6065096 13.4628893,14.6065096 Z M17.0866783,21.3973075 C18.3808887,22.6610659 20.1623312,22.3717718 21.1976995,20.8796234 L26.7856431,12.9468751 C27.4099093,12.0333148 26.496349,11.1349806 25.5980148,11.7440207 L17.5891364,17.2710603 C16.096988,18.2912026 15.8229199,20.0878711 17.0866783,21.3973075 Z M10.9353725,20.5751033 C11.8032548,20.5751033 12.503651,19.8594811 12.503651,19.0068248 C12.503651,18.1389426 11.8032548,17.4385464 10.9353725,17.4385464 C10.0827163,17.4385464 9.36709408,18.1389426 9.36709408,19.0068248 C9.36709408,19.8594811 10.0827163,20.5751033 10.9353725,20.5751033 Z M28.0341755,20.5751033 C28.8868317,20.5751033 29.6024539,19.8594811 29.6024539,19.0068248 C29.6024539,18.1389426 28.8868317,17.4385464 28.0341755,17.4385464 C27.1662932,17.4385464 26.465897,18.1389426 26.465897,19.0068248 C26.465897,19.8594811 27.1662932,20.5751033 28.0341755,20.5751033 Z M13.4933413,26.543697 C14.3612235,26.543697 15.0616197,25.8280748 15.0616197,24.9754185 C15.0616197,24.1075363 14.3612235,23.4071401 13.4933413,23.4071401 C12.640685,23.4071401 11.9250628,24.1075363 11.9250628,24.9754185 C11.9250628,25.8280748 12.640685,26.543697 13.4933413,26.543697 Z M25.4762067,26.543697 C26.328863,26.543697 27.0444852,25.8280748 27.0444852,24.9754185 C27.0444852,24.1075363 26.328863,23.4071401 25.4762067,23.4071401 C24.6083245,23.4071401 23.9079283,24.1075363 23.9079283,24.9754185 C23.9079283,25.8280748 24.6083245,26.543697 25.4762067,26.543697 Z" id="Shape" fill="#368EFC" fill-rule="nonzero"></path>
    </g>
</svg>