<?xml version="1.0" encoding="UTF-8"?>
<svg width="38px" height="38px" viewBox="0 0 38 38" version="1.1" xmlns="http://www.w3.org/2000/svg" xmlns:xlink="http://www.w3.org/1999/xlink">
    <title>Window/Menu/Cell/Icons/Active/menu_icon_devices Copy 2</title>
    <g id="Window/Menu/Cell/Icons/Active/menu_icon_devices-Copy-2" stroke="none" stroke-width="1" fill="none" fill-rule="evenodd">
        <path d="M18.484774,7.00873336 C22.6110212,7.00873336 25.7780301,6.15607712 25.7780301,5.0445788 C25.7780301,3.90262847 22.6110212,3.06519823 18.484774,3.06519823 C14.3737528,3.06519823 11.2219699,3.90262847 11.2219699,5.0445788 C11.2219699,6.15607712 14.3889788,7.00873336 18.484774,7.00873336 Z M18.5,35.0398075 C27.1483705,35.0398075 31.0919056,31.9641546 31.0919056,25.0058706 L31.0919056,13.1904911 C31.0919056,10.6325224 30.6198995,8.60746383 29.5388532,7.10008939 C29.1734291,6.56717924 28.4882589,6.46059721 27.8792187,6.84124732 C26.0216462,8.10500568 22.3521791,9.09469597 18.5,9.09469597 C14.6478209,9.09469597 10.9783538,8.10500568 9.12078129,6.84124732 C8.51174112,6.46059721 7.82657092,6.56717924 7.46114681,7.10008939 C6.3801005,8.60746383 5.90809437,10.6325224 5.90809437,13.1904911 L5.90809437,25.0058706 C5.90809437,31.9641546 9.8516295,35.0398075 18.5,35.0398075 Z M18.5,32.0250586 C11.617846,32.0250586 8.92284324,29.7868359 8.92284324,24.7774805 L8.92284324,13.3122992 C8.92284324,12.2008009 9.10555529,11.1806586 9.44052739,10.3432283 C11.52649,11.5613087 14.8000809,12.1551228 18.5,12.1551228 C22.1999191,12.1551228 25.47351,11.5613087 27.5442466,10.3432283 C27.8944447,11.1806586 28.0771568,12.2008009 28.0771568,13.3122992 L28.0771568,24.7774805 C28.0771568,29.7868359 25.366928,32.0250586 18.5,32.0250586 Z" id="Shape" fill="#368EFC" fill-rule="nonzero"></path>
    </g>
</svg>