<?xml version="1.0" encoding="UTF-8"?>
<svg width="38px" height="38px" viewBox="0 0 38 38" version="1.1" xmlns="http://www.w3.org/2000/svg" xmlns:xlink="http://www.w3.org/1999/xlink">
    <title>Window/Menu/Cell/Icons/Active/menu_icon_updates Copy 2</title>
    <g id="Window/Menu/Cell/Icons/Active/menu_icon_updates-Copy-2" stroke="none" stroke-width="1" fill="none" fill-rule="evenodd">
        <path d="M36.7991991,17.1797043 L34.6675585,17.1797043 C33.7692243,9.46012007 27.0697823,3.26313628 19,3.26313628 C14.5387807,3.26313628 10.4886635,5.21206485 7.68707873,8.25726572 C6.94100452,8.98811394 6.97145653,9.96257822 7.5804967,10.5259404 C8.20476288,11.1045285 9.10309714,11.1045285 9.86439736,10.4041323 C12.133072,7.95274564 15.391437,6.41491919 19,6.41491919 C25.4253739,6.41491919 30.6174414,11.1197546 31.4853236,17.1797043 L29.1557449,17.1797043 C27.9833426,17.1797043 27.6635965,18.0475866 28.3487667,18.9915988 L31.9877817,24.1379883 C32.5511439,24.8992885 33.4038002,24.9145145 33.9519363,24.1379883 L37.6061774,19.0068248 C38.2913476,18.0475866 37.9868275,17.1797043 36.7991991,17.1797043 Z M1.20080086,20.8491714 L3.34766748,20.8491714 C4.24600174,28.5687556 10.9454437,34.7657394 19,34.7657394 C23.4916713,34.7657394 27.5417885,32.8015848 30.3433733,29.7563839 C31.0742215,29.0255357 31.0437695,28.0510714 30.4347293,27.4877093 C29.8104631,26.9091211 28.9273549,26.9091211 28.1508286,27.6247433 C25.912606,30.07613 22.6542411,31.6139565 19,31.6139565 C12.5898521,31.6139565 7.39778465,26.9091211 6.5299024,20.8491714 L8.84425507,20.8491714 C10.0014314,20.8491714 10.3364035,19.9812891 9.6512333,19.0372768 L5.99699225,13.8908874 C5.44885609,13.1295871 4.59619984,13.1143611 4.04806368,13.8908874 L0.39382263,19.0220508 C-0.306573572,19.9812891 0.01317252,20.8491714 1.20080086,20.8491714 Z" id="Shape" fill="#368EFC" fill-rule="nonzero"></path>
    </g>
</svg>