<svg width="34px" height="34px" viewBox="0 0 48 48" version="1.1" xmlns="http://www.w3.org/2000/svg" xmlnsXlink="http://www.w3.org/1999/xlink">
  <g stroke="none" stroke-width="1" fill="none" fill-rule="evenodd">
    <g transform="translate(-27.000000, -27.000000)" fill="#34495E">
      <g transform="translate(27.000000, 27.000000)">
        <path d="M18.7200952,28.9961582 C13.3266708,28.8479317 9,24.4292399 9,19 C9,13.4771525 13.4771525,9 19,9 C24.5228475,9 29,13.4771525 29,19 C34.5228475,19 39,23.4771525 39,29 C39,34.5228475 34.5228475,39 29,39 C23.4771525,39 19,34.5228475 19,29 L19,29 Z"/>
        <path d="M29,48 C39.4934102,48 48,39.4934102 48,29 C48,18.5065898 39.4934102,10 29,10 C18.5065898,10 10,18.5065898 10,29 C10,39.4934102 18.5065898,48 29,48 Z M29,46 C19.6111593,46 12,38.3888407 12,29 C12,19.6111593 19.6111593,12 29,12 C38.3888407,12 46,19.6111593 46,29 C46,38.3888407 38.3888407,46 29,46 Z" fill-opacity="0.33" fill-rule="nonzero"/>
        <path d="M19,38 C29.4934102,38 38,29.4934102 38,19 C38,8.50658975 29.4934102,0 19,0 C8.50658975,0 0,8.50658975 0,19 C0,29.4934102 8.50658975,38 19,38 Z M19,36 C9.61115925,36 2,28.3888407 2,19 C2,9.61115925 9.61115925,2 19,2 C28.3888407,2 36,9.61115925 36,19 C36,28.3888407 28.3888407,36 19,36 Z" fill-opacity="0.33" fill-rule="nonzero"/>
        <path d="M29,44 C37.2842712,44 44,37.2842712 44,29 C44,20.7157288 37.2842712,14 29,14 C20.7157288,14 14,20.7157288 14,29 C14,37.2842712 20.7157288,44 29,44 Z M29,42 C21.8202983,42 16,36.1797017 16,29 C16,21.8202983 21.8202983,16 29,16 C36.1797017,16 42,21.8202983 42,29 C42,36.1797017 36.1797017,42 29,42 Z" fill-opacity="0.33" fill-rule="nonzero"/>
        <path d="M19,34 C27.2842712,34 34,27.2842712 34,19 C34,10.7157288 27.2842712,4 19,4 C10.7157288,4 4,10.7157288 4,19 C4,27.2842712 10.7157288,34 19,34 Z M19,32 C11.8202983,32 6,26.1797017 6,19 C6,11.8202983 11.8202983,6 19,6 C26.1797017,6 32,11.8202983 32,19 C32,26.1797017 26.1797017,32 19,32 Z" fill-opacity="0.33" fill-rule="nonzero"/>
      </g>
    </g>
  </g>
</svg>