<?xml version="1.0" encoding="UTF-8"?>
<svg width="38px" height="38px" viewBox="0 0 38 38" version="1.1" xmlns="http://www.w3.org/2000/svg" xmlns:xlink="http://www.w3.org/1999/xlink">
    <title>Window/Menu/Cell/Icons/Active/menu_icon_clipboard Copy 2</title>
    <g id="Window/Menu/Cell/Icons/Active/menu_icon_clipboard-Copy-2" stroke="none" stroke-width="1" fill="none" fill-rule="evenodd">
        <path d="M28.9916016,20.4373535 L18.4627441,30.9662109 C15.834082,33.609082 12.3102539,33.3675293 10.0510254,31.0798828 C7.76337891,28.8206543 7.53603516,25.3110352 10.1789062,22.6681641 L24.6010254,8.23183594 C26.1071777,6.72568359 28.3806152,6.41308594 29.8725586,7.9050293 C31.3787109,9.41118164 31.0519043,11.6704102 29.545752,13.1765625 L15.3367676,27.4139648 C14.7684082,27.9823242 14.086377,27.8260254 13.6885254,27.4423828 C13.3190918,27.0445312 13.162793,26.376709 13.7311523,25.7941406 L23.6348145,15.8904785 C24.1889648,15.3363281 24.2173828,14.512207 23.6774414,13.9722656 C23.1375,13.4465332 22.3133789,13.4607422 21.7592285,14.0148926 L11.8129395,23.9753906 C10.2215332,25.5667969 10.2925781,28.0107422 11.6992676,29.4316406 C13.2338379,30.9662109 15.5641113,30.923584 17.1555176,29.3321777 L31.4497559,15.0379395 C34.2773438,12.2103516 34.1778809,8.48759766 31.6913086,5.98681641 C29.2473633,3.55708008 25.4677734,3.40078125 22.6401855,6.22836914 L8.10439453,20.7783691 C4.43847656,24.4442871 4.6800293,29.7442383 8.03334961,33.0975586 C11.3866699,36.4508789 16.6866211,36.6924316 20.366748,33.0265137 L30.9666504,22.4266113 C31.5065918,21.9008789 31.5065918,20.920459 30.9524414,20.4089355 C30.426709,19.8405762 29.545752,19.8974121 28.9916016,20.4373535 Z" id="Path" fill="#368EFC" fill-rule="nonzero"></path>
    </g>
</svg>