<svg width="28px" height="28px" viewBox="0 0 48 48" version="1.1" xmlns="http://www.w3.org/2000/svg" xmlnsXlink="http://www.w3.org/1999/xlink">
  <g stroke="none" stroke-width="1" fill="none" fill-rule="evenodd">
    <g transform="translate(-26.000000, -27.000000)" fill="#364453">
      <path d="M47.0000192,27.1856789 L47.0005295,34.263772 C39.0422353,35.6804908 33,42.6346256 33,51 C33,60.3888407 40.6111593,68 50,68 C53.9301171,68 57.5487464,66.6663624 60.4280217,64.4269534 L65.6882878,69.163051 C61.4813186,72.800035 55.997574,75 50,75 C36.745166,75 26,64.254834 26,51 C26,38.7611404 35.1610752,28.6619646 47.0000192,27.1856789 Z M73.8143211,53.9999808 C73.3222954,57.9457382 71.8724413,61.5940387 69.7047759,64.7048651 L64.4444277,59.968681 C65.5605238,58.1749671 66.3518107,56.1581507 66.7360499,54.0004705 Z M54.2809125,48.7188761 L54.3000066,48.7511766 C54.3159315,48.7787637 54.3310036,48.8069052 54.3451867,48.8355649 C54.3545731,48.8544259 54.3632959,48.8730486 54.371613,48.891803 C54.38204,48.9153356 54.3921662,48.9398405 54.4016519,48.9646619 C54.4101386,48.9869516 54.4179263,49.0089252 54.4251844,49.0310296 C54.4326291,49.0534848 54.4397158,49.076916 54.4462371,49.1005816 C54.4531471,49.1259941 54.4593159,49.1509459 54.4648341,49.1760068 C54.4692722,49.1957453 54.4733361,49.2161864 54.4769801,49.2367726 C54.4808886,49.259268 54.48433,49.2816337 54.487264,49.3040494 C54.4908007,49.3307246 54.4935995,49.3578254 54.4956672,49.3851303 C54.4973122,49.406972 54.498491,49.4286739 54.4992005,49.4503852 C54.4997237,49.4664569 54.5,49.4831962 54.5,49.5 L54.5,58.5 C54.5,59.3284271 53.8284271,60 53,60 C52.1715729,60 51.5,59.3284271 51.5,58.5 L51.5,50.0916813 L45.7649842,43.9408142 C45.1999983,43.334941 45.233144,42.3857721 45.8390172,41.8207861 C46.4448905,41.2558002 47.3940594,41.2889459 47.9590453,41.8948191 L54.0970306,48.4770025 C54.1655557,48.5512303 54.2221777,48.625193 54.2716612,48.7040883 L54.2809125,48.7188761 L54.2809125,48.7188761 Z M71.7884555,40.9232815 C72.8071646,43.1223023 73.5027657,45.5015274 73.8143211,48.0000192 L66.7360499,47.9995295 C66.5307977,46.8469436 66.2093958,45.7345527 65.7843796,44.6748921 Z M63.8286852,31.3820829 C65.6159368,32.6442248 67.2230687,34.144438 68.6039289,35.8365706 L62.6010899,39.5887372 C61.9587633,38.8798697 61.2574534,38.2254414 60.5049058,37.6331981 Z M53.0009799,27.1858035 C54.9251983,27.4258304 56.778669,27.8936489 58.5335544,28.5614214 L55.2097658,34.8131516 C54.4929217,34.5826137 53.7553162,34.3983728 53.0004705,34.2639501 Z"/>
    </g>
  </g>
</svg>