<svg width="32px" height="18px" viewBox="0 0 57 32" version="1.1" xmlns="http://www.w3.org/2000/svg" xmlnsXlink="http://www.w3.org/1999/xlink">
  <g stroke="none" stroke-width="1" fill="none" fill-rule="evenodd">
    <g transform="translate(-22.000000, -35.000000)">
      <g transform="translate(22.000000, 35.000000)">
        <path d="M28.5,-3.41060513e-13 C46.1896552,-3.41060513e-13 57,13.9655 57,16 C57,18.0345 46.1896552,32 28.5,32 C10.8103448,32 -8.38440428e-13,17.967 -8.38440428e-13,16 C-8.38440428e-13,14.033 10.8103448,-3.41060513e-13 28.5,-3.41060513e-13 Z M28.5,2.46153846 C20.9719614,2.46153846 14.8695652,8.52275783 14.8695652,16 C14.8695652,23.4772422 20.9719614,29.5384615 28.5,29.5384615 C36.0280386,29.5384615 42.1304348,23.4772422 42.1304348,16 C42.1304348,8.52275783 36.0280386,2.46153846 28.5,2.46153846 Z" fill="#EFB492"/>
        <path d="M27.8804348,22.1538462 C24.1164876,22.1538462 21.0652174,19.1231648 21.0652174,15.3846154 C21.0652174,11.6460659 24.1164876,8.61538462 27.8804348,8.61538462 C28.338028,8.61538462 28.7844247,8.6618022 29.2167042,8.74738462 L27.8804348,15.3846154 L34.5627554,14.0573626 C34.6489193,14.4867253 34.6956522,14.9301099 34.6956522,15.3846154 C34.6956522,19.1231648 31.644382,22.1538462 27.8804348,22.1538462 L27.8804348,22.1538462 Z" fill="#0092FF"/>
      </g>
    </g>
  </g>
</svg>