<?xml version="1.0" encoding="UTF-8"?>
<svg width="38px" height="38px" viewBox="0 0 38 38" version="1.1" xmlns="http://www.w3.org/2000/svg" xmlns:xlink="http://www.w3.org/1999/xlink">
    <title>Window/Menu/Cell/Icons/Active/menu_icon_setup Copy 2</title>
    <g id="Window/Menu/Cell/Icons/Active/menu_icon_setup-Copy-2" stroke="none" stroke-width="1" fill="none" fill-rule="evenodd">
        <path d="M19.507613,34.1262472 C19.8730371,34.1262472 20.2232352,34.0957952 20.6038853,34.0653432 L21.4565416,35.6792996 C21.6392536,36.0904018 22.0503557,36.2883398 22.5223619,36.2274358 C22.963916,36.1513058 23.2684361,35.8163337 23.3293401,35.3595535 L23.5881822,33.547659 C24.3038044,33.364947 25.0042006,33.0908789 25.6741448,32.8015848 L27.0140332,34.0044392 C27.3337793,34.3241852 27.7753334,34.3698633 28.2168875,34.1414732 C28.5975376,33.9130831 28.7497977,33.501981 28.6736676,33.0452009 L28.2930175,31.2789844 C28.8868317,30.8526562 29.4654199,30.3806501 30.013556,29.862966 L31.6579645,30.5481362 C32.0995186,30.7308482 32.5106208,30.6242662 32.8455929,30.2436161 C33.1196609,29.92387 33.1653389,29.4670898 32.9217229,29.0712137 L31.9624846,27.5333873 C32.3735867,26.9395731 32.7237848,26.2848549 33.0435309,25.5996847 L34.8706514,25.6910408 C35.3122056,25.7214928 35.7080817,25.4626507 35.8603417,25.0363226 C36.0126018,24.6099944 35.8603417,24.1684403 35.5101436,23.8943722 L34.0941252,22.7676479 C34.2768373,22.0672517 34.4138713,21.3364035 34.4747753,20.5751033 L36.1953138,20.0269671 C36.6368679,19.8747071 36.910936,19.524509 36.910936,19.0677288 C36.910936,18.6109487 36.6368679,18.2607506 36.1953138,18.1084906 L34.4747753,17.5603544 C34.4138713,16.7990542 34.2616113,16.083432 34.0941252,15.3678098 L35.5101436,14.2410855 C35.8603417,13.9822434 35.9973758,13.5559153 35.8603417,13.1295871 C35.7080817,12.688033 35.3122056,12.4291909 34.8706514,12.4596429 L33.0435309,12.520547 C32.7237848,11.8506028 32.3735867,11.2111106 31.9624846,10.6020704 L32.9217229,9.04901795 C33.1501129,8.68359385 33.1196609,8.22681372 32.8455929,7.90706762 C32.5106208,7.52641751 32.0995186,7.41983548 31.6579645,7.60254754 L29.99833,8.27249173 C29.4654199,7.77003358 28.8868317,7.28280144 28.2930175,6.87169932 L28.6736676,5.10548281 C28.7497977,4.63347668 28.5975376,4.22237456 28.2016615,4.0092105 C27.7753334,3.78082043 27.3337793,3.81127244 27.0140332,4.14624454 L25.6741448,5.33387288 C25.0042006,5.02935279 24.3038044,4.78573672 23.5881822,4.58779867 L23.3293401,2.80635615 C23.2684361,2.34957602 22.963916,2.01460392 22.5223619,1.9232479 C22.0503557,1.86234388 21.6544796,2.06028194 21.4565416,2.44093205 L20.6038853,4.07011452 C20.2232352,4.03966251 19.8730371,4.0244365 19.507613,4.0244365 C19.1117369,4.0244365 18.7615388,4.03966251 18.3808887,4.07011452 L17.5282324,2.44093205 C17.3455204,2.06028194 16.9344183,1.86234388 16.4624121,1.9384739 C16.020858,2.01460392 15.7163379,2.34957602 15.6554339,2.80635615 L15.3965918,4.58779867 C14.6961956,4.78573672 13.9957994,5.02935279 13.3106292,5.33387288 L11.9859668,4.14624454 C11.6509947,3.82649845 11.2094406,3.78082043 10.7831125,4.0092105 C10.4024624,4.22237456 10.2349763,4.63347668 10.3111063,5.10548281 L10.6917565,6.87169932 C10.0979423,7.28280144 9.51935412,7.77003358 8.98644397,8.27249173 L7.32680949,7.60254754 C6.90048136,7.41983548 6.47415324,7.52641751 6.15440715,7.90706762 C5.86511306,8.22681372 5.83466106,8.68359385 6.06305112,9.04901795 L7.0375154,10.6020704 C6.62641328,11.2111106 6.27621518,11.8506028 5.94124309,12.520547 L4.12934856,12.4596429 C3.67256843,12.4291909 3.27669232,12.688033 3.13965828,13.1295871 C2.98739823,13.5559153 3.10920627,13.9822434 3.47463037,14.2410855 L4.90587479,15.3678098 C4.72316274,16.083432 4.57090269,16.7990542 4.52522468,17.5603544 L2.80468618,18.1084906 C2.34790605,18.2607506 2.08906397,18.5957227 2.08906397,19.0677288 C2.08906397,19.524509 2.34790605,19.8747071 2.80468618,20.0269671 L4.52522468,20.5751033 C4.57090269,21.3364035 4.72316274,22.0672517 4.90587479,22.7676479 L3.48985638,23.8943722 C3.12443227,24.1532143 3.00262424,24.5947684 3.13965828,25.0210966 C3.27669232,25.4626507 3.67256843,25.7214928 4.12934856,25.6910408 L5.94124309,25.5996847 C6.26098918,26.2848549 6.62641328,26.9395731 7.0375154,27.5333873 L6.06305112,29.0864397 C5.81943505,29.4670898 5.86511306,29.92387 6.15440715,30.2436161 C6.47415324,30.6242662 6.90048136,30.7308482 7.32680949,30.5481362 L8.98644397,29.862966 C9.51935412,30.3806501 10.0979423,30.8526562 10.6917565,31.2789844 L10.3111063,33.0452009 C10.2349763,33.501981 10.3872364,33.9130831 10.7831125,34.1414732 C11.2094406,34.3698633 11.6509947,34.3241852 11.9859668,34.0044392 L13.3106292,32.8015848 C13.9957994,33.0908789 14.6809696,33.364947 15.3965918,33.562885 L15.6554339,35.3595535 C15.7163379,35.8163337 16.020858,36.1513058 16.4776381,36.2274358 C16.9344183,36.2883398 17.3455204,36.0904018 17.5282324,35.6945256 L18.3808887,34.0653432 C18.7615388,34.0957952 19.1117369,34.1262472 19.507613,34.1262472 Z M23.4816001,17.8648745 C22.7355259,15.9007199 21.2129255,14.8348996 19.416257,14.8348996 C19.1574149,14.8348996 18.8833468,14.8653516 18.4113407,14.9719337 L14.3003195,7.90706762 C15.868598,7.17621941 17.6195885,6.76511729 19.492387,6.76511729 C25.9329869,6.76511729 30.9880203,11.6069867 31.5666085,17.8648745 L23.4816001,17.8648745 Z M7.3724875,19.0829548 C7.3724875,15.0023857 9.24528604,11.4242746 12.2143569,9.18605199 L16.3558301,16.266144 C15.5488519,17.1492523 15.1682017,18.1237166 15.1682017,19.1286329 C15.1682017,20.0878711 15.5183999,21.0014314 16.3558301,21.9302177 L12.0925489,28.8885017 C9.19960803,26.650279 7.3724875,23.10262 7.3724875,19.0829548 Z M17.5891364,19.1134069 C17.5891364,18.0780386 18.4570187,17.2862863 19.431483,17.2862863 C20.4516253,17.2862863 21.2890555,18.0780386 21.2890555,19.1134069 C21.2890555,20.1183231 20.4516253,20.9557534 19.431483,20.9557534 C18.4570187,20.9557534 17.5891364,20.1183231 17.5891364,19.1134069 Z M19.492387,31.3855664 C17.5739104,31.3855664 15.7772419,30.9592383 14.1785115,30.1827121 L18.3961147,23.2701061 C18.8528948,23.3614621 19.1574149,23.3919141 19.416257,23.3919141 C21.2281515,23.3919141 22.7355259,22.2956418 23.4816001,20.2858092 L31.5666085,20.2858092 C30.9880203,26.543697 25.9329869,31.3855664 19.492387,31.3855664 Z" id="Shape" fill="#368EFC" fill-rule="nonzero"></path>
    </g>
</svg>