<svg width="30px" height="32px" viewBox="0 0 45 49" version="1.1" xmlns="http://www.w3.org/2000/svg" xmlnsXlink="http://www.w3.org/1999/xlink">
  <g stroke="none" strokeWidth="1" fill="none" fillRule="evenodd">
    <g transform="translate(-28.000000, -26.000000)" fillRule="nonzero">
      <g transform="translate(28.000000, 26.000000)">
        <path d="M30,19 C38.2842712,19 45,25.7157288 45,34 C45,42.2842712 38.2842712,49 30,49 C21.7157288,49 15,42.2842712 15,34 C15,25.7157288 21.7157288,19 30,19 Z M32.8781502,29.0999756 L30.049,31.928 L27.2212959,29.0999756 L25.0999756,31.2212959 L27.928,34.049 L25.0999756,36.8781502 L27.2212959,38.9994705 L30.049,36.171 L32.8781502,38.9994705 L34.9994705,36.8781502 L32.171,34.049 L34.9994705,31.2212959 L32.8781502,29.0999756 Z" id="Combined-Shape" fill="#E74C3C"/>
        <path d="M15,0 C23.2842712,0 30,6.71572875 30,15 C30,15.6786755 29.9549278,16.3468239 29.8676134,17.001615 L30,17 C22.0158881,17 15.3173092,22.5040211 13.4915946,29.9247322 C5.91538548,29.168347 0,22.7749797 0,15 C0,6.71572875 6.71572875,0 15,0 Z M19.5281746,10.0999756 L13.89,15.737 L11.1538462,13 L9,15.1538462 L13.8461538,20 L13.859,19.987 L13.8713203,19.9994705 L21.6494949,12.2212959 L19.5281746,10.0999756 Z" id="Combined-Shape" fill="#2ECC71"/>
      </g>
    </g>
  </g>
</svg>