<?xml version="1.0" encoding="UTF-8"?>
<svg width="26px" height="26px" viewBox="0 0 26 26" version="1.1" xmlns="http://www.w3.org/2000/svg" xmlns:xlink="http://www.w3.org/1999/xlink">
    <title>Shape</title>
    <g id="Settings-App" stroke="none" stroke-width="1" fill="none" fill-rule="evenodd">
        <path d="M13,0 C20.1797017,0 26,5.82029825 26,13 C26,20.1797017 20.1797017,26 13,26 C5.82029825,26 0,20.1797017 0,13 C0,5.82029825 5.82029825,0 13,0 Z M9.81801948,8.30025253 C9.32986412,7.81209717 8.5384079,7.81209717 8.05025253,8.30025253 C7.59464086,8.75586421 7.56426675,9.47568463 7.9591302,9.96652413 L8.05025253,10.0680195 L11.232,13.25 L8.05025253,16.4319805 C7.59464086,16.8875922 7.56426675,17.6074126 7.9591302,18.0982521 L8.05025253,18.1997475 C8.50586421,18.6553591 9.22568463,18.6857333 9.71652413,18.2908698 L9.81801948,18.1997475 L13,15.018 L16.1819805,18.1997475 C16.6375922,18.6553591 17.3574126,18.6857333 17.8482521,18.2908698 L17.9497475,18.1997475 C18.4053591,17.7441358 18.4357333,17.0243154 18.0408698,16.5334759 L17.9497475,16.4319805 L14.768,13.25 L17.9497475,10.0680195 C18.4053591,9.61240781 18.4357333,8.89258739 18.0408698,8.40174788 L17.9497475,8.30025253 C17.4941358,7.84464086 16.7743154,7.81426675 16.2834759,8.2091302 L16.1819805,8.30025253 L13,11.482 L9.81801948,8.30025253 Z" id="Shape" fill="#736F6E"></path>
    </g>
</svg>