<?xml version="1.0" encoding="UTF-8"?>
<svg width="41px" height="32px" viewBox="0 0 41 32" version="1.1" xmlns="http://www.w3.org/2000/svg" xmlns:xlink="http://www.w3.org/1999/xlink">
    <title>Shape</title>
    <g id="Settings-App" stroke="none" stroke-width="1" fill="none" fill-rule="evenodd">
        <g id="Window/App/Window" transform="translate(-672.000000, -35.000000)" fill="#666666" fill-rule="nonzero">
            <g id="IDE" transform="translate(96.000000, 0.000000)">
                <g id="Main-View" transform="translate(464.000000, 0.000000)">
                    <g id="ô€š" transform="translate(112.295166, 35.212582)">
                        <path d="M13.1784515,28.7645798 L16.1088219,28.7645798 L16.1088219,2.50681305 L13.1784515,2.50681305 L13.1784515,28.7645798 Z M9.89859772,9.26395798 C10.1746572,9.26395798 10.4184138,9.15906652 10.6298676,8.9492836 C10.8413213,8.73950068 10.9470482,8.50484085 10.9470482,8.24530411 C10.9470482,7.96330388 10.8413213,7.72247124 10.6298676,7.52280617 C10.4184138,7.3231411 10.1746572,7.22330856 9.89859772,7.22330856 L6.37034607,7.22330856 C6.09447225,7.22330856 5.85076205,7.3231411 5.63921547,7.52280617 C5.42766889,7.72247124 5.3218956,7.96330388 5.3218956,8.24530411 C5.3218956,8.50484085 5.42766889,8.73950068 5.63921547,8.9492836 C5.85076205,9.15906652 6.09447225,9.26395798 6.37034607,9.26395798 L9.89859772,9.26395798 Z M9.89859772,13.7198029 C10.1746572,13.7198029 10.4184138,13.6176033 10.6298676,13.4132042 C10.8413213,13.2088051 10.9470482,12.9661624 10.9470482,12.685276 C10.9470482,12.4149717 10.8413213,12.1803118 10.6298676,11.9812965 C10.4184138,11.7822812 10.1746572,11.6827736 9.89859772,11.6827736 L6.37034607,11.6827736 C6.09447225,11.6827736 5.85076205,11.7822812 5.63921547,11.9812965 C5.42766889,12.1803118 5.3218956,12.4149717 5.3218956,12.685276 C5.3218956,12.9661624 5.42766889,13.2088051 5.63921547,13.4132042 C5.85076205,13.6176033 6.09447225,13.7198029 6.37034607,13.7198029 L9.89859772,13.7198029 Z M9.89859772,18.1614456 C10.1746572,18.1614456 10.4184138,18.0616131 10.6298676,17.861948 C10.8413213,17.6622829 10.9470482,17.4273911 10.9470482,17.1572723 C10.9470482,16.876386 10.8413213,16.6363888 10.6298676,16.4372807 C10.4184138,16.2381725 10.1746572,16.1386185 9.89859772,16.1386185 L6.37034607,16.1386185 C6.09447225,16.1386185 5.85076205,16.2381725 5.63921547,16.4372807 C5.42766889,16.6363888 5.3218956,16.876386 5.3218956,17.1572723 C5.3218956,17.4273911 5.42766889,17.6622829 5.63921547,17.861948 C5.85076205,18.0616131 6.09447225,18.1614456 6.37034607,18.1614456 L9.89859772,18.1614456 Z M5.43439865,31.2830887 L34.4303894,31.2830887 C36.2339656,31.2830887 37.5905927,30.8309879 38.5002708,29.9267864 C39.409949,29.0225849 39.8647881,27.6847547 39.8647881,25.9132957 L39.8647881,5.3681221 C39.8647881,3.59666316 39.409949,2.2591114 38.5002708,1.35546684 C37.5905927,0.451822281 36.2339656,0 34.4303894,0 L5.43439865,0 C3.64140447,0 2.28742282,0.449130376 1.37245369,1.34739113 C0.457484563,2.24565188 0,3.58589554 0,5.3681221 L0,25.9132957 C0,27.6953367 0.457484563,29.0358124 1.37245369,29.9347229 C2.28742282,30.8336334 3.64140447,31.2830887 5.43439865,31.2830887 Z M5.56277466,28.2248993 C4.76448568,28.2248993 4.14989599,28.0133063 3.71900558,27.5901203 C3.28811518,27.1669343 3.07266998,26.532341 3.07266998,25.6863403 L3.07266998,5.59507751 C3.07266998,4.74907684 3.28811518,4.11448352 3.71900558,3.69129753 C4.14989599,3.26811155 4.76448568,3.05651855 5.56277466,3.05651855 L34.3000641,3.05651855 C35.0996526,3.05651855 35.7172591,3.26811155 36.1528835,3.69129753 C36.588508,4.11448352 36.8063202,4.74907684 36.8063202,5.59507751 L36.8063202,25.6863403 C36.8063202,26.532341 36.588508,27.1669343 36.1528835,27.5901203 C35.7172591,28.0133063 35.0996526,28.2248993 34.3000641,28.2248993 L5.56277466,28.2248993 Z" id="Shape" style="mix-blend-mode: normal;"></path>
                    </g>
                </g>
            </g>
        </g>
    </g>
</svg>