<?xml version="1.0" encoding="UTF-8"?>
<svg width="1023px" height="1024px" viewBox="0 0 1023 1024" version="1.1" xmlns="http://www.w3.org/2000/svg" xmlns:xlink="http://www.w3.org/1999/xlink">
    <title>safari-pinned-tab</title>
    <g id="safari-pinned-tab" stroke="none" stroke-width="1" fill="none" fill-rule="evenodd">
        <path d="M955.567127,520.756375 L905.120927,697 L773.549151,697 L824.004364,520.756375 L955.567127,520.756375 Z M791.1968,520.756375 L681.273658,697 L593.682518,697 L590.296655,520.756375 L791.1968,520.756375 Z M574.336218,520.756375 L538.338634,536.005057 C527.182293,540.729426 518.735237,550.201749 515.322601,561.814677 L499.310372,616.303008 C483.112321,670.101003 452.804415,697 408.386654,697 L4.7448051,697 L39.1513894,576.821053 C44.1667827,559.302758 36.8171547,540.599681 21.2103188,531.165243 L4,520.756375 L186.759927,520.756375 L154.709648,632.746269 L349.525602,632.746269 C357.562215,632.746269 364.667019,627.53163 367.067399,619.8713 L380.342616,577.506112 C382.16184,571.700424 378.924374,565.521025 373.111534,563.704039 C372.045371,563.370776 370.934697,563.201243 369.817538,563.201243 L223.064347,563.201243 C208.852319,563.201243 197.331194,551.694292 197.331194,537.49975 C197.331194,535.266796 197.622547,533.043362 198.197893,530.885614 L200.891564,520.756375 L574.336218,520.756375 Z M251.195654,328 L200.734545,504.2344 L69.1625455,504.2344 L119.623878,328 L251.195654,328 Z M722.343625,328 L725.710982,504.2344 L599.218982,504.2344 L597.07837,392.253731 L390.365769,392.253731 C382.188857,392.253731 374.995106,397.648723 372.714401,405.491469 L364.077785,435.190532 C362.37892,441.032485 365.743389,447.143831 371.592538,448.840606 C372.564498,449.122561 373.570693,449.269541 374.582789,449.277407 L505.746009,450.296812 C526.048291,450.454603 542.378471,467.020519 542.220486,487.297823 C542.196829,490.334322 541.796108,493.356162 541.027505,496.294118 L538.942473,504.2344 L214.533673,504.2344 L245.109437,389.590622 C254.750886,353.431846 287.522485,328.2609 324.987632,328.23842 L722.343625,328 Z M1020,328 L985.471422,448.605059 C980.504593,465.953723 987.662216,484.488195 1003.00675,494.012326 L1019.48276,504.2344 L837.969745,504.2344 L861.079748,423.52694 L810.740945,504.2344 L748.044509,504.2344 L857.997405,328 L1020,328 Z" id="Shape" fill="#000000"></path>
    </g>
</svg>