<?xml version="1.0" encoding="UTF-8"?>
<svg width="1042px" height="1042px" viewBox="0 0 1042 1042" version="1.1" xmlns="http://www.w3.org/2000/svg" xmlns:xlink="http://www.w3.org/1999/xlink">
    <title>Group</title>
    <g id="Page-1" stroke="none" stroke-width="1" fill="none" fill-rule="evenodd">
        <g id="Group">
            <circle id="bg" fill="#00EABC" cx="521" cy="521" r="521"></circle>
            <polygon id="Rectangle" fill="#FFFFFF" points="677.864 345 905.899278 345 905.899278 427.362427 761.864 427.362427 761.864 492.556427 896.381334 492.556427 896.381334 570.757996 761.864 570.757996 761.864 698 677.864 698"></polygon>
            <path d="M736.374255,554.000758 C729.413099,596.882395 708.248313,634.999634 677.864339,663.36803 L677.864,554.000627 L736.374255,554.000758 Z M736.533791,492.998698 L677.864,492.998627 L677.866114,382.633627 C708.484988,411.22206 729.741255,449.710793 736.533791,492.998698 Z" id="Combined-Shape" fill="#F2F2F2"></path>
            <path d="M546.864,347 C634.536831,347 707.237093,411.105188 720.648922,494.999699 L640.805756,495.000192 C628.758128,454.519248 591.258359,425 546.864,425 C492.740095,425 448.864,468.876095 448.864,523 C448.864,577.123905 492.740095,621 546.864,621 C591.257994,621 628.757512,591.481237 640.805459,551.000805 L720.648762,551.001299 C707.236516,634.895321 634.536483,699 546.864,699 C449.661884,699 370.864,620.202116 370.864,523 C370.864,425.797884 449.661884,347 546.864,347 Z" id="Combined-Shape" fill="#FFFFFF"></path>
            <path d="M395.868683,432.524674 L498.781277,692.351541 C424.951441,671.430524 370.864,603.531662 370.864,523 C370.864,489.915637 379.992694,458.963395 395.868683,432.524674 Z" id="Combined-Shape" fill="#F2F2F2"></path>
            <path d="M337.261,344 L477.024,696.99962 L386.777,696.99962 L367.429214,644.99962 L245.594214,644.99962 L226.246,696.99962 L136,696.99962 L275.761,344 L337.261,344 Z M306.512214,481.27562 L274.988214,565.99962 L338.035214,565.99962 L306.512214,481.27562 Z" id="Combined-Shape" fill="#FFFFFF"></path>
        </g>
    </g>
</svg>