<?xml version="1.0" encoding="UTF-8"?>
<svg width="612px" height="612px" viewBox="0 0 612 612" version="1.1" xmlns="http://www.w3.org/2000/svg" xmlns:xlink="http://www.w3.org/1999/xlink">
    <title>bootstrap</title>
    <g id="Page-1" stroke="none" stroke-width="1" fill="none" fill-rule="evenodd">
        <g id="bootstrap">
            <path d="M128.19426,9.33014469e-15 L483.80574,5.17920154e-15 C528.381677,-3.00926524e-15 544.545989,4.64128056 560.842285,13.3566352 C577.138581,22.0719898 589.92801,34.8614185 598.643365,51.1577148 C607.358719,67.4540111 612,83.618323 612,128.19426 L612,483.80574 C612,528.381677 607.358719,544.545989 598.643365,560.842285 C589.92801,577.138581 577.138581,589.92801 560.842285,598.643365 C544.545989,607.358719 528.381677,612 483.80574,612 L128.19426,612 C83.618323,612 67.4540111,607.358719 51.1577148,598.643365 C34.8614185,589.92801 22.0719898,577.138581 13.3566352,560.842285 C4.64128056,544.545989 -6.42417117e-15,528.381677 1.10565452e-14,483.80574 L3.45280103e-15,128.19426 C-2.00617683e-15,83.618323 4.64128056,67.4540111 13.3566352,51.1577148 C22.0719898,34.8614185 34.8614185,22.0719898 51.1577148,13.3566352 C67.4540111,4.64128056 83.618323,-5.42108275e-15 128.19426,9.33014469e-15 Z" id="Rectangle" fill="#563D7C"></path>
            <path d="M166.3,133 L339.8,133 C371.8,133 397.5,140.3 416.8,155 C436.1,169.7 445.8,191.8 445.8,221.5 C445.8,239.5 441.4,254.9 432.6,267.7 C423.8,280.5 411.2,290.5 394.8,297.5 L394.8,298.5 C416.8,303.2 433.5,313.6 444.8,329.7 C456.1,345.9 461.8,366.1 461.8,390.5 C461.8,404.5 459.3,417.6 454.3,429.7 C449.3,441.9 441.5,452.4 430.8,461.2 C420.1,470 406.5,477 389.8,482.2 C373.1,487.4 353.3,490 330.3,490 L166.3,490 L166.3,133 Z M228.8,282.5 L330.8,282.5 C345.8,282.5 358.3,278.3 368.3,269.7 C378.3,261.1 383.3,248.9 383.3,232.9 C383.3,214.9 378.8,202.2 369.8,194.9 C360.8,187.6 347.8,183.9 330.8,183.9 L228.8,183.9 L228.8,282.5 Z M228.8,439 L339.3,439 C358.3,439 373.1,434.1 383.5,424.2 C394,414.4 399.3,400.4 399.3,382.4 C399.3,364.7 394.1,351.2 383.5,341.6 C372.9,332 358.3,327.4 339.3,327.4 L228.8,327.4 L228.8,439 Z" id="Shape" fill="#FFFFFF" fill-rule="nonzero"></path>
        </g>
    </g>
</svg>