<?xml version="1.0" encoding="UTF-8"?>
<svg width="30px" height="41px" viewBox="0 0 30 41" version="1.1" xmlns="http://www.w3.org/2000/svg" xmlns:xlink="http://www.w3.org/1999/xlink">
  <g id="Page-1" stroke="none" stroke-width="1" fill="none" fill-rule="evenodd">
    <path d="M24.2160643,27.6852012 L28.9476107,30.4061369 L10.5255298,41 L5.79393452,38.2790643 L24.2160643,27.6852012 Z M23.9079298,21.8012619 L23.907344,27.1861726 L5.41883333,37.8133726 L5.41941905,32.4284619 L23.9079298,21.8012619 Z M0.0450504583,23.5366357 L4.74830762,26.24 L4.74635036,31.9814643 L0.0430951,29.2781 L0.0450504583,23.5366357 Z M12.219269,22.3142988 L12.2186833,27.6994536 L5.3899381,31.6247643 L5.39057262,26.2396095 L12.219269,22.3142988 Z M24.5262976,21.8012619 L29.2857143,24.5368405 L29.2838595,29.923069 L24.5244917,27.1874905 L24.5262976,21.8012619 Z M23.8689798,15.5943988 L23.8683452,20.9794071 L12.8370024,27.3203988 L12.8375881,21.9353417 L23.8689798,15.5943988 Z M16.4480774,13.8012345 L16.4474429,19.1862429 L5.4161,25.5272345 L5.41668571,20.1421774 L16.4480774,13.8012345 Z M0.0471219833,17.4042071 L4.74879571,20.106644 L4.74696048,25.4928238 L0.045287575,22.7904357 L0.0471219833,17.4042071 Z M24.5390369,15.630225 L29.2407119,18.3326131 L29.238906,23.7188417 L24.537231,21.0164048 L24.5390369,15.630225 Z M0.00183442298,11.2346345 L4.76124214,13.9702619 L4.75941179,19.3564417 L0,16.6208631 L0.00183442298,11.2346345 Z M23.8940679,3.29223655 L23.8934821,8.6771619 L5.37715,19.3203226 L5.37778452,13.9354119 L23.8940679,3.29223655 Z M23.8950929,9.49686905 L23.8945071,14.881975 L17.0658107,18.8072857 L17.0663964,13.4221798 L23.8950929,9.49686905 Z M24.539281,9.24476786 L29.2425667,11.9480833 L29.2406631,17.5864131 L24.5373774,14.8830488 L24.539281,9.24476786 Z M18.9716762,0 L23.7032714,2.72094548 L5.06965,13.4364321 L0.338073798,10.7154476 L18.9716762,0 Z" id="Combined-Shape" fill="#172B4D" fill-rule="nonzero"></path>
  </g>
</svg>