<?xml version="1.0" encoding="UTF-8"?>
<svg width="72px" height="77px" viewBox="0 0 72 77" version="1.1" xmlns="http://www.w3.org/2000/svg" xmlns:xlink="http://www.w3.org/1999/xlink">
    <title>jquery</title>
    <g id="Page-1" stroke="none" stroke-width="1" fill="none" fill-rule="evenodd">
        <g id="jquery" transform="translate(0.629133, 0.051000)" fill-rule="nonzero">
            <path d="M16.8240365,7.133 C12.8110365,14.884 14.6210365,24.328 19.6380365,31.172 C19.8210365,31.424 20.0030365,31.668 20.1940365,31.913 C20.2530365,31.988 20.3130365,32.06 20.3660365,32.137 C20.5300365,32.335 20.6900365,32.534 20.8510365,32.732 C20.9110365,32.799 20.9660365,32.87 21.0260365,32.939 C21.2470365,33.197 21.4670365,33.451 21.6940365,33.701 C21.7060365,33.714 21.7170365,33.725 21.7280365,33.735 C21.9440365,33.973 22.1650365,34.206 22.3890365,34.432 C22.4590365,34.503 22.5270365,34.573 22.6020365,34.647 C22.7770365,34.824 22.9560365,34.996 23.1350365,35.171 C23.2100365,35.239 23.2730365,35.304 23.3480365,35.375 C23.5940365,35.603 23.8440365,35.832 24.0940365,36.056 C24.1210365,36.076 24.1540365,36.097 24.1760365,36.121 C24.4120365,36.326 24.6430365,36.525 24.8890365,36.722 C24.9720365,36.789 25.0570365,36.857 25.1400365,36.926 C25.3300365,37.079 25.5200365,37.224 25.7100365,37.372 C25.8080365,37.443 25.9010365,37.513 25.9910365,37.584 C26.2030365,37.74 26.4120365,37.89 26.6250365,38.04 C26.7000365,38.092 26.7700365,38.144 26.8410365,38.195 C27.0620365,38.344 27.2860365,38.495 27.5130365,38.639 C27.5950365,38.696 27.6780365,38.753 27.7670365,38.809 C28.0770365,39.007 28.3940365,39.199 28.7070365,39.386 C28.7930365,39.432 28.8750365,39.475 28.9500365,39.526 C29.1930365,39.66 29.4360365,39.798 29.6780365,39.929 C29.8090365,40.001 29.9430365,40.067 30.0810365,40.137 C30.2790365,40.242 30.4800365,40.348 30.6820365,40.444 C30.7610365,40.483 30.8310365,40.52 30.9100365,40.553 C31.1670365,40.677 31.4210365,40.796 31.6860365,40.918 C31.7490365,40.944 31.8060365,40.972 31.8730365,40.996 C32.1750365,41.129 32.4850365,41.261 32.7980365,41.384 C32.8770365,41.414 32.9590365,41.442 33.0380365,41.476 C33.3210365,41.586 33.6050365,41.694 33.8920365,41.793 C33.9370365,41.812 33.9850365,41.828 34.0300365,41.843 C34.3480365,41.951 34.6720365,42.058 35.0000365,42.157 C35.0790365,42.185 35.1680365,42.211 35.2470365,42.233 C35.5870365,42.334 35.9190365,42.441 36.2550365,42.517 C45.2950365,44.574 54.8390365,42.724 60.2170365,35.724 L60.2170365,35.724 L60.1857209,35.8043677 C59.6799453,37.0705232 52.9347165,52.82036 31.7830365,48.965 C31.4360365,48.9 31.1080365,48.78 30.7680365,48.678 C30.6860365,48.657 30.6070365,48.629 30.5290365,48.607 C30.1970365,48.504 29.8720365,48.398 29.5440365,48.285 C29.5060365,48.273 29.4730365,48.262 29.4360365,48.246 C29.1410365,48.14 28.8420365,48.03 28.5550365,47.918 C28.4760365,47.892 28.4020365,47.858 28.3270365,47.83 C28.0100365,47.705 27.7000365,47.576 27.3900365,47.442 C27.3340365,47.414 27.2780365,47.392 27.2260365,47.367 C26.9500365,47.244 26.6810365,47.123 26.4190365,46.994 C26.3530365,46.961 26.2850365,46.925 26.2140365,46.893 C26.1770365,46.873 26.1360365,46.858 26.0950365,46.841 C25.9230365,46.753 25.7550365,46.664 25.5950365,46.576 C25.4600365,46.509 25.3300365,46.446 25.1990365,46.373 C24.9600365,46.246 24.7250365,46.113 24.4940365,45.979 C24.4080365,45.929 24.3180365,45.878 24.2290365,45.831 C23.9190365,45.645 23.6050365,45.452 23.2920365,45.253 C23.2060365,45.195 23.1200365,45.139 23.0310365,45.081 C22.8290365,44.949 22.6350365,44.818 22.4300365,44.684 C22.4110365,44.669 22.3890365,44.653 22.3700365,44.637 C22.2910365,44.587 22.2170365,44.533 22.1420365,44.478 C21.9370365,44.333 21.7280365,44.185 21.5260365,44.034 C21.4260365,43.958 21.3290365,43.883 21.2310365,43.81 C21.0450365,43.668 20.8580365,43.527 20.6720365,43.379 C20.5820365,43.306 20.4930365,43.236 20.4030365,43.161 C20.1790365,42.976 19.9580365,42.789 19.7390365,42.601 C19.7010365,42.566 19.6560365,42.53 19.6150365,42.494 C19.6120365,42.491 19.6080365,42.489 19.6040365,42.485 C19.3540365,42.271 19.1150365,42.047 18.8760365,41.823 C18.8050365,41.754 18.7310365,41.685 18.6560365,41.614 C18.4730365,41.442 18.3010365,41.267 18.1300365,41.093 C18.0510365,41.018 17.9800365,40.949 17.9100365,40.878 C17.6860365,40.647 17.4650365,40.414 17.2490365,40.177 C17.2340365,40.167 17.2270365,40.158 17.2190365,40.149 C17.2150365,40.143 17.2080365,40.137 17.2080365,40.134 C16.9840365,39.887 16.7640365,39.637 16.5550365,39.386 C16.4910365,39.315 16.4320365,39.241 16.3720365,39.173 C16.2150365,38.98 16.0580365,38.786 15.8980365,38.592 C15.8380365,38.512 15.7710365,38.43 15.7110365,38.348 C15.5360365,38.126 15.3680365,37.902 15.2000365,37.672 C15.1700365,37.631 15.1360365,37.588 15.1060365,37.543 C15.0990365,37.54 15.0920365,37.533 15.0920365,37.525 C14.8940365,37.26 14.7140365,36.991 14.5360365,36.719 C14.4760365,36.635 14.4230365,36.551 14.3680365,36.465 C14.2440365,36.263 14.1060365,36.064 13.9870365,35.862 C13.9160365,35.758 13.8560365,35.653 13.7920365,35.549 C13.6810365,35.362 13.5690365,35.17 13.4570365,34.981 C13.3970365,34.873 13.3370365,34.768 13.2810365,34.655 C13.2480365,34.598 13.2070365,34.535 13.1810365,34.477 C13.1210365,34.373 13.0650365,34.266 13.0160365,34.16 C12.9310365,33.996 12.8410365,33.835 12.7630365,33.665 C9.27603654,26.708 8.71303654,18.191 13.2700365,11.644 L13.2700365,11.644 L16.8240365,7.133 Z M30.1000365,2.325 C27.9130365,6.026 27.6330365,10.589 28.9020365,14.654 C30.1030365,18.568 32.6420365,22.024 35.8520365,24.551 C35.9190365,24.607 35.9860365,24.659 36.0570365,24.717 C36.3590365,24.945 36.6620365,25.172 36.9710365,25.387 C37.1240365,25.49 37.2700365,25.585 37.4190365,25.68 C37.4900365,25.724 37.5540365,25.773 37.6280365,25.816 C37.8450365,25.96 38.0800365,26.098 38.3080365,26.236 C38.3520365,26.262 38.3970365,26.284 38.4420365,26.309 C38.6280365,26.419 38.8110365,26.527 39.0090365,26.63 C39.0880365,26.671 39.1740365,26.714 39.2630365,26.759 C39.4130365,26.837 39.5580365,26.911 39.7070365,26.988 C39.9980365,27.128 40.2970365,27.268 40.6000365,27.399 C40.6550365,27.428 40.7230365,27.452 40.7930365,27.481 C41.0290365,27.585 41.2710365,27.678 41.5140365,27.774 C41.6150365,27.813 41.7190365,27.85 41.8200365,27.887 C42.0400365,27.97 42.2680365,28.046 42.4960365,28.119 C42.5930365,28.153 42.6820365,28.184 42.7830365,28.21 C43.0970365,28.313 43.4170365,28.407 43.7460365,28.491 C51.0620365,30.39 57.9180365,27.96 61.4600365,22.858 C61.4600365,22.858 61.4564959,22.8697891 61.449168,22.8925838 L61.4293894,22.9526152 C61.033959,24.1281025 56.6757865,35.816 40.5210365,33.137 C40.1890365,33.085 39.8720365,32.958 39.5580365,32.859 C39.4610365,32.827 39.3640365,32.798 39.2560365,32.762 C39.0360365,32.689 38.8110365,32.613 38.5910365,32.534 C38.4910365,32.499 38.3900365,32.456 38.2820365,32.421 C38.0420365,32.329 37.8000365,32.228 37.5610365,32.126 C37.4940365,32.098 37.4340365,32.074 37.3630365,32.046 C37.0720365,31.913 36.7770365,31.781 36.4860365,31.637 C36.4640365,31.627 36.4370365,31.616 36.4190365,31.607 C36.2810365,31.534 36.1390365,31.459 35.9970365,31.388 C35.9260365,31.349 35.8550365,31.316 35.7850365,31.273 C35.5790365,31.168 35.3740365,31.053 35.1800365,30.935 C35.1460365,30.918 35.1130365,30.9 35.0790365,30.883 C34.8480365,30.746 34.6230365,30.609 34.3960365,30.461 C34.3320365,30.422 34.2650365,30.373 34.2020365,30.332 C34.0560365,30.239 33.9150365,30.149 33.7800365,30.053 C33.7650365,30.047 33.7580365,30.039 33.7470365,30.035 C33.4370365,29.815 33.1310365,29.592 32.8320365,29.358 C32.7610365,29.308 32.6980365,29.252 32.6270365,29.201 C32.3250365,28.966 32.0330365,28.725 31.7460365,28.471 C31.7460365,28.471 31.7420365,28.468 31.7390365,28.466 C31.7310365,28.457 31.7160365,28.448 31.7080365,28.438 C31.4510365,28.21 31.2010365,27.977 30.9550365,27.74 C30.8880365,27.673 30.8240365,27.611 30.7610365,27.548 L30.5060735,27.2923333 C30.3383698,27.1218889 30.1757032,26.951 30.0210365,26.777 C29.3610365,26.208 28.8160365,25.368 28.3230365,24.659 C27.7780365,23.885 27.2930365,23.069 26.8680365,22.229 C24.2960365,17.213 24.1130365,10.866 27.4160365,6.125 L27.4160365,6.125 L30.1000365,2.325 Z M40.7600365,0 C38.0730365,4.854 40.6250365,10.813 44.7460365,13.937 C45.4700365,14.486 46.2540365,14.96 47.0640365,15.354 C47.4970365,15.557 47.9410365,15.742 48.3890365,15.901 C48.7400365,16.028 49.1360365,16.158 49.4980365,16.246 C54.1000365,17.363 57.8510365,16.593 60.0870365,13.379 C59.4040365,14.355 56.8580365,20.99 47.4630365,19.176 C47.2580365,19.137 47.0610365,19.062 46.8630365,19 C46.7950365,18.98 46.7360365,18.959 46.6720365,18.941 C46.5300365,18.892 46.3920365,18.847 46.2540365,18.793 C42.8570365,17.549 39.9420365,14.919 38.5170365,11.567 C37.1730365,8.413 37.3600365,4.862 39.3080365,2.003 L39.3080365,2.003 L40.7600365,0 Z" id="Combined-Shape" fill="#2B94C2"></path>
            <path d="M70.8752057,57.3531239 C71.0202479,57.3531239 71.0329988,57.489315 70.9437421,57.6029121 L70.9437421,57.6029121 L63.0034013,67.9691217 C62.9166948,68.0846016 62.8156434,68.273198 62.7799408,68.4115857 L62.7799408,68.4115857 L62.1258166,70.8962877 C62.0904327,71.0359306 61.9402901,71.0770389 61.795248,71.0770389 L61.795248,71.0770389 L58.7076033,71.0770389 C58.560011,71.0770389 58.4707542,71.0349892 58.5055006,70.8962877 L58.5055006,70.8962877 L59.1589872,68.4461041 C59.1950087,68.3074026 59.1915022,68.0811498 59.1510179,67.9427621 L59.1510179,67.9427621 L57.7493687,63.1051558 C57.7111159,62.9667681 57.7981412,62.8484639 57.9419082,62.8484639 L57.9419082,62.8484639 L61.0690809,62.8484639 C61.2166732,62.8484639 61.3617154,62.9626887 61.3923177,63.1026454 L61.3923177,63.1026454 L61.7518947,64.6471899 C61.7840909,64.7862052 61.8781292,64.7905984 61.9610104,64.6722942 L61.9610104,64.6722942 L66.8264575,57.6258198 C66.9074261,57.5075156 67.0942277,57.3540653 67.2392698,57.3540653 C67.2392698,57.3540653 67.2405663,57.3540661 67.2431034,57.3540676 L67.7735289,57.3543447 C67.7977714,57.3543561 67.8225819,57.3543676 67.8479046,57.3543792 L68.7052546,57.3546902 C68.7352212,57.3546976 68.7651398,57.3547046 68.7949547,57.354711 L69.6022067,57.3546981 C69.6243414,57.3546891 69.6458121,57.354679 69.6665627,57.3546678 L69.9168127,57.3544127 C69.9289618,57.3543894 69.940111,57.3543647 69.9502037,57.3543387 L69.9976382,57.3541653 L69.9976382,57.3541653 L70.0110095,57.3540653 L70.8752057,57.3531239 Z M58.4181565,59.3165971 C59.9183068,59.3165971 60.5858195,59.7418019 60.8213935,60.6414786 L60.8213935,60.6414786 L61.1200847,61.8844573 C61.1532372,62.0241002 61.0617491,62.1376973 60.9176632,62.1376973 L60.9176632,62.1376973 L54.6677808,62.1417768 C54.5224199,62.1417768 54.3796091,62.2560015 54.3490068,62.3953306 L54.3490068,62.3953306 L53.4054359,66.7418332 L52.6330465,70.6603069 C52.6034006,70.801205 52.5676979,71.0142781 52.4867293,71.0472275 C52.409586,71.0776666 52.1440473,71.0669972 51.99773,71.0669972 L51.99773,71.0669972 L49.8118969,71.0669972 C49.6681299,71.0669972 49.38729,71.0804908 49.370395,71.0086296 C49.3541375,70.9386513 49.3633819,70.8382339 49.3946218,70.6967082 L49.3946218,70.6967082 L51.7882955,59.5208837 C51.8179415,59.380927 51.9629837,59.3165971 52.1083446,59.3165971 L52.1083446,59.3165971 L58.4181565,59.3165971 Z M9.34258502,59.3165971 L6.3167825,59.3165971 C6.17174035,59.3165971 6.0254231,59.350488 5.99322692,59.4910723 L5.44716712,61.8166756 C5.41624604,61.9544356 5.50900927,62.0642671 5.65532652,62.0642671 L8.55234435,62.0642671 C8.69898038,62.0642671 8.84402253,61.9343522 8.87494361,61.7956507 L9.40092066,59.4524743 C9.40092066,59.4524743 9.44268005,59.3165971 9.34258502,59.3165971 M5.45896175,62.8484639 C5.31519469,62.8484639 5.16760234,62.9617473 5.13668127,63.1013902 L4.72833181,64.8753256 L3.81823213,68.9717262 C3.81823213,68.9717262 3.33401447,71.1495277 3.28747347,71.2857188 C3.28747347,71.2857188 2.87976157,72.8581919 1.90558832,72.7951172 C1.45229173,72.7656196 0.934284031,72.6633194 0.934284031,72.6633194 L0.933008935,72.6633194 C0.660457192,72.5823579 0.641330753,72.8607023 0.608178261,72.9997176 L0.00728932837,75.5518875 C-0.0274570343,75.6915304 0.0656249648,75.8173659 0.209710799,75.8192488 C0.209710799,75.8192488 1.51222124,76 2.43220291,76 L2.58330177,76 C4.8558414,76 6.05634417,74.6845326 6.82363312,71.1131264 L7.72321326,66.9790693 L8.56668918,63.1324568 C8.59792903,62.9925001 8.51186006,62.8625851 8.3668179,62.8625851 M19.9083484,65.7480152 L19.3218043,67.7215301 C19.28132,67.8599178 19.1158763,67.9521762 18.9705154,67.9521762 L15.9447129,67.9521762 C13.6485838,67.9521762 13.0904106,66.205228 13.6485838,63.5987699 C14.2089886,60.934258 15.3192783,59.2855305 17.5774731,59.1185866 C20.6651178,58.8895095 21.2969278,61.0359306 20.5484465,63.5033734 L19.9083484,65.7480152 Z M22.5972068,67.8392067 C22.5972068,67.8392067 24.022764,64.4303511 24.3460008,62.4602881 C24.7887779,59.8237048 23.4489709,56 18.2685751,56 C13.1191002,56 10.8844947,59.6504848 10.0292242,63.6191672 C9.17714133,67.6167195 10.2925314,71.0971224 15.4136354,71.06888 L23.2299732,71.064173 C23.374059,71.0635454 23.5242015,70.9490068 23.5611793,70.812502 L24.2200851,68.3425487 C24.2557878,68.2029058 24.1665311,68.0899363 24.0202138,68.0893087 L23.3906352,68.0846016 L22.7613754,68.0817774 C22.6376911,68.080836 22.5662858,68.0014435 22.582862,67.8969467 C22.5850934,67.8778046 22.5876436,67.8589764 22.5972068,67.8392067 L22.5972068,67.8392067 Z M29.9930817,59.3260112 C30.1368487,59.3260112 30.2321622,59.3765337 30.2060227,59.5164904 L30.2060227,59.5164904 L30.2032067,59.5301154 C30.1734609,59.6740393 29.9127341,60.935542 29.6445556,62.2326277 L29.5942393,62.4759841 C29.3092379,63.8543728 29.0315956,65.1965894 29.029428,65.20482 C28.6519996,66.9156808 28.4403337,68.056673 30.2751967,68.056673 L30.2751967,68.056673 L32.1298236,68.056673 C32.2751845,68.056673 32.4192704,68.066401 32.4489163,67.9267581 L32.4489163,67.9267581 L33.3781425,63.8127844 L34.3108751,59.5164904 C34.3395648,59.3759061 34.4871571,59.3260112 34.6309242,59.3260112 L34.6309242,59.3260112 L37.4533489,59.3260112 C37.5024401,59.3260112 37.4590868,59.4571814 37.4590868,59.4571814 L37.4590868,59.4571814 L36.2359511,65.1815985 L35.0083525,70.8821665 C34.9771127,71.020868 34.8333456,71.0679386 34.6870284,71.0679386 C34.6870284,71.0679386 34.6858049,71.0679391 34.6833937,71.06794 L33.8020969,71.0682475 C33.770842,71.0682576 33.7389723,71.0682678 33.7065233,71.0682782 L32.7157534,71.068565 C32.6757785,71.0685754 32.6355467,71.0685857 32.5950937,71.0685959 L31.1050679,71.0688899 C31.06446,71.0688899 31.0240605,71.0688899 30.9839051,71.0688899 L29.9851296,71.0688899 C29.9522681,71.0688899 29.9199728,71.0688899 29.8882796,71.0688899 L29.2615754,71.0685952 C29.241807,71.0685783 29.222927,71.0685606 29.2049711,71.0685422 L29.0361563,71.068282 C29.0261676,71.068257 29.017246,71.0682311 29.0094275,71.0682043 L28.9760432,71.0680327 L28.9760432,71.0680327 L28.9698172,71.0679386 C25.3491825,70.9788182 25.36544,68.2744532 25.9048055,65.2007406 L25.9048055,65.2007406 L26.9867244,59.5164904 C27.0147765,59.3765337 27.1591811,59.3260112 27.3042233,59.3260112 L27.3042233,59.3260112 L29.9930817,59.3260112 Z M44.5945234,59.2993379 C49.2663886,59.2993379 49.3609545,62.7677385 48.6845419,65.9876319 L48.6417523,66.1864511 L48.6417523,66.1864511 L48.6196823,66.2855619 C48.6196823,66.2855619 48.6094815,66.4700788 48.2891137,66.4716478 L48.2891137,66.4716478 L40.993015,66.4716478 C40.8479729,66.4716478 40.6933675,66.8102426 40.6946426,66.9432956 C40.6347131,68.111275 41.2489905,68.6315624 42.964632,68.6315624 L42.964632,68.6315624 L47.7012945,68.6315624 C47.8450615,68.6315624 47.94165,68.6729846 47.9116853,68.8135689 L47.9116853,68.8135689 L47.3939964,70.7990084 C47.3653067,70.9377099 47.222496,71.0663696 47.080004,71.06888 L47.080004,71.06888 L42.2620542,71.06888 C36.9955895,71.06888 36.9378914,68.5951611 37.614011,65.4655914 C37.634285,65.3735118 37.6550442,65.2814073 37.6763785,65.1893624 L37.7198411,65.0053769 C37.7493627,64.8828061 37.7800138,64.7604411 37.8120079,64.6384819 L37.8610327,64.4558723 C38.6039661,61.7524194 40.0645444,59.2993379 44.5945234,59.2993379 Z M43.9783333,62.1420906 C42.5279117,62.1420906 41.6127116,62.7405153 41.3060511,63.78768 C41.2942565,63.8269056 41.2840557,63.9844353 41.2843535,63.9891424 C41.2939377,64.124392 41.3331469,64.313616 41.4702197,64.313616 L41.4702197,64.313616 L45.4379993,64.3418583 C45.4379993,64.3418583 45.936243,64.3716698 45.936243,64.2163366 L45.936243,64.2163366 L45.9591947,63.8228261 C45.9591947,62.9391534 45.610456,62.1420906 43.9783333,62.1420906 Z" id="Combined-Shape" fill="#FFFFFF"></path>
        </g>
    </g>
</svg>