<?xml version="1.0" encoding="UTF-8"?>
<svg width="279px" height="71px" viewBox="0 0 279 71" version="1.1" xmlns="http://www.w3.org/2000/svg" xmlns:xlink="http://www.w3.org/1999/xlink">
    <title>jQuery-Logo</title>
    <g id="jQuery-Logo" stroke="none" stroke-width="1" fill="none" fill-rule="evenodd">
        <path d="M107.212,63.236 C107.191,63.848 107.149,64.479 107.069,65.149 L109.559,60.635 L109.285,59.163 L111.785,58.781 L112.694,65.034 L113.844,61.114 C113.935,60.731 113.982,60.445 113.993,60.158 C114.002,59.871 113.975,59.565 113.875,59.144 L116.493,58.647 C116.588,59.182 116.649,59.642 116.633,60.119 C116.61,60.75 116.452,61.438 116.014,62.471 L113.906,68.132 L110.789,68.132 L110.133,63.906 L107.692,68.132 L104.67,68.132 C104.789,64.192 104.646,61.726 104.373,59.144 L106.968,58.743 C107.166,60.177 107.269,61.611 107.212,63.236 M123.49,58.647 L123.443,61.076 C122.235,61.726 121.787,61.975 120.693,62.644 L119.526,68.132 L116.831,68.132 L118.734,59.048 L121.119,58.647 L121.017,59.909 C121.935,59.374 122.675,58.991 123.49,58.647 Z M127.83,58.647 L125.816,68.132 L123.121,68.132 L125.043,59.029 L127.83,58.647 Z M128.7,54.536 L128.083,57.404 L125.316,57.787 L125.914,54.917 L128.7,54.536 Z M133.802,56.199 L133.252,58.819 L135.47,58.819 L134.859,60.98 L132.794,60.98 L131.81,65.626 C131.788,65.722 131.765,65.818 131.763,65.875 C131.759,66.009 131.833,66.067 132.025,66.067 C132.484,66.067 133.005,65.875 133.491,65.684 L133.96,67.558 C133.181,67.978 132.06,68.323 130.97,68.323 C129.613,68.323 128.909,67.673 128.948,66.564 C128.952,66.43 128.977,66.296 129,66.162 L130.099,60.98 L128.723,60.98 L129.18,58.819 L130.557,58.819 L131.017,56.582 L133.802,56.199 Z M140.41,58.628 C142.168,58.628 143.48,59.392 143.425,60.961 C143.362,62.778 142.396,63.619 140.078,64.307 C139.469467,64.4904667 139.18008,64.5760844 138.919631,64.6480489 L138.725185,64.7007778 C138.560111,64.7447778 138.378,64.7916667 138.108,64.862 L137.97,65.512 C137.901,65.856 137.928,66.162 138.425,66.162 C139.401,66.162 140.833,65.684 142.114,65.13 L142.563,67.042 C141.41,67.749 139.612,68.323 137.968,68.323 C136.037,68.323 135.244,67.482 135.299,65.894 C135.311,65.55 135.364,65.168 135.454,64.766 L136.004,62.146 C136.46,60.004 137.465,58.628 140.41,58.628 Z M140.146,60.712 C139.17,60.712 138.864,61.267 138.704,62.032 L138.567,62.682 C139.03,62.567 139.241,62.529 139.801,62.356 C140.536,62.146 140.891,61.802 140.911,61.247 C140.922,60.922 140.643,60.712 140.146,60.712 Z M157.921,58.628 C159.68,58.628 160.992,59.392 160.937,60.961 C160.874,62.778 159.908,63.619 157.589,64.307 C156.981,64.4904667 156.691862,64.5760844 156.431529,64.6480489 L156.237148,64.7007778 C156.072111,64.7447778 155.89,64.7916667 155.62,64.862 L155.482,65.512 C155.413,65.856 155.44,66.162 155.937,66.162 C156.913,66.162 158.344,65.684 159.625,65.13 L160.075,67.042 C158.921,67.749 157.124,68.323 155.48,68.323 C153.548,68.323 152.755,67.482 152.811,65.894 C152.823,65.55 152.875,65.168 152.965,64.766 L153.516,62.146 C153.972,60.004 154.977,58.628 157.921,58.628 Z M153.167,54.631 L150.325,68.132 L147.629,68.132 L150.381,55.013 L153.167,54.631 Z M157.658,60.712 C156.682,60.712 156.375,61.267 156.215,62.032 L156.079,62.682 C156.542,62.567 156.752,62.529 157.313,62.356 C158.047,62.146 158.403,61.802 158.422,61.247 C158.434,60.922 158.155,60.712 157.658,60.712 Z M161.16,67.711 L161.746,65.722 C162.444,65.971 163.239,66.2 164.252,66.2 C165.151,66.2 165.217,65.933 165.309,65.493 C165.4,65.072 165.14,64.843 164.108,64.288 C162.195,63.255 162.142,62.567 162.44,61.171 C162.873,59.163 163.485,58.628 166.066,58.628 C166.945,58.628 168.066,58.819 168.823,59.067 L168.311,61.095 C167.629,60.903 166.623,60.75 165.972,60.75 C165.169,60.75 165.05,60.846 164.937,61.343 C164.846,61.783 164.938,61.879 165.82,62.356 C167.921,63.504 168.233,63.906 167.914,65.378 C167.458,67.482 166.817,68.323 164.025,68.323 C163.165,68.323 161.969,68.074 161.16,67.711 M180.164,64.958 L179.434,68.361 L177.218,71 L176.271,70.216 L177.817,68.132 L176.803,68.132 L177.468,64.958 L180.164,64.958 Z M173.791,58.628 C174.669,58.628 175.791,58.819 176.547,59.067 L176.036,61.095 C175.354,60.903 174.347,60.75 173.697,60.75 C172.894,60.75 172.775,60.846 172.662,61.343 C172.571,61.783 172.663,61.879 173.544,62.356 C175.646,63.504 175.958,63.906 175.638,65.378 C175.182,67.482 174.542,68.323 171.75,68.323 C170.889,68.323 169.694,68.074 168.884,67.711 L169.47,65.722 C170.168,65.971 170.963,66.2 171.977,66.2 C172.875,66.2 172.942,65.933 173.034,65.493 C173.125,65.072 172.865,64.843 171.833,64.288 C169.919,63.255 169.867,62.567 170.165,61.171 C170.597,59.163 171.209,58.628 173.791,58.628 Z M196.125,54.631 L193.284,68.132 L191.008,68.132 L190.959,67.329 C190.271,67.883 189.3,68.323 187.961,68.323 C185.935,68.323 185.481,67.099 185.917,65.015 L186.444,62.51 C186.904,60.292 187.536,58.628 191.455,58.628 C191.742,58.628 192.333,58.666 192.58,58.724 L193.359,55.013 L196.125,54.631 Z M201.3,58.628 C203.805,58.628 204.882,60.062 204.825,61.726 C204.817,61.936 204.79,62.166 204.744,62.395 L204.287,64.556 C203.806,66.793 202.682,68.323 199.298,68.323 C196.927,68.323 195.734,66.908 195.792,65.206 C195.8,64.996 195.828,64.766 195.874,64.556 L196.332,62.395 C196.834,60.004 198.05,58.628 201.3,58.628 Z M191.051,60.884 C189.655,60.884 189.342,61.63 189.139,62.529 L188.544,65.34 C188.431,65.837 188.557,66.067 189.035,66.067 C189.991,66.067 190.696,65.569 191.228,65.11 L192.099,60.961 C191.795,60.903 191.433,60.884 191.051,60.884 Z M200.858,60.884 C199.844,60.884 199.233,61.4 199.049,62.318 L198.567,64.632 C198.542,64.766 198.519,64.9 198.515,65.015 C198.492,65.684 198.899,66.067 199.779,66.067 C200.811,66.067 201.402,65.55 201.587,64.632 L202.07,62.318 C202.093,62.185 202.117,62.051 202.121,61.936 C202.145,61.247 201.738,60.884 200.858,60.884 Z M221.283,61.802 C221.306,61.687 221.329,61.592 221.331,61.515 C221.337,61.324 221.245,61.247 220.977,61.247 C220.48,61.247 219.296,61.745 218.518,62.146 L217.257,68.132 L214.581,68.132 L215.911,61.802 C215.933,61.687 215.957,61.592 215.958,61.515 C215.965,61.324 215.873,61.247 215.605,61.247 C215.108,61.247 213.905,61.745 213.165,62.127 L211.904,68.132 L209.208,68.132 L211.113,59.048 L213.497,58.647 L213.442,59.679 C214.919,58.991 216.079,58.628 217.15,58.628 C218.067,58.628 218.531,59.029 218.717,59.718 C220.161,58.895 221.452,58.628 222.522,58.628 C223.765,58.628 224.199,59.335 224.158,60.521 C224.146,60.846 224.114,61.209 224.025,61.592 L222.649,68.132 L219.953,68.132 L221.283,61.802 M231.39,61.936 C231.415,61.247 231.007,60.884 230.127,60.884 C229.114,60.884 228.502,61.4 228.319,62.318 L227.836,64.632 C227.812,64.766 227.789,64.9 227.785,65.015 C227.761,65.684 228.168,66.067 229.048,66.067 C230.081,66.067 230.671,65.55 230.857,64.632 L231.339,62.318 C231.363,62.185 231.386,62.051 231.39,61.936 Z M225.062,65.206 C225.07,64.996 225.097,64.766 225.143,64.556 L225.601,62.395 C226.104,60.004 227.32,58.628 230.57,58.628 C233.075,58.628 234.152,60.062 234.094,61.726 C234.086,61.936 234.059,62.166 234.013,62.395 L233.556,64.556 C233.076,66.793 231.952,68.323 228.568,68.323 C226.197,68.323 225.003,66.908 225.062,65.206 L225.062,65.206 Z M246.266,58.628 C248.025,58.628 249.336,59.392 249.282,60.961 C249.218,62.778 248.252,63.619 245.933,64.307 C244.793,64.651 244.775,64.651 243.964,64.862 L243.827,65.512 C243.757,65.856 243.785,66.162 244.282,66.162 C245.257,66.162 246.689,65.684 247.97,65.13 L248.419,67.042 C247.266,67.749 245.468,68.323 243.825,68.323 C241.893,68.323 241.1,67.482 241.156,65.894 C241.167,65.55 241.22,65.168 241.31,64.766 L241.861,62.146 C242.317,60.004 243.322,58.628 246.266,58.628 Z M241.294,58.647 L241.248,61.076 C240.04,61.726 239.591,61.975 238.498,62.644 L237.331,68.132 L234.635,68.132 L236.54,59.048 L238.923,58.647 L238.822,59.909 C239.74,59.374 240.48,58.991 241.294,58.647 Z M246.002,60.712 C245.027,60.712 244.72,61.267 244.56,62.032 L244.423,62.682 C244.886,62.567 245.097,62.529 245.658,62.356 C246.392,62.146 246.748,61.802 246.767,61.247 C246.779,60.922 246.5,60.712 246.002,60.712 Z" id="Combined-Shape" fill="#1E5F98"></path>
        <path d="M6.824,9.184 C2.811,16.935 4.621,26.379 9.638,33.223 C9.821,33.475 10.003,33.719 10.194,33.964 C10.253,34.039 10.313,34.111 10.366,34.188 C10.53,34.386 10.69,34.585 10.851,34.783 C10.911,34.85 10.966,34.921 11.026,34.99 C11.247,35.248 11.467,35.502 11.694,35.752 C11.706,35.765 11.717,35.776 11.728,35.786 C11.944,36.024 12.165,36.257 12.389,36.483 C12.459,36.554 12.527,36.624 12.602,36.698 C12.777,36.875 12.956,37.047 13.135,37.222 C13.21,37.29 13.273,37.355 13.348,37.426 C13.594,37.654 13.844,37.883 14.094,38.107 C14.121,38.127 14.154,38.148 14.176,38.172 C14.412,38.377 14.643,38.576 14.889,38.773 C14.972,38.84 15.057,38.908 15.14,38.977 C15.33,39.13 15.52,39.275 15.71,39.423 C15.808,39.494 15.901,39.564 15.991,39.635 C16.203,39.791 16.412,39.941 16.625,40.091 C16.7,40.143 16.77,40.195 16.841,40.246 C17.062,40.395 17.286,40.546 17.513,40.69 C17.595,40.747 17.678,40.804 17.767,40.86 C18.077,41.058 18.394,41.25 18.707,41.437 C18.793,41.483 18.875,41.526 18.95,41.577 C19.193,41.711 19.436,41.849 19.678,41.98 C19.809,42.052 19.943,42.118 20.081,42.188 C20.279,42.293 20.48,42.399 20.682,42.495 C20.761,42.534 20.831,42.571 20.91,42.604 C21.167,42.728 21.421,42.847 21.686,42.969 C21.749,42.995 21.806,43.023 21.873,43.047 C22.175,43.18 22.485,43.312 22.798,43.435 C22.877,43.465 22.959,43.493 23.038,43.527 C23.321,43.637 23.605,43.745 23.892,43.844 C23.937,43.863 23.985,43.879 24.03,43.894 C24.348,44.002 24.672,44.109 25,44.208 C25.079,44.236 25.168,44.262 25.247,44.284 C25.587,44.385 25.919,44.492 26.255,44.568 C35.295,46.625 44.839,44.775 50.217,37.775 L50.217,37.775 L50.1856844,37.8553677 C49.6799088,39.1215232 42.93468,54.87136 21.783,51.016 C21.436,50.951 21.108,50.831 20.768,50.729 C20.686,50.708 20.607,50.68 20.529,50.658 C20.197,50.555 19.872,50.449 19.544,50.336 C19.506,50.324 19.473,50.313 19.436,50.297 C19.141,50.191 18.842,50.081 18.555,49.969 C18.476,49.943 18.402,49.909 18.327,49.881 C18.01,49.756 17.7,49.627 17.39,49.493 C17.334,49.465 17.278,49.443 17.226,49.418 C16.95,49.295 16.681,49.174 16.419,49.045 C16.353,49.012 16.285,48.976 16.214,48.944 C16.177,48.924 16.136,48.909 16.095,48.892 C15.923,48.804 15.755,48.715 15.595,48.627 C15.46,48.56 15.33,48.497 15.199,48.424 C14.96,48.297 14.725,48.164 14.494,48.03 C14.408,47.98 14.318,47.929 14.229,47.882 C13.919,47.696 13.605,47.503 13.292,47.304 C13.206,47.246 13.12,47.19 13.031,47.132 C12.829,47 12.635,46.869 12.43,46.735 C12.411,46.72 12.389,46.704 12.37,46.688 C12.291,46.638 12.217,46.584 12.142,46.529 C11.937,46.384 11.728,46.236 11.526,46.085 C11.426,46.009 11.329,45.934 11.231,45.861 C11.045,45.719 10.858,45.578 10.672,45.43 C10.582,45.357 10.493,45.287 10.403,45.212 C10.179,45.027 9.958,44.84 9.739,44.652 C9.701,44.617 9.656,44.581 9.615,44.545 C9.612,44.542 9.608,44.54 9.604,44.536 C9.354,44.322 9.115,44.098 8.876,43.874 C8.805,43.805 8.731,43.736 8.656,43.665 C8.473,43.493 8.301,43.318 8.13,43.144 C8.051,43.069 7.98,43 7.91,42.929 C7.686,42.698 7.465,42.465 7.249,42.228 C7.234,42.218 7.227,42.209 7.219,42.2 C7.215,42.194 7.208,42.188 7.208,42.185 C6.984,41.938 6.764,41.688 6.555,41.437 C6.491,41.366 6.432,41.292 6.372,41.224 C6.215,41.031 6.058,40.837 5.898,40.643 C5.838,40.563 5.771,40.481 5.711,40.399 C5.536,40.177 5.368,39.953 5.2,39.723 C5.17,39.682 5.136,39.639 5.106,39.594 C5.099,39.591 5.092,39.584 5.092,39.576 C4.894,39.311 4.714,39.042 4.536,38.77 C4.476,38.686 4.423,38.602 4.368,38.516 C4.244,38.314 4.106,38.115 3.987,37.913 C3.916,37.809 3.856,37.704 3.792,37.6 C3.681,37.413 3.569,37.221 3.457,37.032 C3.397,36.924 3.337,36.819 3.281,36.706 C3.248,36.649 3.207,36.586 3.181,36.528 C3.121,36.424 3.065,36.317 3.016,36.211 C2.931,36.047 2.841,35.886 2.763,35.716 C-0.724,28.759 -1.287,20.242 3.27,13.695 L3.27,13.695 Z M20.1,4.376 C17.913,8.077 17.633,12.64 18.902,16.705 C20.103,20.619 22.642,24.075 25.852,26.602 C25.919,26.658 25.986,26.71 26.057,26.768 C26.359,26.996 26.662,27.223 26.971,27.438 C27.124,27.541 27.27,27.636 27.419,27.731 C27.49,27.775 27.554,27.824 27.628,27.867 C27.845,28.011 28.08,28.149 28.308,28.287 C28.352,28.313 28.397,28.335 28.442,28.36 C28.628,28.47 28.811,28.578 29.009,28.681 C29.088,28.722 29.174,28.765 29.263,28.81 C29.413,28.888 29.558,28.962 29.707,29.039 C29.998,29.179 30.297,29.319 30.6,29.45 C30.655,29.479 30.723,29.503 30.793,29.532 C31.029,29.636 31.271,29.729 31.514,29.825 C31.615,29.864 31.719,29.901 31.82,29.938 C32.04,30.021 32.268,30.097 32.496,30.17 C32.593,30.204 32.682,30.235 32.783,30.261 C33.097,30.364 33.417,30.458 33.746,30.542 C41.062,32.441 47.918,30.011 51.46,24.909 C51.46,24.909 51.4564594,24.9207891 51.4491315,24.9435838 L51.4293529,25.0036152 C51.0339225,26.1791025 46.67575,37.867 30.521,35.188 C30.189,35.136 29.872,35.009 29.558,34.91 C29.461,34.878 29.364,34.849 29.256,34.813 C29.036,34.74 28.811,34.664 28.591,34.585 C28.491,34.55 28.39,34.507 28.282,34.472 C28.042,34.38 27.8,34.279 27.561,34.177 C27.494,34.149 27.434,34.125 27.363,34.097 C27.072,33.964 26.777,33.832 26.486,33.688 C26.464,33.678 26.437,33.667 26.419,33.658 C26.281,33.585 26.139,33.51 25.997,33.439 C25.926,33.4 25.855,33.367 25.785,33.324 C25.579,33.219 25.374,33.104 25.18,32.986 C25.146,32.969 25.113,32.951 25.079,32.934 C24.848,32.797 24.623,32.66 24.396,32.512 C24.332,32.473 24.265,32.424 24.202,32.383 C24.056,32.29 23.915,32.2 23.78,32.104 C23.765,32.098 23.758,32.09 23.747,32.086 C23.437,31.866 23.131,31.643 22.832,31.409 C22.761,31.359 22.698,31.303 22.627,31.252 C22.325,31.017 22.033,30.776 21.746,30.522 C21.746,30.522 21.742,30.519 21.739,30.517 C21.731,30.508 21.716,30.499 21.708,30.489 C21.451,30.261 21.201,30.028 20.955,29.791 C20.888,29.724 20.824,29.662 20.761,29.599 L20.506037,29.3433333 C20.3383333,29.1728889 20.1756667,29.002 20.021,28.828 C19.361,28.259 18.816,27.419 18.323,26.71 C17.778,25.936 17.293,25.12 16.868,24.28 C14.296,19.264 14.113,12.917 17.416,8.176 L17.416,8.176 Z M30.76,2.051 C28.073,6.905 30.625,12.864 34.746,15.988 C35.47,16.537 36.254,17.011 37.064,17.405 C37.497,17.608 37.941,17.793 38.389,17.952 C38.74,18.079 39.136,18.209 39.498,18.297 C44.1,19.414 47.851,18.644 50.087,15.43 C49.404,16.406 46.858,23.041 37.463,21.227 C37.258,21.188 37.061,21.113 36.863,21.051 C36.795,21.031 36.736,21.01 36.672,20.992 C36.53,20.943 36.392,20.898 36.254,20.844 C32.857,19.6 29.942,16.97 28.517,13.618 C27.173,10.464 27.36,6.913 29.308,4.054 L29.308,4.054 Z" id="Combined-Shape" fill="#1E5F98"></path>
        <path d="M277.966,4.563 C278.421,4.563 278.461,4.997 278.181,5.359 L278.181,5.359 L253.272,38.393 C253,38.761 252.683,39.362 252.571,39.803 L252.571,39.803 L250.519,47.721 C250.408,48.166 249.937,48.297 249.482,48.297 L249.482,48.297 L239.796,48.297 C239.333,48.297 239.053,48.163 239.162,47.721 L239.162,47.721 L241.212,39.913 C241.325,39.471 241.314,38.75 241.187,38.309 L241.187,38.309 L236.79,22.893 C236.67,22.452 236.943,22.075 237.394,22.075 L237.394,22.075 L247.204,22.075 C247.667,22.075 248.122,22.439 248.218,22.885 L248.218,22.885 L249.346,27.807 C249.447,28.25 249.742,28.264 250.002,27.887 L250.002,27.887 L265.265,5.432 C265.519,5.055 266.105,4.566 266.56,4.566 C266.56,4.566 266.564067,4.56600247 266.572026,4.56600724 L268.235981,4.56689021 C268.31203,4.56692658 268.389861,4.56696329 268.469299,4.56700016 L271.158822,4.56799111 C271.252828,4.56801481 271.346683,4.56803704 271.440213,4.56805761 L273.972578,4.56801646 C274.042015,4.56798765 274.109369,4.56795556 274.174464,4.56792 L274.959503,4.56710683 C274.997615,4.56703259 275.03259,4.56695407 275.064251,4.56687111 L275.213054,4.56631868 L275.213054,4.56631868 L275.255,4.566 Z M238.888,10.82 C243.594,10.82 245.688,12.175 246.427,15.042 L246.427,15.042 L247.364,19.003 C247.468,19.448 247.181,19.81 246.729,19.81 L246.729,19.81 L227.123,19.823 C226.667,19.823 226.219,20.187 226.123,20.631 L226.123,20.631 L223.163,34.482 L220.74,46.969 C220.647,47.418 220.535,48.097 220.281,48.202 C220.039,48.299 219.206,48.265 218.747,48.265 L218.747,48.265 L211.89,48.265 C211.439,48.265 210.558,48.308 210.505,48.079 C210.454,47.856 210.483,47.536 210.581,47.085 L210.581,47.085 L218.09,11.471 C218.183,11.025 218.638,10.82 219.094,10.82 L219.094,10.82 Z M84.937,10.82 L75.445,10.82 C74.99,10.82 74.531,10.928 74.43,11.376 L72.717,18.787 C72.62,19.226 72.911,19.576 73.37,19.576 L82.458,19.576 C82.918,19.576 83.373,19.162 83.47,18.72 L85.12,11.253 C85.12,11.253 85.251,10.82 84.937,10.82 M72.754,22.075 C72.303,22.075 71.84,22.436 71.743,22.881 L70.462,28.534 L67.607,41.588 C67.607,41.588 66.088,48.528 65.942,48.962 C65.942,48.962 64.663,53.973 61.607,53.772 C60.185,53.678 58.56,53.352 58.56,53.352 L58.556,53.352 C57.701,53.094 57.641,53.981 57.537,54.424 L55.652,62.557 C55.543,63.002 55.835,63.403 56.287,63.409 C56.287,63.409 60.373,63.985 63.259,63.985 L63.733,63.985 C70.862,63.985 74.628,59.793 77.035,48.412 L79.857,35.238 L82.503,22.98 C82.601,22.534 82.331,22.12 81.876,22.12 M118.082,31.315 L116.242,37.604 C116.115,38.045 115.596,38.339 115.14,38.339 L105.648,38.339 C98.445,38.339 96.694,32.772 98.445,24.466 C100.203,15.975 103.686,10.721 110.77,10.189 C120.456,9.459 122.438,16.299 120.09,24.162 L118.082,31.315 Z M126.517,37.979 C126.517,37.979 130.989,27.116 132.003,20.838 C133.392,12.436 129.189,0.251 112.938,0.251 C96.784,0.251 89.774,11.884 87.091,24.531 C84.418,37.27 87.917,48.361 103.982,48.271 L128.502,48.256 C128.954,48.254 129.425,47.889 129.541,47.454 L131.608,39.583 C131.72,39.138 131.44,38.778 130.981,38.776 L129.006,38.761 L127.032,38.752 C126.644,38.749 126.42,38.496 126.472,38.163 C126.479,38.102 126.487,38.042 126.517,37.979 L126.517,37.979 Z M149.718,10.85 C150.169,10.85 150.468,11.011 150.386,11.457 L150.386,11.457 L150.377166,11.5004186 C150.283853,11.9590609 149.465948,15.9790916 148.624667,20.1125146 L148.466824,20.8880184 C147.572769,25.2805298 146.7018,29.5577714 146.695,29.584 C145.511,35.036 144.847,38.672 150.603,38.672 L150.603,38.672 L156.421,38.672 C156.877,38.672 157.329,38.703 157.422,38.258 L157.422,38.258 L160.337,25.148 L163.263,11.457 C163.353,11.009 163.816,10.85 164.267,10.85 L164.267,10.85 L173.121,10.85 C173.275,10.85 173.139,11.268 173.139,11.268 L173.139,11.268 L169.302,29.51 L165.451,47.676 C165.353,48.118 164.902,48.268 164.443,48.268 C164.443,48.268 164.439162,48.2680015 164.431598,48.2680045 L161.666953,48.2689844 C161.568906,48.2690165 161.46893,48.2690491 161.367137,48.269082 L158.259073,48.2699962 C158.133671,48.2700293 158.007463,48.270062 157.880561,48.2700944 L153.206322,48.2709921 C153.078934,48.2710063 152.9522,48.2710194 152.826232,48.2710313 L149.693054,48.2710054 C149.589967,48.2709898 149.488656,48.2709724 149.389234,48.2709531 L147.423251,48.2700924 C147.361237,48.2700385 147.30201,48.2699822 147.245682,48.2699235 L146.716107,48.2690942 C146.684772,48.2690145 146.656785,48.2689319 146.632258,48.2688465 L146.527531,48.2682998 L146.527531,48.2682998 L146.508,48.268 C135.15,47.984 135.201,39.366 136.893,29.571 L136.893,29.571 L140.287,11.457 C140.375,11.011 140.828,10.85 141.283,10.85 L141.283,10.85 Z M195.523,10.765 C210.17873,10.765 210.475385,21.8177523 208.353466,32.0785867 L208.219234,32.7121637 L208.219234,32.7121637 L208.15,33.028 C208.15,33.028 208.118,33.616 207.113,33.621 L207.113,33.621 L184.225,33.621 C183.77,33.621 183.285,34.7 183.289,35.124 C183.101,38.846 185.028,40.504 190.41,40.504 L190.41,40.504 L205.269,40.504 C205.72,40.504 206.023,40.636 205.929,41.084 L205.929,41.084 L204.305,47.411 C204.215,47.853 203.767,48.263 203.32,48.271 L203.32,48.271 L188.206,48.271 C171.685,48.271 171.504,40.388 173.625,30.415 C173.6886,30.12157 173.753722,29.8280608 173.820648,29.5347412 L173.956991,28.9484346 C174.049601,28.5578383 174.145754,28.1678978 174.24612,27.7792503 L174.399912,27.1973284 C176.730508,18.5822349 181.31237,10.765 195.523,10.765 Z M193.59,19.824 C189.04,19.824 186.169,21.731 185.207,25.068 C185.17,25.193 185.138,25.695 185.138977,25.71 C185.169,26.141 185.292,26.744 185.722,26.744 L185.722,26.744 L198.169,26.834 C198.169,26.834 199.732,26.929 199.732,26.434 L199.732,26.434 L199.804,25.18 C199.804,22.364 198.71,19.824 193.59,19.824 Z" id="Combined-Shape" fill="#2E2F2C"></path>
    </g>
</svg>