<?xml version="1.0" encoding="UTF-8"?>
<svg width="279px" height="71px" viewBox="0 0 279 71" version="1.1" xmlns="http://www.w3.org/2000/svg" xmlns:xlink="http://www.w3.org/1999/xlink">
    <title>jquery</title>
    <g id="Page-1" stroke="none" stroke-width="1" fill="none" fill-rule="evenodd">
        <g id="jquery" transform="translate(-0.000037, 0.251000)" fill-rule="nonzero">
            <path d="M107.212037,62.985 C107.191037,63.597 107.149037,64.228 107.069037,64.898 L109.559037,60.384 L109.285037,58.912 L111.785037,58.53 L112.694037,64.783 L113.844037,60.863 C113.935037,60.48 113.982037,60.194 113.993037,59.907 C114.002037,59.62 113.975037,59.314 113.875037,58.893 L116.493037,58.396 C116.588037,58.931 116.649037,59.391 116.633037,59.868 C116.610037,60.499 116.452037,61.187 116.014037,62.22 L113.906037,67.881 L110.789037,67.881 L110.133037,63.655 L107.692037,67.881 L104.670037,67.881 C104.789037,63.941 104.646037,61.475 104.373037,58.893 L106.968037,58.492 C107.166037,59.926 107.269037,61.36 107.212037,62.985 M123.490037,58.396 L123.443037,60.825 C122.235037,61.475 121.787037,61.724 120.693037,62.393 L119.526037,67.881 L116.831037,67.881 L118.734037,58.797 L121.119037,58.396 L121.017037,59.658 C121.935037,59.123 122.675037,58.74 123.490037,58.396 Z M127.830037,58.396 L125.816037,67.881 L123.121037,67.881 L125.043037,58.778 L127.830037,58.396 Z M128.700037,54.285 L128.083037,57.153 L125.316037,57.536 L125.914037,54.666 L128.700037,54.285 Z M133.802037,55.948 L133.252037,58.568 L135.470037,58.568 L134.859037,60.729 L132.794037,60.729 L131.810037,65.375 C131.788037,65.471 131.765037,65.567 131.763037,65.624 C131.759037,65.758 131.833037,65.816 132.025037,65.816 C132.484037,65.816 133.005037,65.624 133.491037,65.433 L133.960037,67.307 C133.181037,67.727 132.060037,68.072 130.970037,68.072 C129.613037,68.072 128.909037,67.422 128.948037,66.313 C128.952037,66.179 128.977037,66.045 129.000037,65.911 L130.099037,60.729 L128.723037,60.729 L129.180037,58.568 L130.557037,58.568 L131.017037,56.331 L133.802037,55.948 Z M140.410037,58.377 C142.168037,58.377 143.480037,59.141 143.425037,60.71 C143.362037,62.527 142.396037,63.368 140.078037,64.056 C139.469504,64.2394667 139.180117,64.3250844 138.919668,64.3970489 L138.725222,64.4497778 C138.560148,64.4937778 138.378037,64.5406667 138.108037,64.611 L137.970037,65.261 C137.901037,65.605 137.928037,65.911 138.425037,65.911 C139.401037,65.911 140.833037,65.433 142.114037,64.879 L142.563037,66.791 C141.410037,67.498 139.612037,68.072 137.968037,68.072 C136.037037,68.072 135.244037,67.231 135.299037,65.643 C135.311037,65.299 135.364037,64.917 135.454037,64.515 L136.004037,61.895 C136.460037,59.753 137.465037,58.377 140.410037,58.377 Z M140.146037,60.461 C139.170037,60.461 138.864037,61.016 138.704037,61.781 L138.567037,62.431 C139.030037,62.316 139.241037,62.278 139.801037,62.105 C140.536037,61.895 140.891037,61.551 140.911037,60.996 C140.922037,60.671 140.643037,60.461 140.146037,60.461 Z M157.921037,58.377 C159.680037,58.377 160.992037,59.141 160.937037,60.71 C160.874037,62.527 159.908037,63.368 157.589037,64.056 C156.981037,64.2394667 156.691899,64.3250844 156.431566,64.3970489 L156.237185,64.4497778 C156.072148,64.4937778 155.890037,64.5406667 155.620037,64.611 L155.482037,65.261 C155.413037,65.605 155.440037,65.911 155.937037,65.911 C156.913037,65.911 158.344037,65.433 159.625037,64.879 L160.075037,66.791 C158.921037,67.498 157.124037,68.072 155.480037,68.072 C153.548037,68.072 152.755037,67.231 152.811037,65.643 C152.823037,65.299 152.875037,64.917 152.965037,64.515 L153.516037,61.895 C153.972037,59.753 154.977037,58.377 157.921037,58.377 Z M153.167037,54.38 L150.325037,67.881 L147.629037,67.881 L150.381037,54.762 L153.167037,54.38 Z M157.658037,60.461 C156.682037,60.461 156.375037,61.016 156.215037,61.781 L156.079037,62.431 C156.542037,62.316 156.752037,62.278 157.313037,62.105 C158.047037,61.895 158.403037,61.551 158.422037,60.996 C158.434037,60.671 158.155037,60.461 157.658037,60.461 Z M161.160037,67.46 L161.746037,65.471 C162.444037,65.72 163.239037,65.949 164.252037,65.949 C165.151037,65.949 165.217037,65.682 165.309037,65.242 C165.400037,64.821 165.140037,64.592 164.108037,64.037 C162.195037,63.004 162.142037,62.316 162.440037,60.92 C162.873037,58.912 163.485037,58.377 166.066037,58.377 C166.945037,58.377 168.066037,58.568 168.823037,58.816 L168.311037,60.844 C167.629037,60.652 166.623037,60.499 165.972037,60.499 C165.169037,60.499 165.050037,60.595 164.937037,61.092 C164.846037,61.532 164.938037,61.628 165.820037,62.105 C167.921037,63.253 168.233037,63.655 167.914037,65.127 C167.458037,67.231 166.817037,68.072 164.025037,68.072 C163.165037,68.072 161.969037,67.823 161.160037,67.46 M180.164037,64.707 L179.434037,68.11 L177.218037,70.749 L176.271037,69.965 L177.817037,67.881 L176.803037,67.881 L177.468037,64.707 L180.164037,64.707 Z M173.791037,58.377 C174.669037,58.377 175.791037,58.568 176.547037,58.816 L176.036037,60.844 C175.354037,60.652 174.347037,60.499 173.697037,60.499 C172.894037,60.499 172.775037,60.595 172.662037,61.092 C172.571037,61.532 172.663037,61.628 173.544037,62.105 C175.646037,63.253 175.958037,63.655 175.638037,65.127 C175.182037,67.231 174.542037,68.072 171.750037,68.072 C170.889037,68.072 169.694037,67.823 168.884037,67.46 L169.470037,65.471 C170.168037,65.72 170.963037,65.949 171.977037,65.949 C172.875037,65.949 172.942037,65.682 173.034037,65.242 C173.125037,64.821 172.865037,64.592 171.833037,64.037 C169.919037,63.004 169.867037,62.316 170.165037,60.92 C170.597037,58.912 171.209037,58.377 173.791037,58.377 Z M196.125037,54.38 L193.284037,67.881 L191.008037,67.881 L190.959037,67.078 C190.271037,67.632 189.300037,68.072 187.961037,68.072 C185.935037,68.072 185.481037,66.848 185.917037,64.764 L186.444037,62.259 C186.904037,60.041 187.536037,58.377 191.455037,58.377 C191.742037,58.377 192.333037,58.415 192.580037,58.473 L193.359037,54.762 L196.125037,54.38 Z M201.300037,58.377 C203.805037,58.377 204.882037,59.811 204.825037,61.475 C204.817037,61.685 204.790037,61.915 204.744037,62.144 L204.287037,64.305 C203.806037,66.542 202.682037,68.072 199.298037,68.072 C196.927037,68.072 195.734037,66.657 195.792037,64.955 C195.800037,64.745 195.828037,64.515 195.874037,64.305 L196.332037,62.144 C196.834037,59.753 198.050037,58.377 201.300037,58.377 Z M191.051037,60.633 C189.655037,60.633 189.342037,61.379 189.139037,62.278 L188.544037,65.089 C188.431037,65.586 188.557037,65.816 189.035037,65.816 C189.991037,65.816 190.696037,65.318 191.228037,64.859 L192.099037,60.71 C191.795037,60.652 191.433037,60.633 191.051037,60.633 Z M200.858037,60.633 C199.844037,60.633 199.233037,61.149 199.049037,62.067 L198.567037,64.381 C198.542037,64.515 198.519037,64.649 198.515037,64.764 C198.492037,65.433 198.899037,65.816 199.779037,65.816 C200.811037,65.816 201.402037,65.299 201.587037,64.381 L202.070037,62.067 C202.093037,61.934 202.117037,61.8 202.121037,61.685 C202.145037,60.996 201.738037,60.633 200.858037,60.633 Z M221.283037,61.551 C221.306037,61.436 221.329037,61.341 221.331037,61.264 C221.337037,61.073 221.245037,60.996 220.977037,60.996 C220.480037,60.996 219.296037,61.494 218.518037,61.895 L217.257037,67.881 L214.581037,67.881 L215.911037,61.551 C215.933037,61.436 215.957037,61.341 215.958037,61.264 C215.965037,61.073 215.873037,60.996 215.605037,60.996 C215.108037,60.996 213.905037,61.494 213.165037,61.876 L211.904037,67.881 L209.208037,67.881 L211.113037,58.797 L213.497037,58.396 L213.442037,59.428 C214.919037,58.74 216.079037,58.377 217.150037,58.377 C218.067037,58.377 218.531037,58.778 218.717037,59.467 C220.161037,58.644 221.452037,58.377 222.522037,58.377 C223.765037,58.377 224.199037,59.084 224.158037,60.27 C224.146037,60.595 224.114037,60.958 224.025037,61.341 L222.649037,67.881 L219.953037,67.881 L221.283037,61.551 M231.390037,61.685 C231.415037,60.996 231.007037,60.633 230.127037,60.633 C229.114037,60.633 228.502037,61.149 228.319037,62.067 L227.836037,64.381 C227.812037,64.515 227.789037,64.649 227.785037,64.764 C227.761037,65.433 228.168037,65.816 229.048037,65.816 C230.081037,65.816 230.671037,65.299 230.857037,64.381 L231.339037,62.067 C231.363037,61.934 231.386037,61.8 231.390037,61.685 Z M225.062037,64.955 C225.070037,64.745 225.097037,64.515 225.143037,64.305 L225.601037,62.144 C226.104037,59.753 227.320037,58.377 230.570037,58.377 C233.075037,58.377 234.152037,59.811 234.094037,61.475 C234.086037,61.685 234.059037,61.915 234.013037,62.144 L233.556037,64.305 C233.076037,66.542 231.952037,68.072 228.568037,68.072 C226.197037,68.072 225.003037,66.657 225.062037,64.955 L225.062037,64.955 Z M246.266037,58.377 C248.025037,58.377 249.336037,59.141 249.282037,60.71 C249.218037,62.527 248.252037,63.368 245.933037,64.056 C244.793037,64.4 244.775037,64.4 243.964037,64.611 L243.827037,65.261 C243.757037,65.605 243.785037,65.911 244.282037,65.911 C245.257037,65.911 246.689037,65.433 247.970037,64.879 L248.419037,66.791 C247.266037,67.498 245.468037,68.072 243.825037,68.072 C241.893037,68.072 241.100037,67.231 241.156037,65.643 C241.167037,65.299 241.220037,64.917 241.310037,64.515 L241.861037,61.895 C242.317037,59.753 243.322037,58.377 246.266037,58.377 Z M241.294037,58.396 L241.248037,60.825 C240.040037,61.475 239.591037,61.724 238.498037,62.393 L237.331037,67.881 L234.635037,67.881 L236.540037,58.797 L238.923037,58.396 L238.822037,59.658 C239.740037,59.123 240.480037,58.74 241.294037,58.396 Z M246.002037,60.461 C245.027037,60.461 244.720037,61.016 244.560037,61.781 L244.423037,62.431 C244.886037,62.316 245.097037,62.278 245.658037,62.105 C246.392037,61.895 246.748037,61.551 246.767037,60.996 C246.779037,60.671 246.500037,60.461 246.002037,60.461 Z" id="Combined-Shape" fill="#2B94C2"></path>
            <path d="M6.82403654,8.933 C2.81103654,16.684 4.62103654,26.128 9.63803654,32.972 C9.82103654,33.224 10.0030365,33.468 10.1940365,33.713 C10.2530365,33.788 10.3130365,33.86 10.3660365,33.937 C10.5300365,34.135 10.6900365,34.334 10.8510365,34.532 C10.9110365,34.599 10.9660365,34.67 11.0260365,34.739 C11.2470365,34.997 11.4670365,35.251 11.6940365,35.501 C11.7060365,35.514 11.7170365,35.525 11.7280365,35.535 C11.9440365,35.773 12.1650365,36.006 12.3890365,36.232 C12.4590365,36.303 12.5270365,36.373 12.6020365,36.447 C12.7770365,36.624 12.9560365,36.796 13.1350365,36.971 C13.2100365,37.039 13.2730365,37.104 13.3480365,37.175 C13.5940365,37.403 13.8440365,37.632 14.0940365,37.856 C14.1210365,37.876 14.1540365,37.897 14.1760365,37.921 C14.4120365,38.126 14.6430365,38.325 14.8890365,38.522 C14.9720365,38.589 15.0570365,38.657 15.1400365,38.726 C15.3300365,38.879 15.5200365,39.024 15.7100365,39.172 C15.8080365,39.243 15.9010365,39.313 15.9910365,39.384 C16.2030365,39.54 16.4120365,39.69 16.6250365,39.84 C16.7000365,39.892 16.7700365,39.944 16.8410365,39.995 C17.0620365,40.144 17.2860365,40.295 17.5130365,40.439 C17.5950365,40.496 17.6780365,40.553 17.7670365,40.609 C18.0770365,40.807 18.3940365,40.999 18.7070365,41.186 C18.7930365,41.232 18.8750365,41.275 18.9500365,41.326 C19.1930365,41.46 19.4360365,41.598 19.6780365,41.729 C19.8090365,41.801 19.9430365,41.867 20.0810365,41.937 C20.2790365,42.042 20.4800365,42.148 20.6820365,42.244 C20.7610365,42.283 20.8310365,42.32 20.9100365,42.353 C21.1670365,42.477 21.4210365,42.596 21.6860365,42.718 C21.7490365,42.744 21.8060365,42.772 21.8730365,42.796 C22.1750365,42.929 22.4850365,43.061 22.7980365,43.184 C22.8770365,43.214 22.9590365,43.242 23.0380365,43.276 C23.3210365,43.386 23.6050365,43.494 23.8920365,43.593 C23.9370365,43.612 23.9850365,43.628 24.0300365,43.643 C24.3480365,43.751 24.6720365,43.858 25.0000365,43.957 C25.0790365,43.985 25.1680365,44.011 25.2470365,44.033 C25.5870365,44.134 25.9190365,44.241 26.2550365,44.317 C35.2950365,46.374 44.8390365,44.524 50.2170365,37.524 L50.2170365,37.524 L50.1857209,37.6043677 C49.6799453,38.8705232 42.9347165,54.62036 21.7830365,50.765 C21.4360365,50.7 21.1080365,50.58 20.7680365,50.478 C20.6860365,50.457 20.6070365,50.429 20.5290365,50.407 C20.1970365,50.304 19.8720365,50.198 19.5440365,50.085 C19.5060365,50.073 19.4730365,50.062 19.4360365,50.046 C19.1410365,49.94 18.8420365,49.83 18.5550365,49.718 C18.4760365,49.692 18.4020365,49.658 18.3270365,49.63 C18.0100365,49.505 17.7000365,49.376 17.3900365,49.242 C17.3340365,49.214 17.2780365,49.192 17.2260365,49.167 C16.9500365,49.044 16.6810365,48.923 16.4190365,48.794 C16.3530365,48.761 16.2850365,48.725 16.2140365,48.693 C16.1770365,48.673 16.1360365,48.658 16.0950365,48.641 C15.9230365,48.553 15.7550365,48.464 15.5950365,48.376 C15.4600365,48.309 15.3300365,48.246 15.1990365,48.173 C14.9600365,48.046 14.7250365,47.913 14.4940365,47.779 C14.4080365,47.729 14.3180365,47.678 14.2290365,47.631 C13.9190365,47.445 13.6050365,47.252 13.2920365,47.053 C13.2060365,46.995 13.1200365,46.939 13.0310365,46.881 C12.8290365,46.749 12.6350365,46.618 12.4300365,46.484 C12.4110365,46.469 12.3890365,46.453 12.3700365,46.437 C12.2910365,46.387 12.2170365,46.333 12.1420365,46.278 C11.9370365,46.133 11.7280365,45.985 11.5260365,45.834 C11.4260365,45.758 11.3290365,45.683 11.2310365,45.61 C11.0450365,45.468 10.8580365,45.327 10.6720365,45.179 C10.5820365,45.106 10.4930365,45.036 10.4030365,44.961 C10.1790365,44.776 9.95803654,44.589 9.73903654,44.401 C9.70103654,44.366 9.65603654,44.33 9.61503654,44.294 C9.61203654,44.291 9.60803654,44.289 9.60403654,44.285 C9.35403654,44.071 9.11503654,43.847 8.87603654,43.623 C8.80503654,43.554 8.73103654,43.485 8.65603654,43.414 C8.47303654,43.242 8.30103654,43.067 8.13003654,42.893 C8.05103654,42.818 7.98003654,42.749 7.91003654,42.678 C7.68603654,42.447 7.46503654,42.214 7.24903654,41.977 C7.23403654,41.967 7.22703654,41.958 7.21903654,41.949 C7.21503654,41.943 7.20803654,41.937 7.20803654,41.934 C6.98403654,41.687 6.76403654,41.437 6.55503654,41.186 C6.49103654,41.115 6.43203654,41.041 6.37203654,40.973 C6.21503654,40.78 6.05803654,40.586 5.89803654,40.392 C5.83803654,40.312 5.77103654,40.23 5.71103654,40.148 C5.53603654,39.926 5.36803654,39.702 5.20003654,39.472 C5.17003654,39.431 5.13603654,39.388 5.10603654,39.343 C5.09903654,39.34 5.09203654,39.333 5.09203654,39.325 C4.89403654,39.06 4.71403654,38.791 4.53603654,38.519 C4.47603654,38.435 4.42303654,38.351 4.36803654,38.265 C4.24403654,38.063 4.10603654,37.864 3.98703654,37.662 C3.91603654,37.558 3.85603654,37.453 3.79203654,37.349 C3.68103654,37.162 3.56903654,36.97 3.45703654,36.781 C3.39703654,36.673 3.33703654,36.568 3.28103654,36.455 C3.24803654,36.398 3.20703654,36.335 3.18103654,36.277 C3.12103654,36.173 3.06503654,36.066 3.01603654,35.96 C2.93103654,35.796 2.84103654,35.635 2.76303654,35.465 C-0.723963463,28.508 -1.28696346,19.991 3.27003654,13.444 L3.27003654,13.444 L6.82403654,8.933 Z M20.1000365,4.125 C17.9130365,7.826 17.6330365,12.389 18.9020365,16.454 C20.1030365,20.368 22.6420365,23.824 25.8520365,26.351 C25.9190365,26.407 25.9860365,26.459 26.0570365,26.517 C26.3590365,26.745 26.6620365,26.972 26.9710365,27.187 C27.1240365,27.29 27.2700365,27.385 27.4190365,27.48 C27.4900365,27.524 27.5540365,27.573 27.6280365,27.616 C27.8450365,27.76 28.0800365,27.898 28.3080365,28.036 C28.3520365,28.062 28.3970365,28.084 28.4420365,28.109 C28.6280365,28.219 28.8110365,28.327 29.0090365,28.43 C29.0880365,28.471 29.1740365,28.514 29.2630365,28.559 C29.4130365,28.637 29.5580365,28.711 29.7070365,28.788 C29.9980365,28.928 30.2970365,29.068 30.6000365,29.199 C30.6550365,29.228 30.7230365,29.252 30.7930365,29.281 C31.0290365,29.385 31.2710365,29.478 31.5140365,29.574 C31.6150365,29.613 31.7190365,29.65 31.8200365,29.687 C32.0400365,29.77 32.2680365,29.846 32.4960365,29.919 C32.5930365,29.953 32.6820365,29.984 32.7830365,30.01 C33.0970365,30.113 33.4170365,30.207 33.7460365,30.291 C41.0620365,32.19 47.9180365,29.76 51.4600365,24.658 C51.4600365,24.658 51.4564959,24.6697891 51.449168,24.6925838 L51.4293894,24.7526152 C51.033959,25.9281025 46.6757865,37.616 30.5210365,34.937 C30.1890365,34.885 29.8720365,34.758 29.5580365,34.659 C29.4610365,34.627 29.3640365,34.598 29.2560365,34.562 C29.0360365,34.489 28.8110365,34.413 28.5910365,34.334 C28.4910365,34.299 28.3900365,34.256 28.2820365,34.221 C28.0420365,34.129 27.8000365,34.028 27.5610365,33.926 C27.4940365,33.898 27.4340365,33.874 27.3630365,33.846 C27.0720365,33.713 26.7770365,33.581 26.4860365,33.437 C26.4640365,33.427 26.4370365,33.416 26.4190365,33.407 C26.2810365,33.334 26.1390365,33.259 25.9970365,33.188 C25.9260365,33.149 25.8550365,33.116 25.7850365,33.073 C25.5790365,32.968 25.3740365,32.853 25.1800365,32.735 C25.1460365,32.718 25.1130365,32.7 25.0790365,32.683 C24.8480365,32.546 24.6230365,32.409 24.3960365,32.261 C24.3320365,32.222 24.2650365,32.173 24.2020365,32.132 C24.0560365,32.039 23.9150365,31.949 23.7800365,31.853 C23.7650365,31.847 23.7580365,31.839 23.7470365,31.835 C23.4370365,31.615 23.1310365,31.392 22.8320365,31.158 C22.7610365,31.108 22.6980365,31.052 22.6270365,31.001 C22.3250365,30.766 22.0330365,30.525 21.7460365,30.271 C21.7460365,30.271 21.7420365,30.268 21.7390365,30.266 C21.7310365,30.257 21.7160365,30.248 21.7080365,30.238 C21.4510365,30.01 21.2010365,29.777 20.9550365,29.54 C20.8880365,29.473 20.8240365,29.411 20.7610365,29.348 L20.5060735,29.0923333 C20.3383698,28.9218889 20.1757032,28.751 20.0210365,28.577 C19.3610365,28.008 18.8160365,27.168 18.3230365,26.459 C17.7780365,25.685 17.2930365,24.869 16.8680365,24.029 C14.2960365,19.013 14.1130365,12.666 17.4160365,7.925 L17.4160365,7.925 L20.1000365,4.125 Z M30.7600365,1.8 C28.0730365,6.654 30.6250365,12.613 34.7460365,15.737 C35.4700365,16.286 36.2540365,16.76 37.0640365,17.154 C37.4970365,17.357 37.9410365,17.542 38.3890365,17.701 C38.7400365,17.828 39.1360365,17.958 39.4980365,18.046 C44.1000365,19.163 47.8510365,18.393 50.0870365,15.179 C49.4040365,16.155 46.8580365,22.79 37.4630365,20.976 C37.2580365,20.937 37.0610365,20.862 36.8630365,20.8 C36.7950365,20.78 36.7360365,20.759 36.6720365,20.741 C36.5300365,20.692 36.3920365,20.647 36.2540365,20.593 C32.8570365,19.349 29.9420365,16.719 28.5170365,13.367 C27.1730365,10.213 27.3600365,6.662 29.3080365,3.803 L29.3080365,3.803 L30.7600365,1.8 Z" id="Combined-Shape" fill="#2B94C2"></path>
            <path d="M277.966037,4.312 C278.421037,4.312 278.461037,4.746 278.181037,5.108 L278.181037,5.108 L253.272037,38.142 C253.000037,38.51 252.683037,39.111 252.571037,39.552 L252.571037,39.552 L250.519037,47.47 C250.408037,47.915 249.937037,48.046 249.482037,48.046 L249.482037,48.046 L239.796037,48.046 C239.333037,48.046 239.053037,47.912 239.162037,47.47 L239.162037,47.47 L241.212037,39.662 C241.325037,39.22 241.314037,38.499 241.187037,38.058 L241.187037,38.058 L236.790037,22.642 C236.670037,22.201 236.943037,21.824 237.394037,21.824 L237.394037,21.824 L247.204037,21.824 C247.667037,21.824 248.122037,22.188 248.218037,22.634 L248.218037,22.634 L249.346037,27.556 C249.447037,27.999 249.742037,28.013 250.002037,27.636 L250.002037,27.636 L265.265037,5.181 C265.519037,4.804 266.105037,4.315 266.560037,4.315 C266.560037,4.315 266.564104,4.31500247 266.572063,4.31500724 L268.236018,4.31589021 C268.312067,4.31592658 268.389898,4.31596329 268.469336,4.31600016 L271.158859,4.31699111 C271.252865,4.31701481 271.34672,4.31703704 271.44025,4.31705761 L273.972615,4.31701646 C274.042052,4.31698765 274.109406,4.31695556 274.174501,4.31692 L274.95954,4.31610683 C274.997652,4.31603259 275.032627,4.31595407 275.064288,4.31587111 L275.213091,4.31531868 L275.213091,4.31531868 L275.255037,4.315 L277.966037,4.312 Z M238.888037,10.569 C243.594037,10.569 245.688037,11.924 246.427037,14.791 L246.427037,14.791 L247.364037,18.752 C247.468037,19.197 247.181037,19.559 246.729037,19.559 L246.729037,19.559 L227.123037,19.572 C226.667037,19.572 226.219037,19.936 226.123037,20.38 L226.123037,20.38 L223.163037,34.231 L220.740037,46.718 C220.647037,47.167 220.535037,47.846 220.281037,47.951 C220.039037,48.048 219.206037,48.014 218.747037,48.014 L218.747037,48.014 L211.890037,48.014 C211.439037,48.014 210.558037,48.057 210.505037,47.828 C210.454037,47.605 210.483037,47.285 210.581037,46.834 L210.581037,46.834 L218.090037,11.22 C218.183037,10.774 218.638037,10.569 219.094037,10.569 L219.094037,10.569 L238.888037,10.569 Z M84.9370365,10.569 L75.4450365,10.569 C74.9900365,10.569 74.5310365,10.677 74.4300365,11.125 L72.7170365,18.536 C72.6200365,18.975 72.9110365,19.325 73.3700365,19.325 L82.4580365,19.325 C82.9180365,19.325 83.3730365,18.911 83.4700365,18.469 L85.1200365,11.002 C85.1200365,11.002 85.2510365,10.569 84.9370365,10.569 M72.7540365,21.824 C72.3030365,21.824 71.8400365,22.185 71.7430365,22.63 L70.4620365,28.283 L67.6070365,41.337 C67.6070365,41.337 66.0880365,48.277 65.9420365,48.711 C65.9420365,48.711 64.6630365,53.722 61.6070365,53.521 C60.1850365,53.427 58.5600365,53.101 58.5600365,53.101 L58.5560365,53.101 C57.7010365,52.843 57.6410365,53.73 57.5370365,54.173 L55.6520365,62.306 C55.5430365,62.751 55.8350365,63.152 56.2870365,63.158 C56.2870365,63.158 60.3730365,63.734 63.2590365,63.734 L63.7330365,63.734 C70.8620365,63.734 74.6280365,59.542 77.0350365,48.161 L79.8570365,34.987 L82.5030365,22.729 C82.6010365,22.283 82.3310365,21.869 81.8760365,21.869 M118.082037,31.064 L116.242037,37.353 C116.115037,37.794 115.596037,38.088 115.140037,38.088 L105.648037,38.088 C98.4450365,38.088 96.6940365,32.521 98.4450365,24.215 C100.203037,15.724 103.686037,10.47 110.770037,9.938 C120.456037,9.208 122.438037,16.048 120.090037,23.911 L118.082037,31.064 Z M126.517037,37.728 C126.517037,37.728 130.989037,26.865 132.003037,20.587 C133.392037,12.185 129.189037,3.55271368e-15 112.938037,3.55271368e-15 C96.7840365,3.55271368e-15 89.7740365,11.633 87.0910365,24.28 C84.4180365,37.019 87.9170365,48.11 103.982037,48.02 L128.502037,48.005 C128.954037,48.003 129.425037,47.638 129.541037,47.203 L131.608037,39.332 C131.720037,38.887 131.440037,38.527 130.981037,38.525 L129.006037,38.51 L127.032037,38.501 C126.644037,38.498 126.420037,38.245 126.472037,37.912 C126.479037,37.851 126.487037,37.791 126.517037,37.728 L126.517037,37.728 Z M149.718037,10.599 C150.169037,10.599 150.468037,10.76 150.386037,11.206 L150.386037,11.206 L150.377203,11.2494186 C150.28389,11.7080609 149.465985,15.7280916 148.624704,19.8615146 L148.466861,20.6370184 C147.572806,25.0295298 146.701837,29.3067714 146.695037,29.333 C145.511037,34.785 144.847037,38.421 150.603037,38.421 L150.603037,38.421 L156.421037,38.421 C156.877037,38.421 157.329037,38.452 157.422037,38.007 L157.422037,38.007 L160.337037,24.897 L163.263037,11.206 C163.353037,10.758 163.816037,10.599 164.267037,10.599 L164.267037,10.599 L173.121037,10.599 C173.275037,10.599 173.139037,11.017 173.139037,11.017 L173.139037,11.017 L169.302037,29.259 L165.451037,47.425 C165.353037,47.867 164.902037,48.017 164.443037,48.017 C164.443037,48.017 164.439199,48.0170015 164.431635,48.0170045 L161.66699,48.0179844 C161.568943,48.0180165 161.468967,48.0180491 161.367174,48.018082 L158.25911,48.0189962 C158.133708,48.0190293 158.0075,48.019062 157.880598,48.0190944 L153.206359,48.0200313 C153.078971,48.0200313 152.952237,48.0200313 152.826269,48.0200313 L149.693091,48.0200313 C149.590004,48.0200313 149.488693,48.0200313 149.389271,48.0200313 L147.423288,48.0190924 C147.361274,48.0190385 147.302047,48.0189822 147.245719,48.0189235 L146.716144,48.0180942 C146.684809,48.0180145 146.656822,48.0179319 146.632295,48.0178465 L146.527568,48.0172998 L146.527568,48.0172998 L146.508037,48.017 C135.150037,47.733 135.201037,39.115 136.893037,29.32 L136.893037,29.32 L140.287037,11.206 C140.375037,10.76 140.828037,10.599 141.283037,10.599 L141.283037,10.599 L149.718037,10.599 Z M195.523037,10.514 C210.178767,10.514 210.475422,21.5667523 208.353503,31.8275867 L208.219271,32.4611637 L208.219271,32.4611637 L208.150037,32.777 C208.150037,32.777 208.118037,33.365 207.113037,33.37 L207.113037,33.37 L184.225037,33.37 C183.770037,33.37 183.285037,34.449 183.289037,34.873 C183.101037,38.595 185.028037,40.253 190.410037,40.253 L190.410037,40.253 L205.269037,40.253 C205.720037,40.253 206.023037,40.385 205.929037,40.833 L205.929037,40.833 L204.305037,47.16 C204.215037,47.602 203.767037,48.012 203.320037,48.02 L203.320037,48.02 L188.206037,48.02 C171.685037,48.02 171.504037,40.137 173.625037,30.164 C173.688637,29.87057 173.753759,29.5770608 173.820685,29.2837412 L173.957028,28.6974346 C174.049638,28.3068383 174.145791,27.9168978 174.246157,27.5282503 L174.399949,26.9463284 C176.730545,18.3312349 181.312407,10.514 195.523037,10.514 Z M193.590037,19.573 C189.040037,19.573 186.169037,21.48 185.207037,24.817 C185.170037,24.942 185.138037,25.444 185.138992,25.459 C185.169037,25.89 185.292037,26.493 185.722037,26.493 L185.722037,26.493 L198.169037,26.583 C198.169037,26.583 199.732037,26.678 199.732037,26.183 L199.732037,26.183 L199.804037,24.929 C199.804037,22.113 198.710037,19.573 193.590037,19.573 Z" id="Combined-Shape" fill="#FFFFFF"></path>
        </g>
    </g>
</svg>