<?xml version="1.0" encoding="UTF-8"?>
<svg width="2280px" height="2265px" viewBox="0 0 2280 2265" version="1.1" xmlns="http://www.w3.org/2000/svg" xmlns:xlink="http://www.w3.org/1999/xlink">
    <title>mysql-5-logo-svg-vector</title>
    <g id="Page-1" stroke="none" stroke-width="1" fill="none" fill-rule="evenodd">
        <g id="mysql-5-logo-svg-vector" transform="translate(0.294881, 0.000000)" fill-rule="nonzero">
            <path d="M0,2158.9184 L75.2246363,2158.9184 L75.2246363,1860.91212 L192.704767,2120.73542 C206.011745,2151.96661 225.116209,2163.54861 262.144888,2163.54861 C299.186536,2163.54861 317.123721,2151.96661 331.014339,2120.73542 L447.91083,1860.91212 L447.91083,2158.9184 L523.719106,2158.9184 L523.719106,1860.91212 C523.719106,1831.98954 512.137106,1818.07298 487.831767,1810.55052 C430.544315,1793.19697 392.348358,1808.2419 374.994812,1847.00853 L259.849239,2103.95254 L148.737264,1847.00853 C131.954388,1808.25487 93.1747909,1793.20994 35.3166698,1810.55052 C11.5949698,1818.07298 0.0129697649,1831.97657 0.0129697649,1860.91212 L0.0129697649,2158.9184 L0,2158.9184 L0,2158.9184 Z M586.207433,1916.46162 L662.015709,1916.46162 L662.015709,2080.23084 C661.445039,2089.47828 664.907967,2110.3207 705.996182,2110.8784 C727.409264,2111.46203 869.181763,2110.8784 870.336073,2110.8784 L870.336073,1915.29434 L946.144348,1915.29434 L946.144348,2183.22374 C946.144348,2249.18797 864.551557,2263.64926 826.3556,2264.2329 L587.932412,2264.2329 L587.932412,2213.89724 L826.926269,2213.89724 C875.536948,2208.68339 869.752433,2184.39102 869.752433,2176.28492 L869.752433,2156.59682 L709.459109,2156.59682 C634.805142,2156.01318 586.778103,2123.03107 586.207433,2085.41875 C586.207433,2081.95582 587.932412,1917.60296 586.207433,1916.46162 Z" id="my" fill="#00678C"></path>
            <path d="M1004.01544,2158.9184 L1221.59621,2158.9184 C1247.05586,2158.9184 1271.37417,2153.7305 1291.03634,2144.45712 C1324.01845,2129.41219 1339.64701,2109.16639 1339.64701,2082.55243 L1339.64701,2027.00293 C1339.64701,2005.60281 1321.70983,1985.33107 1285.84843,1971.45342 C1267.32761,1964.5146 1244.17658,1960.45506 1221.60918,1960.45506 L1130.18531,1960.45506 C1099.51182,1960.45506 1085.05053,1951.18168 1080.99099,1930.94885 C1080.42032,1928.64023 1080.42032,1926.31864 1080.42032,1924.01002 L1080.42032,1889.86063 C1080.42032,1888.10971 1080.42032,1885.81407 1080.99099,1883.50545 C1085.03756,1867.87688 1093.14366,1863.81734 1119.77059,1860.93806 L1342.55224,1860.93806 L1342.55224,1810.57646 L1130.74301,1810.57646 C1100.06952,1810.57646 1083.87028,1812.32738 1069.40899,1816.95758 C1024.84488,1830.83523 1005.16975,1852.83195 1005.16975,1891.58561 L1005.16975,1935.59202 C1005.16975,1969.71547 1043.36571,1998.66399 1108.17562,2005.60281 C1115.11445,2006.18645 1122.63691,2006.18645 1130.15937,2006.18645 L1208.28924,2006.18645 C1211.18149,2006.18645 1214.06078,2006.18645 1216.3694,2006.77009 C1240.10407,2009.07871 1250.51879,2013.12528 1257.45761,2021.78908 C1262.08782,2026.41929 1263.2551,2030.47882 1263.2551,2035.69267 L1263.2551,2079.67314 C1263.2551,2084.86105 1259.7792,2091.83878 1252.84038,2097.61033 C1245.87561,2103.38187 1234.87725,2107.44141 1220.41597,2108.02505 C1217.52371,2108.02505 1215.8117,2108.60869 1212.8935,2108.60869 L1004.01544,2108.60869 L1004.01544,2158.9184 L1004.01544,2158.9184 Z M1810.66997,2071.55407 C1810.66997,2123.057 1849.44956,2151.97958 1926.99579,2157.77707 C1934.51825,2158.3607 1941.45708,2158.9184 1948.97954,2158.9184 L2145.73087,2158.9184 L2145.73087,2108.58275 L1947.25456,2108.58275 C1903.24815,2108.58275 1886.47824,2097.58439 1886.47824,2070.97043 L1886.47824,1810.56349 L1810.657,1810.56349 L1810.657,2071.55407 L1810.66997,2071.55407 L1810.66997,2071.55407 Z M1387.66108,2073.84972 L1387.66108,1894.47787 C1387.66108,1848.75945 1420.05956,1820.96524 1483.15746,1812.30144 C1490.09629,1811.7178 1497.03511,1811.13416 1503.40327,1811.13416 L1646.90074,1811.13416 C1654.42321,1811.13416 1660.80433,1811.7178 1668.3268,1812.30144 C1731.39876,1820.96524 1763.2136,1848.75945 1763.2136,1894.47787 L1763.2136,2073.84972 C1763.2136,2110.8784 1749.91959,2130.5665 1718.64948,2143.88645 L1792.71981,2210.99201 L1705.35548,2210.99201 L1645.1628,2156.60979 L1584.38648,2160.08568 L1503.37733,2160.08568 C1490.08332,2160.08568 1475.02542,2158.3607 1459.39685,2154.31414 C1411.39575,2140.98122 1387.66108,2115.52157 1387.66108,2073.84972 L1387.66108,2073.84972 Z M1469.25388,2069.82909 C1469.25388,2072.13771 1470.42115,2074.43336 1471.00479,2077.35155 C1475.05136,2098.16803 1494.71352,2109.75003 1524.80338,2109.75003 L1593.10216,2109.75003 L1530.61383,2053.03324 L1617.97817,2053.03324 L1672.94403,2102.8112 C1683.38469,2097.01372 1689.73988,2088.90761 1692.0485,2078.49289 C1692.63214,2076.18427 1692.63214,2073.30499 1692.63214,2070.97043 L1692.63214,1899.0951 C1692.63214,1896.78649 1692.63214,1894.49084 1692.0485,1892.15628 C1688.00193,1872.49412 1668.33977,1861.50873 1638.82058,1861.50873 L1524.80338,1861.50873 C1491.23763,1861.50873 1469.25388,1875.97001 1469.25388,1899.0951 L1469.25388,2069.82909 Z M2180.4639,2159.50204 L2191.46226,2159.50204 L2191.46226,2117.27249 L2205.92355,2117.27249 L2205.92355,2108.58275 L2165.41898,2108.58275 L2165.41898,2117.27249 L2180.4639,2117.27249 L2180.4639,2159.50204 L2180.4639,2159.50204 Z M2264.36531,2159.50204 L2274.78003,2159.50204 L2274.78003,2108.58275 L2259.17741,2108.58275 L2246.4411,2143.31578 L2232.56345,2108.58275 L2217.51852,2108.58275 L2217.51852,2159.50204 L2227.3496,2159.50204 L2227.3496,2120.74839 L2227.93324,2120.74839 L2242.39453,2159.50204 L2249.91699,2159.50204 L2264.37828,2120.74839 L2264.37828,2159.50204 L2264.36531,2159.50204 L2264.36531,2159.50204 Z" id="sql" fill="#CE8B2C"></path>
            <path d="M336.082548,68.0772851 C391.873065,-68.6394805 587.03573,34.9022701 662.702547,82.686193 C681.299386,94.6470504 702.51466,119.877914 723.789443,129.160967 C756.995959,130.499869 790.172719,133.14792 823.34948,134.486822 C885.775348,149.065976 944.184299,161.026834 993.279954,188.905748 C1221.61938,322.974463 1370.33458,459.720981 1507.08829,685.400343 C1525.54389,715.643332 1538.18295,747.483402 1551.03293,779.909742 L1552.57632,783.803652 C1559.52963,801.33833 1566.61475,819.032173 1574.78079,836.726017 C1607.95755,913.727755 1645.15122,994.686693 1683.62436,1067.70148 C1687.52793,1075.51493 1691.22598,1083.53084 1694.88896,1091.59564 L1696.04473,1094.14386 C1696.81473,1095.84352 1697.58396,1097.54464 1698.35403,1099.24577 L1699.50996,1101.7973 C1699.70279,1102.22249 1699.89571,1102.64765 1700.08877,1103.07273 L1701.2488,1105.62229 C1711.70635,1128.55791 1722.67773,1151.17033 1738.07591,1169.93408 C1744.03692,1178.45482 1757.10107,1183.14817 1769.91882,1187.52721 L1771.17853,1187.95705 C1771.38826,1188.02856 1771.59787,1188.10002 1771.8073,1188.17144 L1773.06172,1188.59963 C1779.11272,1190.66819 1784.97189,1192.73081 1789.84951,1195.16494 C1833.61903,1217.68825 1886.7316,1234.97496 1927.88268,1261.51497 C2004.88847,1309.2989 2079.27583,1366.39563 2146.96832,1424.80151 C2172.17076,1447.35456 2189.42863,1479.22043 2213.32184,1503.11239 L2213.32184,1515.0435 C2192.04706,1521.6785 2170.83179,1528.3135 2149.557,1533.63936 C2103.10954,1545.57046 2061.98821,1542.95216 2016.82021,1554.85351 C1988.93983,1562.82742 1954.39434,1573.44938 1925.23449,1576.12718 L1927.85293,1578.80498 C1945.1108,1627.92781 2038.03548,1667.73783 2080.52554,1696.95564 C2132.32889,1734.08786 2180.14508,1779.25348 2218.61822,1831.02436 C2231.91868,1844.26461 2245.18939,1856.25522 2258.48985,1869.49547 C2267.74363,1882.82499 2270.42158,1900.08194 2279.70512,1911.98329 L2279.70512,1916 C2268.39623,1911.98329 2260.52035,1904.01663 2252.80551,1896.00076 L2250.74974,1893.86476 C2246.46526,1889.42376 2242.14071,1885.07458 2237.21506,1881.48608 C2207.99571,1861.55132 2178.80611,1837.65936 2149.58676,1819.0635 C2099.15213,1787.19763 2040.74318,1768.60177 1988.96958,1736.76566 C1959.80974,1718.1698 1931.92936,1696.95564 1904.01922,1675.68198 C1878.81678,1657.08612 1850.90665,1621.2928 1834.98776,1594.72304 C1825.67446,1580.08438 1824.395,1562.79767 1813.77248,1552.23522 C1815.60539,1534.59444 1831.78493,1529.30221 1848.14527,1524.96928 L1849.5477,1524.59997 C1856.09134,1522.88501 1862.59915,1521.27147 1868.16452,1519.03045 C1937.19598,1489.81263 2019.55766,1479.19068 2125.72329,1481.83873 C2121.76589,1455.29872 2055.35286,1422.1237 2034.13758,1406.2354 C1991.64753,1375.70843 1946.50928,1343.84257 1901.40079,1315.96365 C1877.44806,1301.3845 1836.32673,1290.73279 1809.75556,1278.80169 C1773.90086,1264.19278 1694.27663,1249.61362 1674.34082,1221.73471 C1640.89865,1178.24717 1616.82028,1126.32006 1593.42888,1073.83618 L1591.75911,1070.08649 C1589.81215,1065.711 1587.86851,1061.33294 1585.9232,1056.95689 L1584.25525,1053.20658 C1582.86476,1050.0819 1581.47267,1046.95891 1580.07717,1043.83927 C1552.2563,980.107539 1517.74056,913.757509 1489.83043,848.686874 C1475.191,816.821008 1468.55564,788.942094 1452.63675,758.415129 C1355.75466,571.236637 1212.33584,414.585109 1038.44796,304.408356 C981.318467,268.555537 917.613136,235.380522 847.242698,212.797709 C826.87371,206.693423 804.425127,205.449059 781.666262,204.446315 L778.561024,204.310641 C757.848827,203.41035 736.946664,202.536254 717.183846,198.218554 L689.273711,198.218554 C665.380492,191.553798 645.444681,166.322935 626.847842,153.052929 C585.696757,125.203768 544.545672,106.607908 495.450018,86.7028988 C478.192152,78.7587473 429.036987,60.1628869 411.779121,74.7717948 C401.216116,77.4198453 395.860227,81.4067978 393.241792,92.0287533 C382.619278,107.94681 391.90282,131.838771 398.538172,146.447679 C409.990659,170.838484 424.045323,189.544078 438.716528,207.844167 L440.349099,209.87611 C440.621583,210.214578 440.894253,210.552975 441.167098,210.891333 L443.627041,213.93642 C452.935297,225.443002 462.400507,237.021389 471.527045,249.98943 C494.111046,281.825543 521.961671,317.678362 537.940075,352.192278 C572.485563,426.545967 588.404457,508.843806 620.242245,583.197494 C632.203732,611.076408 650.741061,642.912521 667.998927,668.143385 C672.878738,674.788305 679.074378,680.838159 685.463976,686.885808 L686.627609,687.985488 L687.794017,689.085912 L688.961704,690.187871 C690.12953,691.290861 691.297024,692.397342 692.457445,693.510877 L693.615257,694.626895 C703.624867,704.321718 712.9343,714.63559 717.154091,727.888165 C733.072985,754.428177 693.201363,842.051871 683.917821,869.930785 C649.402088,978.79839 656.067195,1130.12406 695.879308,1224.38276 C711.798202,1261.54473 726.437633,1305.37145 768.868181,1315.96365 C771.546125,1313.3156 768.868181,1314.65451 774.22407,1313.3156 C783.507612,1240.30082 786.126047,1169.93408 811.358238,1112.8671 C826.027424,1077.04404 855.187268,1051.78342 875.123079,1022.59536 C883.464877,1027.60018 886.551342,1038.93468 889.70217,1050.62475 L890.002614,1051.73897 L890.304468,1052.8542 C890.405435,1053.22598 890.506807,1053.59774 890.608754,1053.96929 L890.916492,1055.08308 C892.413884,1060.46145 894.06805,1065.75442 896.397862,1070.37928 C913.596219,1111.5282 932.193058,1156.66408 953.467841,1197.813 C997.296871,1282.75889 1046.39253,1365.08648 1102.12353,1439.41041 C1120.72037,1465.95043 1147.26178,1495.16824 1171.155,1519.0602 C1175.16349,1522.57447 1179.36266,1525.521 1183.46629,1528.46736 L1184.69423,1529.35184 C1191.0208,1533.92745 1197.0491,1538.63905 1201.71332,1545.60021 L1204.33176,1545.60021 L1204.33176,1549.61692 C1181.63885,1541.3068 1163.68297,1524.3545 1146.54069,1506.88744 L1144.73907,1505.04725 L1142.94245,1503.20537 C1131.27843,1491.23217 1119.8664,1479.285 1107.44967,1469.96713 C1047.70174,1424.83126 975.992332,1357.11257 934.841248,1292.07169 C917.583381,1254.90972 898.986542,1219.05691 880.389704,1181.89494 L880.389704,1179.24689 C872.445134,1189.86884 875.123079,1200.4908 871.106162,1216.40886 C853.848295,1282.78864 867.148754,1358.45148 807.400831,1382.34344 C739.678583,1410.22235 689.243956,1337.20756 667.969172,1304.03255 C600.276679,1193.8558 581.67984,1008.01621 629.496032,857.999681 C632.789011,847.706203 635.184124,836.77796 637.475609,825.80617 L638.359166,821.558121 C643.135549,798.549831 647.906902,775.685477 659.994848,758.415129 C657.541255,743.602113 649.460265,735.422672 641.141369,727.863584 L640.335753,727.133794 C640.20142,727.012418 640.06707,726.891153 639.932727,726.769974 L639.126918,726.043723 C634.697351,722.052778 630.323517,718.100197 626.818087,713.279257 C608.221248,688.048394 592.302354,658.830578 577.722433,630.951664 C549.842052,576.502985 529.906241,511.462103 508.690967,453.056225 C499.37767,429.164264 496.72948,405.242549 487.475693,382.689489 C471.49729,348.175573 442.337446,313.661656 419.72369,283.134691 C389.19512,239.307968 300.227843,154.362077 336.082548,68.0772851 Z M770.997078,328 C775.284445,332.268469 780.643847,335.890902 786.035494,339.561314 L787.329576,340.443489 C794.875788,345.59903 802.322162,350.957431 806.815514,358.423068 C813.438658,367.674527 814.745467,376.955639 822.705119,386.207098 C822.705119,417.964511 813.408958,439.13612 794.846335,452.360962 L792.232718,455 C787.688588,445.926453 783.384484,436.852907 779.11467,427.77936 L774.848665,418.705814 C770.578851,409.632267 766.274747,400.558721 761.730617,391.485174 C748.484329,372.982255 729.921707,358.423068 719.318737,337.251459 L716.705119,337.251459 L716.705119,334.612421 C732.594724,330.639038 748.484329,328 770.997078,328 Z" id="dolphin" fill="#00678C"></path>
        </g>
    </g>
</svg>