<?xml version="1.0" encoding="UTF-8"?>
<svg width="240px" height="234px" viewBox="0 0 240 234" version="1.1" xmlns="http://www.w3.org/2000/svg" xmlns:xlink="http://www.w3.org/1999/xlink">
    <title>Group</title>
    <g id="Page-1" stroke="none" stroke-width="1" fill="none" fill-rule="evenodd">
        <g id="Group" fill-rule="nonzero">
            <path d="M42.5,0 L197.5,0 C221,0 240,19 240,42.5 L240,191.5 C240,215 221,234 197.5,234 L42.5,234 C19,234 0,215 0,191.5 L0,42.5 C0,19 19,0 42.5,0 Z" id="Path" fill="#001E36"></path>
            <path d="M54,164.1 L54,61.2 C54,60.5 54.3,60.1 55,60.1 C56.7,60.1 58.3,60.1 60.6,60 C63,59.9 65.5,59.9 68.2,59.8 C70.9,59.7 73.8,59.7 76.9,59.6 C80,59.5 83,59.5 86,59.5 C94.2,59.5 101,60.5 106.6,62.6 C111.6,64.3 116.2,67.1 120,70.8 C123.2,74 125.7,77.9 127.3,82.2 C128.8,86.4 129.6,90.7 129.6,95.2 C129.6,103.8 127.6,110.9 123.6,116.5 C119.6,122.1 114,126.3 107.5,128.7 C100.7,131.2 93.2,132.1 85,132.1 C82.6,132.1 81,132.1 80,132 C79,131.9 77.6,131.9 75.7,131.9 L75.7,164 C75.8,164.7 75.3,165.3 74.6,165.4 C74.5,165.4 74.4,165.4 74.2,165.4 L55.2,165.4 C54.4,165.4 54,165 54,164.1 Z M75.8,79.4 L75.8,113 C77.2,113.1 78.5,113.2 79.7,113.2 L85,113.2 C88.9,113.2 92.8,112.6 96.5,111.4 C99.7,110.5 102.5,108.6 104.7,106.1 C106.8,103.6 107.8,100.2 107.8,95.8 C107.9,92.7 107.1,89.6 105.5,86.9 C103.8,84.3 101.4,82.3 98.5,81.2 C94.8,79.7 90.8,79.1 86.7,79.2 C84.1,79.2 81.8,79.2 79.9,79.3 C77.9,79.2 76.5,79.3 75.8,79.4 L75.8,79.4 Z M192,106.9 C189,105.3 185.8,104.2 182.4,103.5 C178.7,102.7 175,102.2 171.2,102.2 C169.2,102.1 167.1,102.4 165.2,102.9 C163.9,103.2 162.8,103.9 162.1,104.9 C161.6,105.7 161.3,106.7 161.3,107.6 C161.3,108.5 161.7,109.4 162.3,110.2 C163.2,111.3 164.4,112.2 165.7,112.9 C168,114.1 170.4,115.2 172.8,116.2 C178.2,118 183.4,120.5 188.2,123.5 C191.5,125.6 194.2,128.4 196.1,131.8 C197.7,135 198.5,138.5 198.4,142.1 C198.5,146.8 197.1,151.5 194.5,155.4 C191.7,159.4 187.8,162.5 183.3,164.3 C178.4,166.4 172.4,167.5 165.2,167.5 C160.6,167.5 156.1,167.1 151.6,166.2 C148.1,165.6 144.6,164.5 141.4,163 C140.7,162.6 140.2,161.9 140.3,161.1 L140.3,143.7 C140.3,143.4 140.4,143 140.7,142.8 C141,142.6 141.3,142.7 141.6,142.9 C145.5,145.2 149.6,146.8 154,147.8 C157.8,148.8 161.8,149.3 165.8,149.3 C169.6,149.3 172.3,148.8 174.1,147.9 C175.7,147.2 176.8,145.5 176.8,143.7 C176.8,142.3 176,141 174.4,139.7 C172.8,138.4 169.5,136.9 164.6,135 C159.5,133.2 154.8,130.8 150.4,127.8 C147.3,125.6 144.7,122.7 142.8,119.3 C141.2,116.1 140.4,112.6 140.5,109.1 C140.5,104.8 141.7,100.7 143.9,97 C146.4,93 150.1,89.8 154.4,87.8 C159.1,85.4 165,84.3 172.1,84.3 C176.2,84.3 180.4,84.6 184.5,85.2 C187.5,85.6 190.4,86.4 193.1,87.5 C193.5,87.6 193.9,88 194.1,88.4 C194.2,88.8 194.3,89.2 194.3,89.6 L194.3,105.9 C194.3,106.3 194.1,106.7 193.8,106.9 C192.9,107.1 192.4,107.1 192,106.9 Z" id="Combined-Shape" fill="#31A8FF"></path>
        </g>
    </g>
</svg>