<?xml version="1.0" encoding="UTF-8"?>
<svg width="692px" height="364px" viewBox="0 0 692 364" version="1.1" xmlns="http://www.w3.org/2000/svg" xmlns:xlink="http://www.w3.org/1999/xlink">
    <title>Group</title>
    <g id="Page-1" stroke="none" stroke-width="1" fill="none" fill-rule="evenodd">
        <g id="Group" transform="translate(0.000000, 0.000000)" fill-rule="nonzero">
            <path d="M0,181.79875 C0,81.395 154.73375,5.68434189e-14 345.6,5.68434189e-14 L345.6,5.68434189e-14 C536.46625,5.68434189e-14 691.20125,81.395 691.20125,181.79875 L691.20125,181.79875 C691.20125,282.20125 536.46625,363.5975 345.6,363.5975 L345.6,363.5975 C154.73375,363.5975 0,282.20125 0,181.79875" id="path3462" fill="#8993BE" transform="translate(345.600625, 181.798750) scale(-1, 1) rotate(-180.000000) translate(-345.600625, -181.798750) "></path>
            <path d="M188.111509,201.340429 C202.698136,201.340429 213.587607,198.607035 220.477702,193.218908 C227.294057,187.886054 232.001909,178.646605 234.469488,165.758564 C236.77022,153.712047 235.893685,145.300598 231.865302,140.761336 C227.746221,136.125033 218.840712,133.773715 205.396588,133.773715 L182.085847,133.773715 L169.162825,201.340429 L188.111509,201.340429 Z M111.868215,284.570326 C110.786171,284.570326 109.758516,284.078918 109.070605,283.228801 C108.381442,282.379935 108.102195,281.262006 108.308917,280.182166 L142.557522,101.129171 C142.888805,99.3982464 144.381904,98.1476352 146.118016,98.1476352 L219.932431,98.1476352 C243.13077,98.1476352 260.397731,104.548057 271.250949,117.173198 C282.162198,129.86469 285.531676,147.605234 281.265099,169.901011 C279.528987,178.984447 276.542753,187.420442 272.389829,194.973182 C268.232085,202.534515 262.737163,209.530729 256.055006,215.771438 C248.056252,223.378219 239.003228,228.894134 229.171651,232.139784 C219.495993,235.342451 207.069868,236.966509 192.239069,236.966509 L162.350112,236.966509 L153.814548,281.587558 C153.483265,283.319715 151.991362,284.570326 150.255251,284.570326 L111.868215,284.570326 L111.868215,284.570326 Z" id="path3486" fill="#FFFFFF"></path>
            <path d="M372.285318,236.966509 C371.215928,236.966509 370.202639,236.475118 369.523538,235.625002 C368.842046,234.776118 368.566348,233.659422 368.770422,232.578348 L383.726277,153.354554 C385.148966,145.82025 384.798076,140.412454 382.739253,138.127468 C381.478904,136.730687 377.69311,134.387962 366.499192,134.387962 L339.404167,134.387962 L320.600441,233.98374 C320.273407,235.715898 318.799437,236.966509 317.085545,236.966509 L279.490012,236.966509 C278.420641,236.966509 277.40737,236.475118 276.727055,235.625002 C276.046777,234.776118 275.77106,233.658189 275.975134,232.578348 L309.784856,53.5253536 C310.111871,51.7944288 311.585859,50.5438176 313.299752,50.5438176 L350.895248,50.5438176 C351.964637,50.5438176 352.977945,51.0352264 353.658223,51.8841104 C354.338538,52.7342088 354.614218,53.8509048 354.410144,54.9319784 L346.251313,98.1476352 L375.399184,98.1476352 C397.60441,98.1476352 412.661705,102.177088 421.431618,110.466895 C430.370971,118.923774 433.160213,132.445732 429.722918,150.661714 L413.992464,233.98374 C413.665467,235.715898 412.192656,236.966509 410.477586,236.966509 L372.285318,236.966509 Z" id="path3494" fill="#FFFFFF"></path>
            <path d="M498.927389,201.340429 C514.073671,201.340429 525.380947,198.607035 532.535427,193.218908 C539.613318,187.887287 544.501811,178.647838 547.065311,165.758564 C549.454313,153.712047 548.544173,145.300598 544.359961,140.761336 C540.082827,136.125033 530.835643,133.773715 516.875696,133.773715 L492.670504,133.773715 L479.251653,201.340429 L498.927389,201.340429 L498.927389,201.340429 Z M419.759938,284.570326 C418.63638,284.570326 417.56929,284.078918 416.854984,283.228801 C416.139409,282.379935 415.848151,281.262006 416.062801,280.182166 L451.625519,101.129171 C451.970762,99.3982464 453.519906,98.1476352 455.323907,98.1476352 L531.969243,98.1476352 C556.058924,98.1476352 573.987163,104.548057 585.258076,117.173198 C596.587957,129.863458 600.085472,147.60402 595.656445,169.901011 C593.851192,178.984447 590.751637,187.420442 586.439389,194.973182 C582.122083,202.534515 576.416336,209.530729 569.477794,215.771438 C561.172129,223.378219 551.771765,228.894134 541.562921,232.139784 C531.516049,235.342451 518.61315,236.966509 503.213261,236.966509 L472.176264,236.966509 L463.316959,281.587558 C462.971734,283.319715 461.422572,284.570326 459.618589,284.570326 L419.759938,284.570326 L419.759938,284.570326 Z" id="path3502" fill="#FFFFFF"></path>
        </g>
    </g>
</svg>