<?xml version="1.0" encoding="UTF-8"?>
<svg width="411px" height="411px" viewBox="0 0 411 411" version="1.1" xmlns="http://www.w3.org/2000/svg" xmlns:xlink="http://www.w3.org/1999/xlink">
    <title>Group</title>
    <g id="Page-1" stroke="none" stroke-width="1" fill="none" fill-rule="evenodd">
        <g id="Group" transform="translate(0.000000, 0.129000)">
            <path d="M205.436,0 C318.895,0 410.871,91.977 410.871,205.436 C410.871,318.895 318.895,410.871 205.436,410.871 C91.977,410.871 0,318.895 0,205.436 C0,91.977 91.977,0 205.436,0" id="Fill-1" fill="#BE5F8A"></path>
            <path d="M164.609,273.867 C167.598,284.923 167.27,295.233 164.183,304.57 C163.84,305.607 163.462,306.633 163.052,307.647 C162.642,308.659 162.198,309.66 161.722,310.648 C159.341,315.588 156.146,320.212 152.233,324.48 C140.297,337.502 123.62,342.426 116.469,338.277 C108.747,333.801 112.615,315.441 126.454,300.813 C141.342,285.074 162.763,274.955 162.763,274.955 L162.73,274.891 C163.347,274.559 163.974,274.217 164.609,273.867 Z M334.299,87.929 C324.996,51.443 264.498,39.449 207.24,59.79 C173.165,71.897 136.276,90.897 109.752,115.706 C78.215,145.204 73.186,170.878 75.259,181.606 C82.571,219.46 134.438,244.203 155.76,262.561 L155.76,262.672 C149.473,265.767 103.456,289.055 92.687,312.863 C81.324,337.98 94.496,356.004 103.216,358.43 C130.235,365.947 157.961,352.426 172.861,330.201 C187.24,308.753 186.043,281.057 179.794,267.28 C188.414,265.006 198.463,263.987 211.234,265.479 C247.271,269.688 254.342,292.19 252.99,301.605 C251.639,311.023 244.08,316.201 241.553,317.764 C239.025,319.328 238.254,319.869 238.467,321.031 C238.773,322.721 239.943,322.658 242.098,322.293 C245.064,321.793 261.021,314.633 261.703,297.25 C262.572,275.18 241.422,250.492 203.973,251.137 C188.55,251.403 178.852,252.87 171.847,255.477 C171.329,254.887 170.802,254.3 170.257,253.719 C147.105,229.018 104.306,211.545 106.121,178.338 C106.781,166.266 110.977,134.477 188.36,95.918 C251.75,64.331 302.496,73.023 311.266,92.287 C323.793,119.808 284.145,170.96 218.314,178.338 C193.233,181.15 180.027,171.429 176.742,167.809 C173.283,163.998 172.768,163.826 171.477,164.541 C169.373,165.706 170.706,169.071 171.477,171.077 C173.442,176.192 181.508,185.263 195.259,189.775 C207.355,193.745 236.803,195.926 272.416,182.151 C312.301,166.722 343.447,123.804 334.299,87.929 L334.299,87.929 Z" id="Fill-4" fill="#FFFFFE"></path>
        </g>
    </g>
</svg>