<?xml version="1.0" encoding="utf-8"?>
<!-- Svg Vector Icons : http://www.onlinewebfonts.com/icon -->
<!DOCTYPE svg PUBLIC "-//W3C//DTD SVG 1.1//EN" "http://www.w3.org/Graphics/SVG/1.1/DTD/svg11.dtd">
<svg version="1.1" xmlns="http://www.w3.org/2000/svg" xmlns:xlink="http://www.w3.org/1999/xlink" x="0px" y="0px" viewBox="0 0 1000 1000" enable-background="new 0 0 1000 1000" xml:space="preserve">
<metadata> Svg Vector Icons : http://www.onlinewebfonts.com/icon </metadata>
<g><g id="_x35_151e0c8492e5103c096af88a51f35a1"><path d="M500,10C229.4,10,10,229.4,10,500c0,270.6,219.4,490,490,490c270.6,0,490-219.4,490-490C990,229.4,770.6,10,500,10z M764.3,293.6c-22.7,0.8-38.3-12.8-39.1-33.4c-0.2-7.6,1.7-14.1,6.9-21.9c5-9.9,6.1-11,6-15.4c-0.5-13-20.1-13.4-25.4-13.2c-73.6,2.4-92.9,101.7-108.7,182.4l-7.7,42.6c42.3,6.2,72.4-1.4,89.2-12.3c23.6-15.3-6.6-31.1-2.8-48.5c3.9-17.8,20-26.3,32.9-26.7c18-0.5,30.8,18.2,30.4,37.1c-0.6,31.3-42.2,74.3-125.2,72.5c-10.1-0.2-19.4-0.9-28.1-2L577,541.4c-14,65.5-32.6,154.9-99.3,233c-57.3,68.1-115.4,78.7-141.4,79.6c-48.7,1.7-81-24.3-82.2-59c-1.1-33.6,28.6-51.9,48-52.5c26-0.9,44,18,44.7,39.7c0.7,18.3-8.9,24.1-15.3,27.5c-4.2,3.4-10.6,6.9-10.4,14.5c0.2,3.2,3.6,10.7,14.4,10.3c20.6-0.7,34.3-10.9,43.8-17.7c47.4-39.5,65.7-108.4,89.6-233.8l5-30.4c8.2-40.8,17.2-86.3,31-131.6c-33.4-25.2-53.5-56.4-98.5-68.6c-30.8-8.4-49.6-1.3-62.8,15.4c-15.7,19.8-10.5,45.6,4.7,60.7l25,27.6c30.6,35.4,47.4,62.9,41.1,99.9c-10,59.2-80.5,104.5-163.7,78.9c-71.1-21.9-84.4-72.2-75.8-100c7.5-24.4,26.9-29,45.9-23.2c20.3,6.3,28.3,31,22.5,49.9c-0.7,2-1.7,5.5-3.8,10c-2.4,5.2-6.7,9.8-8.6,15.9c-4.6,14.9,15.8,25.5,30.1,29.8c31.8,9.8,62.9-6.8,70.7-32.6c7.3-23.7-7.6-40.2-13.9-46.5l-30.1-32.3c-13.8-15.4-44.1-58.1-29.3-106.2c5.7-18.5,17.7-38.2,35.1-51.2c36.8-27.4,76.8-31.9,114.9-20.9c49.3,14.2,72.9,46.8,103.7,71.9c17.2-50.4,41-99.7,76.8-141.3c32.3-37.9,75.8-65.4,125.6-67.1c49.7-1.6,87.3,20.9,88.6,56.6C803.3,263.1,794.6,292.6,764.3,293.6z"/></g></g>
</svg>