<?xml version="1.0" encoding="UTF-8"?>
<svg width="980px" height="980px" viewBox="0 0 980 980" version="1.1" xmlns="http://www.w3.org/2000/svg" xmlns:xlink="http://www.w3.org/1999/xlink">
    <title>symfony</title>
    <g id="Page-1" stroke="none" stroke-width="1" fill="none" fill-rule="evenodd">
        <g id="symfony" fill="#FFFFFF" fill-rule="nonzero">
            <path d="M490,0 C219.4,0 0,219.4 0,490 C0,760.6 219.4,980 490,980 C760.6,980 980,760.6 980,490 C980,219.4 760.6,0 490,0 Z M754.3,283.6 C731.6,284.4 716,270.8 715.2,250.2 C715,242.6 716.9,236.1 722.1,228.3 C727.1,218.4 728.2,217.3 728.1,212.9 C727.6,199.9 708,199.5 702.7,199.7 C629.1,202.1 609.8,301.4 594,382.1 L586.3,424.7 C628.6,430.9 658.7,423.3 675.5,412.4 C699.1,397.1 668.9,381.3 672.7,363.9 C676.6,346.1 692.7,337.6 705.6,337.2 C723.6,336.7 736.4,355.4 736,374.3 C735.4,405.6 693.8,448.6 610.8,446.8 C600.7,446.6 591.4,445.9 582.7,444.8 L567,531.4 C553,596.9 534.4,686.3 467.7,764.4 C410.4,832.5 352.3,843.1 326.3,844 C277.6,845.7 245.3,819.7 244.1,785 C243,751.4 272.7,733.1 292.1,732.5 C318.1,731.6 336.1,750.5 336.8,772.2 C337.5,790.5 327.9,796.3 321.5,799.7 C317.3,803.1 310.9,806.6 311.1,814.2 C311.3,817.4 314.7,824.9 325.5,824.5 C346.1,823.8 359.8,813.6 369.3,806.8 C416.7,767.3 435,698.4 458.9,573 L463.9,542.6 C472.1,501.8 481.1,456.3 494.9,411 C461.5,385.8 441.4,354.6 396.4,342.4 C365.6,334 346.8,341.1 333.6,357.8 C317.9,377.6 323.1,403.4 338.3,418.5 L363.3,446.1 C393.9,481.5 410.7,509 404.4,546 C394.4,605.2 323.9,650.5 240.7,624.9 C169.6,603 156.3,552.7 164.9,524.9 C172.4,500.5 191.8,495.9 210.8,501.7 C231.1,508 239.1,532.7 233.3,551.6 C232.6,553.6 231.6,557.1 229.5,561.6 C227.1,566.8 222.8,571.4 220.9,577.5 C216.3,592.4 236.7,603 251,607.3 C282.8,617.1 313.9,600.5 321.7,574.7 C329,551 314.1,534.5 307.8,528.2 L277.7,495.9 C263.9,480.5 233.6,437.8 248.4,389.7 C254.1,371.2 266.1,351.5 283.5,338.5 C320.3,311.1 360.3,306.6 398.4,317.6 C447.7,331.8 471.3,364.4 502.1,389.5 C519.3,339.1 543.1,289.8 578.9,248.2 C611.2,210.3 654.7,182.8 704.5,181.1 C754.2,179.5 791.8,202 793.103353,237.7 C793.3,253.1 784.6,282.6 754.3,283.6 Z" id="Shape"></path>
        </g>
    </g>
</svg>