<?xml version="1.0" encoding="UTF-8"?>
<svg width="38px" height="38px" viewBox="0 0 38 38" version="1.1" xmlns="http://www.w3.org/2000/svg" xmlns:xlink="http://www.w3.org/1999/xlink">
  <g stroke="none" stroke-width="1" fill="none" fill-rule="evenodd">
    <path d="M18.9921875,34.875 C27.8515625,34.875 35.1640625,27.5625 35.1640625,18.71875 C35.1640625,9.875 27.8359375,2.5625 18.9765625,2.5625 C10.1328125,2.5625 2.8359375,9.875 2.8359375,18.71875 C2.8359375,27.5625 10.1484375,34.875 18.9921875,34.875 Z M18.9921875,31.65625 C11.8203125,31.65625 6.0859375,25.890625 6.0859375,18.71875 C6.0859375,11.546875 11.8203125,5.796875 18.9765625,5.796875 C26.1484375,5.796875 31.9140625,11.546875 31.9297191,18.71875 C31.9453125,25.890625 26.1640625,31.65625 18.9921875,31.65625 Z M18.6484375,21.828125 C19.5078125,21.828125 20.0546875,21.328125 20.1015625,20.6875 C20.1015625,20.625 20.1015625,20.5625 20.1171875,20.5 C20.1640625,19.703125 20.7109375,19.15625 21.7265625,18.5 C23.2734375,17.5 24.2578125,16.59375 24.2578125,14.796875 C24.2578125,12.1875 21.9140625,10.703125 19.1328125,10.703125 C16.4609375,10.703125 14.6328125,11.921875 14.1484375,13.375 C14.0546875,13.65625 13.9921875,13.921875 13.9921875,14.203125 C13.9921875,14.953125 14.5859375,15.4375 15.3046875,15.4375 C16.2265625,15.4375 16.4296875,14.96875 16.9140625,14.4375 C17.4140625,13.65625 18.0703125,13.203125 18.9921875,13.203125 C20.2265625,13.203125 21.0390625,13.90625 21.0390625,14.953125 C21.0390625,15.90625 20.3828125,16.421875 19.0546875,17.328125 C17.9453125,18.109375 17.1328125,18.90625 17.1328125,20.3125 L17.1328125,20.484375 C17.1328125,21.375 17.6796875,21.828125 18.6484375,21.828125 Z M18.6171875,26.625 C19.6171875,26.625 20.4453125,25.90625 20.4453125,24.90625 C20.4453125,23.90625 19.6328125,23.1875 18.6171875,23.1875 C17.6015625,23.1875 16.7734375,23.921875 16.7734375,24.90625 C16.7734375,25.890625 17.6015625,26.625 18.6171875,26.625 Z" fill="#368EFC" fill-rule="nonzero"/>
  </g>
</svg>