<svg width="22px" height="20px" viewBox="0 0 22 34" version="1.1" xmlns="http://www.w3.org/2000/svg" xmlnsXlink="http://www.w3.org/1999/xlink">
  <g stroke="none" stroke-width="1" fill="none" fill-rule="evenodd">
    <g transform="translate(-8.000000, -2.000000)" fill="#368EFC" fill-rule="nonzero">
      <path d="M13.3232422,35.6762695 L25.28125,35.6762695 C27.8696289,35.6762695 29.5952148,33.980957 29.5952148,31.4682617 L29.5952148,6.64404297 C29.5952148,4.13134766 27.8696289,2.45117188 25.28125,2.45117188 L13.3232422,2.45117188 C10.6894531,2.45117188 8.93359375,4.13134766 8.93359375,6.64404297 L8.93359375,31.4682617 C8.93359375,33.980957 10.6894531,35.6762695 13.3232422,35.6762695 Z M13.8378906,32.5581055 C12.6420898,32.5581055 11.9609375,31.9072266 11.9609375,30.7568359 L11.9609375,7.35546875 C11.9609375,6.20507812 12.6420898,5.55419922 13.8378906,5.55419922 L14.4584961,5.55419922 L14.4584961,6.31103516 C14.4584961,6.97705078 14.8974609,7.41601562 15.5483398,7.41601562 L22.9956055,7.41601562 C23.6464844,7.41601562 24.0854492,6.97705078 24.0854492,6.31103516 L24.0854492,5.55419922 L24.690918,5.55419922 C25.8867188,5.55419922 26.5678711,6.22021484 26.5678711,7.37060547 L26.5678711,30.7568359 C26.5678711,31.9072266 25.8867188,32.5581055 24.690918,32.5581055 L13.8378906,32.5581055 Z M15.2304688,31.3623047 L23.3134766,31.3623047 C23.7524414,31.3623047 24.0854492,31.0595703 24.0854492,30.590332 C24.0854492,30.1362305 23.7524414,29.8334961 23.3134766,29.8334961 L15.2304688,29.8334961 C14.7915039,29.8334961 14.4584961,30.1362305 14.4584961,30.590332 C14.4584961,31.0595703 14.7915039,31.3623047 15.2304688,31.3623047 Z"/>
    </g>
  </g>
</svg>