<?xml version="1.0" encoding="UTF-8"?>
<svg width="38px" height="38px" viewBox="0 0 38 38" version="1.1" xmlns="http://www.w3.org/2000/svg" xmlns:xlink="http://www.w3.org/1999/xlink">
    <title>Window/Menu/Cell/Icons/Active/menu_icon_music Copy 2</title>
    <g id="Window/Menu/Cell/Icons/Active/menu_icon_music-Copy-2" stroke="none" stroke-width="1" fill="none" fill-rule="evenodd">
        <path d="M15.1173689,22.4935798 C15.1173689,24.9297405 17.0053934,26.665505 19.6547182,26.665505 C21.9538449,26.665505 25.4710519,24.9297405 25.4710519,20.3467132 L25.4710519,4.89231875 C25.4710519,4.23760056 24.9076897,3.6742384 24.2529715,3.6742384 C23.5678013,3.6742384 23.0044392,4.23760056 23.0044392,4.89231875 L23.0044392,16.098658 C23.0044392,16.7533762 22.7608231,17.1492523 22.2126869,17.2558343 L19.7765262,17.7735185 C16.6247433,18.4282367 15.1173689,20.0574191 15.1173689,22.4935798 Z M1.26170488,30.2588421 C1.26170488,32.7102288 3.16495543,34.4307673 5.81428019,34.4307673 C8.09818085,34.4307673 11.6153879,32.6950028 11.6153879,28.1119755 L11.6153879,12.672807 C11.6153879,12.0028628 11.0672517,11.4395006 10.3973075,11.4395006 C9.71213732,11.4395006 9.14877516,12.0028628 9.14877516,12.672807 L9.14877516,23.8639202 C9.14877516,24.5186384 8.90515909,24.9297405 8.35702293,25.0363226 L5.92086223,25.5387807 C2.78430532,26.1934989 1.26170488,27.8226814 1.26170488,30.2588421 Z M26.3846121,30.2588421 C26.3846121,32.7102288 28.2878627,34.4307673 30.9371874,34.4307673 C33.2363141,34.4307673 36.7382951,32.7102288 36.7382951,28.1272015 L36.7382951,12.672807 C36.7382951,12.0028628 36.190159,11.4547266 35.5202148,11.4547266 C34.8502706,11.4547266 34.2869084,12.0028628 34.2869084,12.672807 L34.2869084,23.8639202 C34.2869084,24.5338644 34.0432923,24.9297405 33.4799302,25.0363226 L31.0589955,25.5540067 C27.9072126,26.2087249 26.3846121,27.8226814 26.3846121,30.2588421 Z" id="Shape" fill="#368EFC" fill-rule="nonzero"></path>
    </g>
</svg>