<?xml version="1.0" encoding="UTF-8"?>
<svg width="38px" height="38px" viewBox="0 0 38 38" version="1.1" xmlns="http://www.w3.org/2000/svg" xmlns:xlink="http://www.w3.org/1999/xlink">
    <title>Window/Menu/Cell/Icons/Active/menu_icon_photos Copy 2</title>
    <g id="Window/Menu/Cell/Icons/Active/menu_icon_photos-Copy-2" stroke="none" stroke-width="1" fill="none" fill-rule="evenodd">
        <path d="M19.0085449,-0.00927734375 C18.4445801,-0.00927734375 17.9489746,0.486328125 17.9489746,1.06738281 C17.9489746,1.61425781 18.4445801,2.09277344 19.0085449,2.09277344 C19.6066895,2.09277344 20.0510254,1.61425781 20.0510254,1.06738281 C20.0510254,0.486328125 19.6066895,-0.00927734375 19.0085449,-0.00927734375 Z M15.7443848,0.264160156 C15.1975098,0.264160156 14.7019043,0.776855469 14.7019043,1.34082031 C14.7019043,1.88769531 15.1975098,2.36621094 15.7443848,2.36621094 C16.3596191,2.36621094 16.8039551,1.88769531 16.8039551,1.34082031 C16.8039551,0.776855469 16.3596191,0.264160156 15.7443848,0.264160156 Z M22.2556152,0.264160156 C21.6403809,0.264160156 21.1960449,0.776855469 21.1960449,1.34082031 C21.1960449,1.88769531 21.6403809,2.36621094 22.2556152,2.36621094 C22.8024902,2.36621094 23.2980957,1.88769531 23.2980957,1.34082031 C23.2980957,0.776855469 22.8024902,0.264160156 22.2556152,0.264160156 Z M25.3830566,1.1015625 C24.7849121,1.1015625 24.3405762,1.61425781 24.3405762,2.17822266 C24.3405762,2.72509766 24.7849121,3.20361328 25.3830566,3.20361328 C25.9299316,3.20361328 26.442627,2.72509766 26.442627,2.17822266 C26.442627,1.61425781 25.9299316,1.1015625 25.3830566,1.1015625 Z M12.6169434,1.1015625 C12.0700684,1.1015625 11.557373,1.61425781 11.557373,2.17822266 C11.557373,2.72509766 12.0700684,3.20361328 12.6169434,3.20361328 C13.2150879,3.20361328 13.6765137,2.72509766 13.6765137,2.17822266 C13.6765137,1.61425781 13.2150879,1.1015625 12.6169434,1.1015625 Z M9.67749023,2.48583984 C9.11352539,2.48583984 8.61791992,2.99853516 8.61791992,3.5625 C8.61791992,4.109375 9.11352539,4.58789062 9.67749023,4.58789062 C10.2756348,4.58789062 10.7199707,4.109375 10.7199707,3.5625 C10.7199707,2.99853516 10.2756348,2.48583984 9.67749023,2.48583984 Z M28.3395996,2.48583984 C27.7243652,2.48583984 27.2800293,2.99853516 27.2800293,3.5625 C27.2800293,4.109375 27.7243652,4.58789062 28.3395996,4.58789062 C28.8864746,4.58789062 29.3820801,4.109375 29.3820801,3.5625 C29.3820801,2.99853516 28.8864746,2.48583984 28.3395996,2.48583984 Z M6.99438477,4.34863281 C6.44750977,4.34863281 5.93481445,4.84423828 5.93481445,5.40820312 C5.93481445,5.95507812 6.44750977,6.45068359 6.99438477,6.45068359 C7.5925293,6.45068359 8.03686523,5.95507812 8.03686523,5.40820312 C8.03686523,4.84423828 7.5925293,4.34863281 6.99438477,4.34863281 Z M31.0056152,4.34863281 C30.4074707,4.34863281 29.9631348,4.84423828 29.9631348,5.40820312 C29.9631348,5.95507812 30.4074707,6.45068359 31.0056152,6.45068359 C31.5524902,6.45068359 32.0651855,5.95507812 32.0651855,5.40820312 C32.0651855,4.84423828 31.5524902,4.34863281 31.0056152,4.34863281 Z M18.9914551,34.0849609 C26.9553223,34.0849609 33.3811035,27.6591797 33.3811035,19.6953125 C33.3811035,11.7827148 26.9211426,5.32275391 18.9914551,5.32275391 C11.0275879,5.32275391 4.61889648,11.7485352 4.61889648,19.6953125 C4.61889648,27.7104492 10.9934082,34.0849609 18.9914551,34.0849609 Z M4.7043457,6.65576172 C4.14038086,6.65576172 3.64477539,7.16845703 3.64477539,7.73242188 C3.64477539,8.27929688 4.14038086,8.7578125 4.7043457,8.7578125 C5.30249023,8.7578125 5.74682617,8.27929688 5.74682617,7.73242188 C5.74682617,7.16845703 5.30249023,6.65576172 4.7043457,6.65576172 Z M33.3127441,6.65576172 C32.6975098,6.65576172 32.2531738,7.16845703 32.2531738,7.73242188 C32.2531738,8.27929688 32.6975098,8.7578125 33.3127441,8.7578125 C33.8596191,8.7578125 34.3552246,8.27929688 34.3552246,7.73242188 C34.3552246,7.16845703 33.8596191,6.65576172 33.3127441,6.65576172 Z M18.9914551,31.8291016 C12.2409668,31.8291016 6.87475586,26.4628906 6.87475586,19.6953125 C6.87475586,12.9790039 12.2751465,7.57861328 18.9914551,7.57861328 C25.6906738,7.57861328 31.1252441,13.0131836 31.1252441,19.6953125 C31.1252441,26.4287109 25.7248535,31.8291016 18.9914551,31.8291016 Z M35.1584473,9.32177734 C34.5603027,9.32177734 34.1159668,9.83447266 34.1159668,10.3984375 C34.1159668,10.9453125 34.5603027,11.4238281 35.1584473,11.4238281 C35.7224121,11.4238281 36.2180176,10.9453125 36.2180176,10.3984375 C36.2180176,9.83447266 35.7224121,9.32177734 35.1584473,9.32177734 Z M2.84155273,9.32177734 C2.27758789,9.32177734 1.78198242,9.83447266 1.78198242,10.3984375 C1.78198242,10.9453125 2.27758789,11.4238281 2.84155273,11.4238281 C3.43969727,11.4238281 3.8840332,10.9453125 3.8840332,10.3984375 C3.8840332,9.83447266 3.43969727,9.32177734 2.84155273,9.32177734 Z M18.9914551,27.2661133 C23.1784668,27.2661133 26.5622559,23.8823242 26.5622559,19.6953125 C26.5622559,15.5253906 23.1784668,12.1416016 18.9914551,12.1416016 C14.8215332,12.1416016 11.4377441,15.5083008 11.4377441,19.6953125 C11.4377441,23.8994141 14.8044434,27.2661133 18.9914551,27.2661133 Z M1.45727539,12.2783203 C0.910400391,12.2783203 0.414794922,12.7739258 0.414794922,13.3549805 C0.414794922,13.9018555 0.910400391,14.3803711 1.45727539,14.3803711 C2.05541992,14.3803711 2.5168457,13.9018555 2.5168457,13.3549805 C2.5168457,12.7739258 2.05541992,12.2783203 1.45727539,12.2783203 Z M36.5427246,12.2783203 C35.9445801,12.2783203 35.4831543,12.7739258 35.4831543,13.3549805 C35.4831543,13.9018555 35.9445801,14.3803711 36.5427246,14.3803711 C37.0895996,14.3803711 37.5852051,13.9018555 37.5852051,13.3549805 C37.5852051,12.7739258 37.0895996,12.2783203 36.5427246,12.2783203 Z M37.3630371,15.4057617 C36.7648926,15.4057617 36.3205566,15.9013672 36.3205566,16.4824219 C36.3205566,17.0292969 36.7648926,17.5078125 37.3630371,17.5078125 C37.9099121,17.5078125 38.4226074,17.0292969 38.4226074,16.4824219 C38.4226074,15.9013672 37.9099121,15.4057617 37.3630371,15.4057617 Z M0.636962891,15.4057617 C0.0900878906,15.4057617 -0.422607422,15.9013672 -0.422607422,16.4824219 C-0.422607422,17.0292969 0.0900878906,17.5078125 0.636962891,17.5078125 C1.23510742,17.5078125 1.67944336,17.0292969 1.67944336,16.4824219 C1.67944336,15.9013672 1.23510742,15.4057617 0.636962891,15.4057617 Z M18.9914551,23.1645508 C17.0773926,23.1645508 15.5393066,21.6264648 15.5393066,19.6953125 C15.5393066,17.78125 17.0773926,16.2431641 18.9914551,16.2431641 C20.9055176,16.2431641 22.4606934,17.7983398 22.4606934,19.6953125 C22.4606934,21.6264648 20.9226074,23.1645508 18.9914551,23.1645508 Z M0.363525391,18.652832 C-0.200439453,18.652832 -0.696044922,19.1484375 -0.696044922,19.7124023 C-0.696044922,20.2592773 -0.200439453,20.7548828 0.363525391,20.7548828 C0.961669922,20.7548828 1.40600586,20.2592773 1.40600586,19.7124023 C1.40600586,19.1484375 0.961669922,18.652832 0.363525391,18.652832 Z M37.6535645,18.652832 C37.0383301,18.652832 36.5939941,19.1484375 36.5939941,19.7124023 C36.5939941,20.2592773 37.0383301,20.7548828 37.6535645,20.7548828 C38.2004395,20.7548828 38.6960449,20.2592773 38.6960449,19.7124023 C38.6960449,19.1484375 38.2004395,18.652832 37.6535645,18.652832 Z M0.636962891,23.9848633 C1.23510742,23.9848633 1.67944336,23.4892578 1.67944336,22.9082031 C1.67944336,22.3613281 1.23510742,21.8828125 0.636962891,21.8828125 C0.0900878906,21.8828125 -0.422607422,22.3613281 -0.422607422,22.9082031 C-0.422607422,23.4892578 0.0900878906,23.9848633 0.636962891,23.9848633 Z M37.3630371,23.9848633 C37.9099121,23.9848633 38.4226074,23.4892578 38.4226074,22.9082031 C38.4226074,22.3613281 37.9099121,21.8828125 37.3630371,21.8828125 C36.7648926,21.8828125 36.3205566,22.3613281 36.3205566,22.9082031 C36.3205566,23.4892578 36.7648926,23.9848633 37.3630371,23.9848633 Z M1.45727539,27.1123047 C2.05541992,27.1123047 2.5168457,26.6166992 2.5168457,26.0527344 C2.5168457,25.4887695 2.05541992,25.0102539 1.45727539,25.0102539 C0.910400391,25.0102539 0.414794922,25.4887695 0.414794922,26.0527344 C0.414794922,26.6166992 0.910400391,27.1123047 1.45727539,27.1123047 Z M36.5427246,27.1123047 C37.0895996,27.1123047 37.5852051,26.6166992 37.5852051,26.0527344 C37.5852051,25.4887695 37.0895996,25.0102539 36.5427246,25.0102539 C35.9445801,25.0102539 35.4831543,25.4887695 35.4831543,26.0527344 C35.4831543,26.6166992 35.9445801,27.1123047 36.5427246,27.1123047 Z M2.84155273,30.0688477 C3.43969727,30.0688477 3.8840332,29.5732422 3.8840332,28.9921875 C3.8840332,28.4453125 3.43969727,27.9667969 2.84155273,27.9667969 C2.27758789,27.9667969 1.78198242,28.4453125 1.78198242,28.9921875 C1.78198242,29.5732422 2.27758789,30.0688477 2.84155273,30.0688477 Z M35.1584473,30.0688477 C35.7224121,30.0688477 36.2180176,29.5732422 36.2180176,28.9921875 C36.2180176,28.4453125 35.7224121,27.9667969 35.1584473,27.9667969 C34.5603027,27.9667969 34.1159668,28.4453125 34.1159668,28.9921875 C34.1159668,29.5732422 34.5603027,30.0688477 35.1584473,30.0688477 Z M4.7043457,32.7348633 C5.30249023,32.7348633 5.74682617,32.222168 5.74682617,31.6582031 C5.74682617,31.1113281 5.30249023,30.6328125 4.7043457,30.6328125 C4.14038086,30.6328125 3.64477539,31.1113281 3.64477539,31.6582031 C3.64477539,32.222168 4.14038086,32.7348633 4.7043457,32.7348633 Z M33.3127441,32.7348633 C33.8596191,32.7348633 34.3552246,32.222168 34.3552246,31.6582031 C34.3552246,31.1113281 33.8596191,30.6328125 33.3127441,30.6328125 C32.6975098,30.6328125 32.2531738,31.1113281 32.2531738,31.6582031 C32.2531738,32.222168 32.6975098,32.7348633 33.3127441,32.7348633 Z M6.99438477,35.059082 C7.5925293,35.059082 8.03686523,34.5463867 8.03686523,33.9824219 C8.03686523,33.4355469 7.5925293,32.9399414 6.99438477,32.9399414 C6.44750977,32.9399414 5.93481445,33.4355469 5.93481445,33.9824219 C5.93481445,34.5463867 6.44750977,35.059082 6.99438477,35.059082 Z M31.0056152,35.059082 C31.5524902,35.059082 32.0651855,34.5463867 32.0651855,33.9824219 C32.0651855,33.4355469 31.5524902,32.9399414 31.0056152,32.9399414 C30.4074707,32.9399414 29.9631348,33.4355469 29.9631348,33.9824219 C29.9631348,34.5463867 30.4074707,35.059082 31.0056152,35.059082 Z M9.67749023,36.9047852 C10.2756348,36.9047852 10.7199707,36.3920898 10.7199707,35.828125 C10.7199707,35.28125 10.2756348,34.8027344 9.67749023,34.8027344 C9.11352539,34.8027344 8.61791992,35.28125 8.61791992,35.828125 C8.61791992,36.3920898 9.11352539,36.9047852 9.67749023,36.9047852 Z M28.3395996,36.9047852 C28.8864746,36.9047852 29.3820801,36.3920898 29.3820801,35.828125 C29.3820801,35.28125 28.8864746,34.8027344 28.3395996,34.8027344 C27.7243652,34.8027344 27.2800293,35.28125 27.2800293,35.828125 C27.2800293,36.3920898 27.7243652,36.9047852 28.3395996,36.9047852 Z M12.6169434,38.2890625 C13.2150879,38.2890625 13.6765137,37.7763672 13.6765137,37.2124023 C13.6765137,36.6655273 13.2150879,36.1870117 12.6169434,36.1870117 C12.0700684,36.1870117 11.557373,36.6655273 11.557373,37.2124023 C11.557373,37.7763672 12.0700684,38.2890625 12.6169434,38.2890625 Z M25.3830566,38.2890625 C25.9299316,38.2890625 26.442627,37.7763672 26.442627,37.2124023 C26.442627,36.6655273 25.9299316,36.1870117 25.3830566,36.1870117 C24.7849121,36.1870117 24.3405762,36.6655273 24.3405762,37.2124023 C24.3405762,37.7763672 24.7849121,38.2890625 25.3830566,38.2890625 Z M22.2556152,39.1264648 C22.8024902,39.1264648 23.2980957,38.6308594 23.2980957,38.0498047 C23.2980957,37.5029297 22.8024902,37.0244141 22.2556152,37.0244141 C21.6403809,37.0244141 21.1960449,37.5029297 21.1960449,38.0498047 C21.1960449,38.6308594 21.6403809,39.1264648 22.2556152,39.1264648 Z M15.7443848,39.1264648 C16.3596191,39.1264648 16.8039551,38.6308594 16.8039551,38.0498047 C16.8039551,37.5029297 16.3596191,37.0244141 15.7443848,37.0244141 C15.1975098,37.0244141 14.7019043,37.5029297 14.7019043,38.0498047 C14.7019043,38.6308594 15.1975098,39.1264648 15.7443848,39.1264648 Z M19.0085449,39.3999023 C19.6066895,39.3999023 20.0510254,38.9042969 20.0510254,38.340332 C20.0510254,37.7763672 19.6066895,37.2978516 19.0085449,37.2978516 C18.4445801,37.2978516 17.9489746,37.7763672 17.9489746,38.340332 C17.9489746,38.9042969 18.4445801,39.3999023 19.0085449,39.3999023 Z" id="Shape" fill="#368EFC" fill-rule="nonzero"></path>
    </g>
</svg>