<?xml version="1.0" encoding="UTF-8"?>
<svg width="38px" height="38px" viewBox="0 0 38 38" version="1.1" xmlns="http://www.w3.org/2000/svg" xmlns:xlink="http://www.w3.org/1999/xlink">
    <title>Window/Menu/Cell/Icons/Active/menu_icon_share Copy 2</title>
    <g id="Window/Menu/Cell/Icons/Active/menu_icon_share-Copy-2" stroke="none" stroke-width="1" fill="none" fill-rule="evenodd">
        <path d="M33.3459374,5.02186395 C31.5085267,3.20212065 28.9997544,2.83110503 25.7666183,2.83110503 L12.1980469,2.83110503 C9.00024558,2.83110503 6.49147326,3.20212065 4.67172997,5.02186395 C2.85198667,6.82393983 2.51630587,9.31504473 2.51630587,12.5128461 L2.51630587,25.975413 C2.51630587,29.2262165 2.85198667,31.7173214 4.67172997,33.5193973 C6.49147326,35.3391406 9.00024558,35.6924888 12.2333817,35.6924888 L25.7666183,35.6924888 C28.9997544,35.6924888 31.5261941,35.3391406 33.3459374,33.5193973 C35.1480133,31.699654 35.4836941,29.2262165 35.4836941,25.975413 L35.4836941,12.5658483 C35.4836941,9.31504473 35.1480133,6.82393983 33.3459374,5.02186395 Z M31.9678794,12.0711608 L31.9678794,26.4701005 C31.9678794,28.3075112 31.7382031,29.9682478 30.7664955,30.9399554 C29.7771205,31.9293304 28.0987165,32.1766741 26.2613058,32.1766741 L11.7563616,32.1766741 C9.91895093,32.1766741 8.22287951,31.9116629 7.25117192,30.9399554 C6.27946434,29.9682478 6.03212059,28.3075112 6.03212059,26.4701005 L6.03212059,12.1064956 C6.03212059,10.2337501 6.27946434,8.55534607 7.25117192,7.58363849 C8.22287951,6.6119309 9.91895093,6.36458715 11.7916965,6.36458715 L26.2613058,6.36458715 C28.0987165,6.36458715 29.7771205,6.6119309 30.7664955,7.58363849 C31.7382031,8.57301349 31.9678794,10.2337501 31.9678794,12.0711608 Z M24.5298995,23.8729911 C25.4132701,23.8729911 25.9786272,23.2192969 25.9786272,22.2652567 L25.9786272,14.0499108 C25.9786272,12.813192 25.2895982,12.2655023 24.1765513,12.2655023 L15.9258705,12.2655023 C14.954163,12.2655023 14.3358036,12.8308595 14.3358036,13.71423 C14.3358036,14.6152679 14.9718304,15.1806251 15.943538,15.1806251 L18.9116629,15.1806251 L21.3144308,14.8979465 L18.7173214,17.2830469 L12.5337277,23.4666407 C12.2333817,23.7669866 12.0213728,24.1733371 12.0213728,24.5973549 C12.0213728,25.5513951 12.6927344,26.1697545 13.5937723,26.1697545 C14.0707924,26.1697545 14.4594755,25.9930804 14.7951563,25.675067 L20.9610826,19.5091407 L23.3108482,16.9473661 L23.0635044,19.4738059 L23.0635044,22.2829241 C23.0635044,23.2546317 23.6288616,23.8729911 24.5298995,23.8729911 Z" id="Shape" fill="#368EFC" fill-rule="nonzero"></path>
    </g>
</svg>