<?xml version="1.0" encoding="UTF-8"?>
<svg width="38px" height="38px" viewBox="0 0 38 38" version="1.1" xmlns="http://www.w3.org/2000/svg" xmlns:xlink="http://www.w3.org/1999/xlink">
  <title>Window/Menu/Cell/Icons/Active/menu_icon_wifi_unlock Copy 2</title>
  <g id="Window/Menu/Cell/Icons/Active/menu_icon_wifi_unlock-Copy-2" stroke="none" stroke-width="1" fill="none" fill-rule="evenodd">
    <path d="M4.36019677,17.1035743 C4.63426485,17.3928684 5.06059298,17.3776424 5.33466106,17.0883483 C8.9432241,13.2666212 13.6937375,11.2567886 19.007613,11.2567886 C24.3519405,11.2567886 29.1024539,13.2818472 32.695791,17.1035743 C32.954633,17.3624164 33.3657351,17.3624164 33.6398032,17.0731223 L35.6496358,15.0480637 C35.9084779,14.7892216 35.9084779,14.4542495 35.7105398,14.2106334 C32.2694628,9.97780422 25.798411,6.85647332 19.007613,6.85647332 C12.216815,6.85647332 5.73053717,9.97780422 2.30468618,14.2106334 C2.09152212,14.4542495 2.09152212,14.7892216 2.35036419,15.0480637 L4.36019677,17.1035743 Z M10.4505985,23.209202 C10.7703446,23.5289481 11.1509947,23.4984961 11.4555148,23.163524 C13.2065053,21.1993695 16.0842202,19.7833511 19.007613,19.8138031 C21.9766839,19.7833511 24.8239467,21.2450475 26.6206152,23.209202 C26.8946833,23.5137221 27.2753334,23.5137221 27.5646275,23.193976 L29.8333021,20.9557534 C30.0921442,20.7121373 30.1073702,20.3923912 29.8942061,20.1335492 C27.6864355,17.4080944 23.5754143,15.3982618 19.007613,15.3982618 C14.4550377,15.3982618 10.3440165,17.4233204 8.13624586,20.1335492 C7.9230818,20.3923912 7.93830781,20.6969113 8.18192388,20.9557534 L10.4505985,23.209202 Z M19.007613,31.2028543 C19.3273591,31.2028543 19.6166532,31.0353683 20.1800153,30.4872321 L23.7429004,27.0613812 C23.9712904,26.8482171 24.0169684,26.513245 23.8190304,26.2544029 C22.8597921,25.0210966 21.0783496,23.9552763 19.007613,23.9552763 C16.9064244,23.9552763 15.0793039,25.0667746 14.1352916,26.3457589 C13.9982576,26.558923 14.0439356,26.8482171 14.2875516,27.0613812 L17.8504367,30.4872321 C18.3985728,31.0353683 18.6878669,31.2028543 19.007613,31.2028543 Z" id="Shape" fill="#368EFC" fill-rule="nonzero"></path>
  </g>
</svg>