<?xml version="1.0" encoding="UTF-8"?>
<svg width="31px" height="32px" viewBox="0 0 31 32" version="1.1" xmlns="http://www.w3.org/2000/svg" xmlns:xlink="http://www.w3.org/1999/xlink">
    <title>Shape</title>
    <g id="Settings-App" stroke="none" stroke-width="1" fill="none" fill-rule="evenodd">
        <g id="Window/App/Window" transform="translate(-2191.000000, -35.000000)" fill="#656060" fill-rule="nonzero">
            <g id="IDE" transform="translate(96.000000, 0.000000)">
                <g id="Main-View" transform="translate(464.000000, 0.000000)">
                    <g id="Toolbar" transform="translate(139.000000, 2.000000)">
                        <g id="􀊫" transform="translate(1492.084573, 33.441455)">
                            <path d="M12.6513428,22.2395508 C13.9631429,22.2395508 15.1984497,21.9906901 16.3572632,21.4929687 C17.5160767,20.9952474 18.5347493,20.3045695 19.4132812,19.4209351 C20.2918132,18.5373006 20.9799398,17.5186727 21.4776611,16.3650513 C21.9753825,15.2114299 22.2242432,13.9792562 22.2242432,12.6685303 C22.2242432,11.3565511 21.9753825,10.1214233 21.4776611,8.96314697 C20.9799398,7.80487061 20.2918132,6.78651123 19.4132812,5.90806885 C18.5347493,5.02962646 17.5160767,4.33894857 16.3572632,3.83603516 C15.1984497,3.33312174 13.9631429,3.08166504 12.6513428,3.08166504 C11.3406169,3.08166504 10.1058024,3.33312174 8.94689941,3.83603516 C7.78799642,4.33894857 6.76932373,5.02962646 5.89088135,5.90806885 C5.01243896,6.78651123 4.3243571,7.80487061 3.82663574,8.96314697 C3.32891439,10.1214233 3.08005371,11.3565511 3.08005371,12.6685303 C3.08005371,13.9792562 3.32891439,15.2114299 3.82663574,16.3650513 C4.3243571,17.5186727 5.01243896,18.5373006 5.89088135,19.4209351 C6.76932373,20.3045695 7.78799642,20.9952474 8.94689941,21.4929687 C10.1058024,21.9906901 11.3406169,22.2395508 12.6513428,22.2395508 Z M12.6513428,25.3214844 C10.9127197,25.3214844 9.27775879,24.9933553 7.74645996,24.3370972 C6.21516113,23.680839 4.86912028,22.7697225 3.7083374,21.6037476 C2.54755452,20.4377726 1.63930257,19.0920003 0.983581543,17.5664307 C0.327860514,16.040861 0,14.4082275 0,12.6685303 C0,10.9184489 0.327860514,9.28057861 0.983581543,7.75491943 C1.63930257,6.22926025 2.55010579,4.88608398 3.71599121,3.72539062 C4.88187663,2.56469727 6.22791748,1.65362549 7.75411377,0.992175293 C9.28031006,0.330725098 10.9127197,0 12.6513428,0 C14.39104,0 16.0265381,0.330725098 17.5578369,0.992175293 C19.0891357,1.65362549 20.4351766,2.56469727 21.5959595,3.72539062 C22.7567424,4.88608398 23.6649943,6.23181152 24.3207153,7.76257324 C24.9764364,9.29333496 25.3042969,10.928654 25.3042969,12.6685303 C25.3042969,14.4082275 24.9764364,16.040861 24.3207153,17.5664307 C23.6649943,19.0920003 22.7567424,20.4377726 21.5959595,21.6037476 C20.4351766,22.7697225 19.0891357,23.680839 17.5578369,24.3370972 C16.0265381,24.9933553 14.39104,25.3214844 12.6513428,25.3214844 Z M28.7111816,31.1104492 C28.4317057,31.1104492 28.1591675,31.0608561 27.8935669,30.9616699 C27.6279663,30.8624837 27.3953532,30.7074382 27.1957275,30.4965332 L18.6350098,21.9513916 L21.7088867,18.9443848 L30.2215332,27.4723389 C30.4231283,27.674113 30.5735636,27.9069946 30.6728394,28.1709839 C30.7721151,28.4349731 30.8217529,28.7060791 30.8217529,28.9843018 C30.8217529,29.3812256 30.7313843,29.741626 30.550647,30.0655029 C30.3699097,30.3893799 30.1201986,30.6445068 29.8015137,30.8308838 C29.4828288,31.0172607 29.1193848,31.1104492 28.7111816,31.1104492 Z" id="Shape"></path>
                        </g>
                    </g>
                </g>
            </g>
        </g>
    </g>
</svg>